<mxfile host="app.diagrams.net" modified="2022-12-20T11:36:20.344Z" agent="5.0 (Windows NT 10.0; Win64; x64) AppleWebKit/537.36 (KHTML, like Gecko) Chrome/108.0.0.0 Safari/537.36" version="20.6.0" etag="33EYycCN4z0mkxavs63t" type="github">
  <diagram id="6GYlobCpjor05w96cC8r" name="Page-1">
    <mxGraphModel dx="3195" dy="1538" grid="1" gridSize="10" guides="1" tooltips="1" connect="1" arrows="1" fold="1" page="1" pageScale="1" pageWidth="827" pageHeight="1169" math="0" shadow="0">
      <root>
        <mxCell id="0" />
        <mxCell id="1" parent="0" />
        <mxCell id="_k3ZWYJr-vB7ajS1iSJs-503" value="FRONTEND" style="rounded=0;whiteSpace=wrap;html=1;strokeColor=#b85450;strokeWidth=1;fillColor=#F8E9E9;gradientColor=#EAADAD;fontSize=23;fontStyle=1;fontColor=#6E5857;verticalAlign=top;" vertex="1" parent="1">
          <mxGeometry x="20" y="860" width="760" height="1270" as="geometry" />
        </mxCell>
        <mxCell id="_k3ZWYJr-vB7ajS1iSJs-1" value="report_datasources" style="shape=table;startSize=30;container=1;collapsible=1;childLayout=tableLayout;fixedRows=1;rowLines=0;fontStyle=1;align=center;resizeLast=1;" vertex="1" parent="1">
          <mxGeometry x="20" y="30" width="150" height="150" as="geometry" />
        </mxCell>
        <mxCell id="_k3ZWYJr-vB7ajS1iSJs-2" value="" style="shape=tableRow;horizontal=0;startSize=0;swimlaneHead=0;swimlaneBody=0;fillColor=none;collapsible=0;dropTarget=0;points=[[0,0.5],[1,0.5]];portConstraint=eastwest;top=0;left=0;right=0;bottom=1;" vertex="1" parent="_k3ZWYJr-vB7ajS1iSJs-1">
          <mxGeometry y="30" width="150" height="30" as="geometry" />
        </mxCell>
        <mxCell id="_k3ZWYJr-vB7ajS1iSJs-3" value="PK" style="shape=partialRectangle;connectable=0;fillColor=none;top=0;left=0;bottom=0;right=0;fontStyle=1;overflow=hidden;" vertex="1" parent="_k3ZWYJr-vB7ajS1iSJs-2">
          <mxGeometry width="30" height="30" as="geometry">
            <mxRectangle width="30" height="30" as="alternateBounds" />
          </mxGeometry>
        </mxCell>
        <mxCell id="_k3ZWYJr-vB7ajS1iSJs-4" value="id" style="shape=partialRectangle;connectable=0;fillColor=none;top=0;left=0;bottom=0;right=0;align=left;spacingLeft=6;fontStyle=5;overflow=hidden;" vertex="1" parent="_k3ZWYJr-vB7ajS1iSJs-2">
          <mxGeometry x="30" width="120" height="30" as="geometry">
            <mxRectangle width="120" height="30" as="alternateBounds" />
          </mxGeometry>
        </mxCell>
        <mxCell id="_k3ZWYJr-vB7ajS1iSJs-5" value="" style="shape=tableRow;horizontal=0;startSize=0;swimlaneHead=0;swimlaneBody=0;fillColor=none;collapsible=0;dropTarget=0;points=[[0,0.5],[1,0.5]];portConstraint=eastwest;top=0;left=0;right=0;bottom=0;" vertex="1" parent="_k3ZWYJr-vB7ajS1iSJs-1">
          <mxGeometry y="60" width="150" height="30" as="geometry" />
        </mxCell>
        <mxCell id="_k3ZWYJr-vB7ajS1iSJs-6" value="" style="shape=partialRectangle;connectable=0;fillColor=none;top=0;left=0;bottom=0;right=0;editable=1;overflow=hidden;" vertex="1" parent="_k3ZWYJr-vB7ajS1iSJs-5">
          <mxGeometry width="30" height="30" as="geometry">
            <mxRectangle width="30" height="30" as="alternateBounds" />
          </mxGeometry>
        </mxCell>
        <mxCell id="_k3ZWYJr-vB7ajS1iSJs-7" value="name" style="shape=partialRectangle;connectable=0;fillColor=none;top=0;left=0;bottom=0;right=0;align=left;spacingLeft=6;overflow=hidden;" vertex="1" parent="_k3ZWYJr-vB7ajS1iSJs-5">
          <mxGeometry x="30" width="120" height="30" as="geometry">
            <mxRectangle width="120" height="30" as="alternateBounds" />
          </mxGeometry>
        </mxCell>
        <mxCell id="_k3ZWYJr-vB7ajS1iSJs-8" value="" style="shape=tableRow;horizontal=0;startSize=0;swimlaneHead=0;swimlaneBody=0;fillColor=none;collapsible=0;dropTarget=0;points=[[0,0.5],[1,0.5]];portConstraint=eastwest;top=0;left=0;right=0;bottom=0;" vertex="1" parent="_k3ZWYJr-vB7ajS1iSJs-1">
          <mxGeometry y="90" width="150" height="30" as="geometry" />
        </mxCell>
        <mxCell id="_k3ZWYJr-vB7ajS1iSJs-9" value="" style="shape=partialRectangle;connectable=0;fillColor=none;top=0;left=0;bottom=0;right=0;editable=1;overflow=hidden;" vertex="1" parent="_k3ZWYJr-vB7ajS1iSJs-8">
          <mxGeometry width="30" height="30" as="geometry">
            <mxRectangle width="30" height="30" as="alternateBounds" />
          </mxGeometry>
        </mxCell>
        <mxCell id="_k3ZWYJr-vB7ajS1iSJs-10" value="description" style="shape=partialRectangle;connectable=0;fillColor=none;top=0;left=0;bottom=0;right=0;align=left;spacingLeft=6;overflow=hidden;" vertex="1" parent="_k3ZWYJr-vB7ajS1iSJs-8">
          <mxGeometry x="30" width="120" height="30" as="geometry">
            <mxRectangle width="120" height="30" as="alternateBounds" />
          </mxGeometry>
        </mxCell>
        <mxCell id="_k3ZWYJr-vB7ajS1iSJs-550" value="" style="shape=tableRow;horizontal=0;startSize=0;swimlaneHead=0;swimlaneBody=0;fillColor=none;collapsible=0;dropTarget=0;points=[[0,0.5],[1,0.5]];portConstraint=eastwest;top=0;left=0;right=0;bottom=0;" vertex="1" parent="_k3ZWYJr-vB7ajS1iSJs-1">
          <mxGeometry y="120" width="150" height="30" as="geometry" />
        </mxCell>
        <mxCell id="_k3ZWYJr-vB7ajS1iSJs-551" value="" style="shape=partialRectangle;connectable=0;fillColor=none;top=0;left=0;bottom=0;right=0;editable=1;overflow=hidden;" vertex="1" parent="_k3ZWYJr-vB7ajS1iSJs-550">
          <mxGeometry width="30" height="30" as="geometry">
            <mxRectangle width="30" height="30" as="alternateBounds" />
          </mxGeometry>
        </mxCell>
        <mxCell id="_k3ZWYJr-vB7ajS1iSJs-552" value="link" style="shape=partialRectangle;connectable=0;fillColor=none;top=0;left=0;bottom=0;right=0;align=left;spacingLeft=6;overflow=hidden;" vertex="1" parent="_k3ZWYJr-vB7ajS1iSJs-550">
          <mxGeometry x="30" width="120" height="30" as="geometry">
            <mxRectangle width="120" height="30" as="alternateBounds" />
          </mxGeometry>
        </mxCell>
        <mxCell id="_k3ZWYJr-vB7ajS1iSJs-14" value="report_columns" style="shape=table;startSize=30;container=1;collapsible=1;childLayout=tableLayout;fixedRows=1;rowLines=0;fontStyle=1;align=center;resizeLast=1;" vertex="1" parent="1">
          <mxGeometry x="870" y="30" width="150" height="120" as="geometry" />
        </mxCell>
        <mxCell id="_k3ZWYJr-vB7ajS1iSJs-15" value="" style="shape=tableRow;horizontal=0;startSize=0;swimlaneHead=0;swimlaneBody=0;fillColor=none;collapsible=0;dropTarget=0;points=[[0,0.5],[1,0.5]];portConstraint=eastwest;top=0;left=0;right=0;bottom=1;" vertex="1" parent="_k3ZWYJr-vB7ajS1iSJs-14">
          <mxGeometry y="30" width="150" height="30" as="geometry" />
        </mxCell>
        <mxCell id="_k3ZWYJr-vB7ajS1iSJs-16" value="PK" style="shape=partialRectangle;connectable=0;fillColor=none;top=0;left=0;bottom=0;right=0;fontStyle=1;overflow=hidden;" vertex="1" parent="_k3ZWYJr-vB7ajS1iSJs-15">
          <mxGeometry width="30" height="30" as="geometry">
            <mxRectangle width="30" height="30" as="alternateBounds" />
          </mxGeometry>
        </mxCell>
        <mxCell id="_k3ZWYJr-vB7ajS1iSJs-17" value="id" style="shape=partialRectangle;connectable=0;fillColor=none;top=0;left=0;bottom=0;right=0;align=left;spacingLeft=6;fontStyle=5;overflow=hidden;" vertex="1" parent="_k3ZWYJr-vB7ajS1iSJs-15">
          <mxGeometry x="30" width="120" height="30" as="geometry">
            <mxRectangle width="120" height="30" as="alternateBounds" />
          </mxGeometry>
        </mxCell>
        <mxCell id="_k3ZWYJr-vB7ajS1iSJs-18" value="" style="shape=tableRow;horizontal=0;startSize=0;swimlaneHead=0;swimlaneBody=0;fillColor=none;collapsible=0;dropTarget=0;points=[[0,0.5],[1,0.5]];portConstraint=eastwest;top=0;left=0;right=0;bottom=0;" vertex="1" parent="_k3ZWYJr-vB7ajS1iSJs-14">
          <mxGeometry y="60" width="150" height="30" as="geometry" />
        </mxCell>
        <mxCell id="_k3ZWYJr-vB7ajS1iSJs-19" value="" style="shape=partialRectangle;connectable=0;fillColor=none;top=0;left=0;bottom=0;right=0;editable=1;overflow=hidden;" vertex="1" parent="_k3ZWYJr-vB7ajS1iSJs-18">
          <mxGeometry width="30" height="30" as="geometry">
            <mxRectangle width="30" height="30" as="alternateBounds" />
          </mxGeometry>
        </mxCell>
        <mxCell id="_k3ZWYJr-vB7ajS1iSJs-20" value="name" style="shape=partialRectangle;connectable=0;fillColor=none;top=0;left=0;bottom=0;right=0;align=left;spacingLeft=6;overflow=hidden;" vertex="1" parent="_k3ZWYJr-vB7ajS1iSJs-18">
          <mxGeometry x="30" width="120" height="30" as="geometry">
            <mxRectangle width="120" height="30" as="alternateBounds" />
          </mxGeometry>
        </mxCell>
        <mxCell id="_k3ZWYJr-vB7ajS1iSJs-21" value="" style="shape=tableRow;horizontal=0;startSize=0;swimlaneHead=0;swimlaneBody=0;fillColor=none;collapsible=0;dropTarget=0;points=[[0,0.5],[1,0.5]];portConstraint=eastwest;top=0;left=0;right=0;bottom=0;" vertex="1" parent="_k3ZWYJr-vB7ajS1iSJs-14">
          <mxGeometry y="90" width="150" height="30" as="geometry" />
        </mxCell>
        <mxCell id="_k3ZWYJr-vB7ajS1iSJs-22" value="" style="shape=partialRectangle;connectable=0;fillColor=none;top=0;left=0;bottom=0;right=0;editable=1;overflow=hidden;" vertex="1" parent="_k3ZWYJr-vB7ajS1iSJs-21">
          <mxGeometry width="30" height="30" as="geometry">
            <mxRectangle width="30" height="30" as="alternateBounds" />
          </mxGeometry>
        </mxCell>
        <mxCell id="_k3ZWYJr-vB7ajS1iSJs-23" value="type" style="shape=partialRectangle;connectable=0;fillColor=none;top=0;left=0;bottom=0;right=0;align=left;spacingLeft=6;overflow=hidden;" vertex="1" parent="_k3ZWYJr-vB7ajS1iSJs-21">
          <mxGeometry x="30" width="120" height="30" as="geometry">
            <mxRectangle width="120" height="30" as="alternateBounds" />
          </mxGeometry>
        </mxCell>
        <mxCell id="_k3ZWYJr-vB7ajS1iSJs-24" value="report_columns" style="shape=table;startSize=30;container=1;collapsible=1;childLayout=tableLayout;fixedRows=1;rowLines=0;fontStyle=1;align=center;resizeLast=1;" vertex="1" parent="1">
          <mxGeometry x="500" y="20" width="150" height="120" as="geometry" />
        </mxCell>
        <mxCell id="_k3ZWYJr-vB7ajS1iSJs-25" value="" style="shape=tableRow;horizontal=0;startSize=0;swimlaneHead=0;swimlaneBody=0;fillColor=none;collapsible=0;dropTarget=0;points=[[0,0.5],[1,0.5]];portConstraint=eastwest;top=0;left=0;right=0;bottom=1;" vertex="1" parent="_k3ZWYJr-vB7ajS1iSJs-24">
          <mxGeometry y="30" width="150" height="30" as="geometry" />
        </mxCell>
        <mxCell id="_k3ZWYJr-vB7ajS1iSJs-26" value="PK" style="shape=partialRectangle;connectable=0;fillColor=none;top=0;left=0;bottom=0;right=0;fontStyle=1;overflow=hidden;" vertex="1" parent="_k3ZWYJr-vB7ajS1iSJs-25">
          <mxGeometry width="30" height="30" as="geometry">
            <mxRectangle width="30" height="30" as="alternateBounds" />
          </mxGeometry>
        </mxCell>
        <mxCell id="_k3ZWYJr-vB7ajS1iSJs-27" value="id" style="shape=partialRectangle;connectable=0;fillColor=none;top=0;left=0;bottom=0;right=0;align=left;spacingLeft=6;fontStyle=5;overflow=hidden;" vertex="1" parent="_k3ZWYJr-vB7ajS1iSJs-25">
          <mxGeometry x="30" width="120" height="30" as="geometry">
            <mxRectangle width="120" height="30" as="alternateBounds" />
          </mxGeometry>
        </mxCell>
        <mxCell id="_k3ZWYJr-vB7ajS1iSJs-28" value="" style="shape=tableRow;horizontal=0;startSize=0;swimlaneHead=0;swimlaneBody=0;fillColor=none;collapsible=0;dropTarget=0;points=[[0,0.5],[1,0.5]];portConstraint=eastwest;top=0;left=0;right=0;bottom=0;" vertex="1" parent="_k3ZWYJr-vB7ajS1iSJs-24">
          <mxGeometry y="60" width="150" height="30" as="geometry" />
        </mxCell>
        <mxCell id="_k3ZWYJr-vB7ajS1iSJs-29" value="" style="shape=partialRectangle;connectable=0;fillColor=none;top=0;left=0;bottom=0;right=0;editable=1;overflow=hidden;" vertex="1" parent="_k3ZWYJr-vB7ajS1iSJs-28">
          <mxGeometry width="30" height="30" as="geometry">
            <mxRectangle width="30" height="30" as="alternateBounds" />
          </mxGeometry>
        </mxCell>
        <mxCell id="_k3ZWYJr-vB7ajS1iSJs-30" value="datasource_id" style="shape=partialRectangle;connectable=0;fillColor=none;top=0;left=0;bottom=0;right=0;align=left;spacingLeft=6;overflow=hidden;" vertex="1" parent="_k3ZWYJr-vB7ajS1iSJs-28">
          <mxGeometry x="30" width="120" height="30" as="geometry">
            <mxRectangle width="120" height="30" as="alternateBounds" />
          </mxGeometry>
        </mxCell>
        <mxCell id="_k3ZWYJr-vB7ajS1iSJs-31" value="" style="shape=tableRow;horizontal=0;startSize=0;swimlaneHead=0;swimlaneBody=0;fillColor=none;collapsible=0;dropTarget=0;points=[[0,0.5],[1,0.5]];portConstraint=eastwest;top=0;left=0;right=0;bottom=0;" vertex="1" parent="_k3ZWYJr-vB7ajS1iSJs-24">
          <mxGeometry y="90" width="150" height="30" as="geometry" />
        </mxCell>
        <mxCell id="_k3ZWYJr-vB7ajS1iSJs-32" value="" style="shape=partialRectangle;connectable=0;fillColor=none;top=0;left=0;bottom=0;right=0;editable=1;overflow=hidden;" vertex="1" parent="_k3ZWYJr-vB7ajS1iSJs-31">
          <mxGeometry width="30" height="30" as="geometry">
            <mxRectangle width="30" height="30" as="alternateBounds" />
          </mxGeometry>
        </mxCell>
        <mxCell id="_k3ZWYJr-vB7ajS1iSJs-33" value="column_id" style="shape=partialRectangle;connectable=0;fillColor=none;top=0;left=0;bottom=0;right=0;align=left;spacingLeft=6;overflow=hidden;" vertex="1" parent="_k3ZWYJr-vB7ajS1iSJs-31">
          <mxGeometry x="30" width="120" height="30" as="geometry">
            <mxRectangle width="120" height="30" as="alternateBounds" />
          </mxGeometry>
        </mxCell>
        <mxCell id="_k3ZWYJr-vB7ajS1iSJs-36" value="" style="edgeStyle=entityRelationEdgeStyle;fontSize=12;html=1;endArrow=ERoneToMany;rounded=0;exitX=1;exitY=0.5;exitDx=0;exitDy=0;entryX=0;entryY=0.5;entryDx=0;entryDy=0;" edge="1" parent="1" source="_k3ZWYJr-vB7ajS1iSJs-2" target="_k3ZWYJr-vB7ajS1iSJs-28">
          <mxGeometry width="100" height="100" relative="1" as="geometry">
            <mxPoint x="140" y="480" as="sourcePoint" />
            <mxPoint x="240" y="380" as="targetPoint" />
          </mxGeometry>
        </mxCell>
        <mxCell id="_k3ZWYJr-vB7ajS1iSJs-38" value="" style="edgeStyle=entityRelationEdgeStyle;fontSize=12;html=1;endArrow=ERmany;rounded=0;exitX=0;exitY=0.5;exitDx=0;exitDy=0;entryX=1;entryY=0.5;entryDx=0;entryDy=0;" edge="1" parent="1" source="_k3ZWYJr-vB7ajS1iSJs-15" target="_k3ZWYJr-vB7ajS1iSJs-31">
          <mxGeometry width="100" height="100" relative="1" as="geometry">
            <mxPoint x="490" y="430" as="sourcePoint" />
            <mxPoint x="590" y="330" as="targetPoint" />
          </mxGeometry>
        </mxCell>
        <mxCell id="_k3ZWYJr-vB7ajS1iSJs-214" value="" style="shape=table;html=1;whiteSpace=wrap;startSize=0;container=1;collapsible=0;childLayout=tableLayout;" vertex="1" parent="1">
          <mxGeometry x="20" y="230" width="380" height="120" as="geometry" />
        </mxCell>
        <mxCell id="_k3ZWYJr-vB7ajS1iSJs-215" value="" style="shape=tableRow;horizontal=0;startSize=0;swimlaneHead=0;swimlaneBody=0;top=0;left=0;bottom=0;right=0;collapsible=0;dropTarget=0;fillColor=none;points=[[0,0.5],[1,0.5]];portConstraint=eastwest;" vertex="1" parent="_k3ZWYJr-vB7ajS1iSJs-214">
          <mxGeometry width="380" height="40" as="geometry" />
        </mxCell>
        <mxCell id="_k3ZWYJr-vB7ajS1iSJs-216" value="id" style="shape=partialRectangle;html=1;whiteSpace=wrap;connectable=0;fillColor=#fff2cc;top=0;left=0;bottom=0;right=0;overflow=hidden;strokeColor=#d6b656;" vertex="1" parent="_k3ZWYJr-vB7ajS1iSJs-215">
          <mxGeometry width="40" height="40" as="geometry">
            <mxRectangle width="40" height="40" as="alternateBounds" />
          </mxGeometry>
        </mxCell>
        <mxCell id="_k3ZWYJr-vB7ajS1iSJs-217" value="name" style="shape=partialRectangle;html=1;whiteSpace=wrap;connectable=0;fillColor=#fff2cc;top=0;left=0;bottom=0;right=0;overflow=hidden;strokeColor=#d6b656;" vertex="1" parent="_k3ZWYJr-vB7ajS1iSJs-215">
          <mxGeometry x="40" width="70" height="40" as="geometry">
            <mxRectangle width="70" height="40" as="alternateBounds" />
          </mxGeometry>
        </mxCell>
        <mxCell id="_k3ZWYJr-vB7ajS1iSJs-218" value="description" style="shape=partialRectangle;html=1;whiteSpace=wrap;connectable=0;fillColor=#fff2cc;top=0;left=0;bottom=0;right=0;overflow=hidden;strokeColor=#d6b656;" vertex="1" parent="_k3ZWYJr-vB7ajS1iSJs-215">
          <mxGeometry x="110" width="110" height="40" as="geometry">
            <mxRectangle width="110" height="40" as="alternateBounds" />
          </mxGeometry>
        </mxCell>
        <mxCell id="_k3ZWYJr-vB7ajS1iSJs-510" value="link" style="shape=partialRectangle;html=1;whiteSpace=wrap;connectable=0;fillColor=#fff2cc;top=0;left=0;bottom=0;right=0;overflow=hidden;strokeColor=#d6b656;" vertex="1" parent="_k3ZWYJr-vB7ajS1iSJs-215">
          <mxGeometry x="220" width="160" height="40" as="geometry">
            <mxRectangle width="160" height="40" as="alternateBounds" />
          </mxGeometry>
        </mxCell>
        <mxCell id="_k3ZWYJr-vB7ajS1iSJs-219" value="" style="shape=tableRow;horizontal=0;startSize=0;swimlaneHead=0;swimlaneBody=0;top=0;left=0;bottom=0;right=0;collapsible=0;dropTarget=0;fillColor=none;points=[[0,0.5],[1,0.5]];portConstraint=eastwest;" vertex="1" parent="_k3ZWYJr-vB7ajS1iSJs-214">
          <mxGeometry y="40" width="380" height="40" as="geometry" />
        </mxCell>
        <mxCell id="_k3ZWYJr-vB7ajS1iSJs-220" value="1" style="shape=partialRectangle;html=1;whiteSpace=wrap;connectable=0;fillColor=#ffe6cc;top=0;left=0;bottom=0;right=0;overflow=hidden;strokeColor=#d79b00;" vertex="1" parent="_k3ZWYJr-vB7ajS1iSJs-219">
          <mxGeometry width="40" height="40" as="geometry">
            <mxRectangle width="40" height="40" as="alternateBounds" />
          </mxGeometry>
        </mxCell>
        <mxCell id="_k3ZWYJr-vB7ajS1iSJs-221" value="sweep_all" style="shape=partialRectangle;html=1;whiteSpace=wrap;connectable=0;fillColor=none;top=0;left=0;bottom=0;right=0;overflow=hidden;" vertex="1" parent="_k3ZWYJr-vB7ajS1iSJs-219">
          <mxGeometry x="40" width="70" height="40" as="geometry">
            <mxRectangle width="70" height="40" as="alternateBounds" />
          </mxGeometry>
        </mxCell>
        <mxCell id="_k3ZWYJr-vB7ajS1iSJs-222" value="desc 1" style="shape=partialRectangle;html=1;whiteSpace=wrap;connectable=0;fillColor=none;top=0;left=0;bottom=0;right=0;overflow=hidden;" vertex="1" parent="_k3ZWYJr-vB7ajS1iSJs-219">
          <mxGeometry x="110" width="110" height="40" as="geometry">
            <mxRectangle width="110" height="40" as="alternateBounds" />
          </mxGeometry>
        </mxCell>
        <mxCell id="_k3ZWYJr-vB7ajS1iSJs-511" value="v1/sweep/all/" style="shape=partialRectangle;html=1;whiteSpace=wrap;connectable=0;fillColor=none;top=0;left=0;bottom=0;right=0;overflow=hidden;" vertex="1" parent="_k3ZWYJr-vB7ajS1iSJs-219">
          <mxGeometry x="220" width="160" height="40" as="geometry">
            <mxRectangle width="160" height="40" as="alternateBounds" />
          </mxGeometry>
        </mxCell>
        <mxCell id="_k3ZWYJr-vB7ajS1iSJs-223" value="" style="shape=tableRow;horizontal=0;startSize=0;swimlaneHead=0;swimlaneBody=0;top=0;left=0;bottom=0;right=0;collapsible=0;dropTarget=0;fillColor=none;points=[[0,0.5],[1,0.5]];portConstraint=eastwest;" vertex="1" parent="_k3ZWYJr-vB7ajS1iSJs-214">
          <mxGeometry y="80" width="380" height="40" as="geometry" />
        </mxCell>
        <mxCell id="_k3ZWYJr-vB7ajS1iSJs-224" value="2" style="shape=partialRectangle;html=1;whiteSpace=wrap;connectable=0;fillColor=#ffe6cc;top=0;left=0;bottom=0;right=0;overflow=hidden;strokeColor=#d79b00;" vertex="1" parent="_k3ZWYJr-vB7ajS1iSJs-223">
          <mxGeometry width="40" height="40" as="geometry">
            <mxRectangle width="40" height="40" as="alternateBounds" />
          </mxGeometry>
        </mxCell>
        <mxCell id="_k3ZWYJr-vB7ajS1iSJs-225" value="leak_alarms" style="shape=partialRectangle;html=1;whiteSpace=wrap;connectable=0;fillColor=none;top=0;left=0;bottom=0;right=0;overflow=hidden;" vertex="1" parent="_k3ZWYJr-vB7ajS1iSJs-223">
          <mxGeometry x="40" width="70" height="40" as="geometry">
            <mxRectangle width="70" height="40" as="alternateBounds" />
          </mxGeometry>
        </mxCell>
        <mxCell id="_k3ZWYJr-vB7ajS1iSJs-226" value="desc 2" style="shape=partialRectangle;html=1;whiteSpace=wrap;connectable=0;fillColor=none;top=0;left=0;bottom=0;right=0;overflow=hidden;pointerEvents=1;" vertex="1" parent="_k3ZWYJr-vB7ajS1iSJs-223">
          <mxGeometry x="110" width="110" height="40" as="geometry">
            <mxRectangle width="110" height="40" as="alternateBounds" />
          </mxGeometry>
        </mxCell>
        <mxCell id="_k3ZWYJr-vB7ajS1iSJs-512" value="/v1/leak_alarms/" style="shape=partialRectangle;html=1;whiteSpace=wrap;connectable=0;fillColor=none;top=0;left=0;bottom=0;right=0;overflow=hidden;pointerEvents=1;" vertex="1" parent="_k3ZWYJr-vB7ajS1iSJs-223">
          <mxGeometry x="220" width="160" height="40" as="geometry">
            <mxRectangle width="160" height="40" as="alternateBounds" />
          </mxGeometry>
        </mxCell>
        <mxCell id="_k3ZWYJr-vB7ajS1iSJs-535" style="edgeStyle=orthogonalEdgeStyle;rounded=0;orthogonalLoop=1;jettySize=auto;html=1;fontSize=16;fontColor=#6E5857;" edge="1" parent="1" source="_k3ZWYJr-vB7ajS1iSJs-227" target="_k3ZWYJr-vB7ajS1iSJs-395">
          <mxGeometry relative="1" as="geometry" />
        </mxCell>
        <mxCell id="_k3ZWYJr-vB7ajS1iSJs-227" value="" style="shape=table;html=1;whiteSpace=wrap;startSize=0;container=1;collapsible=0;childLayout=tableLayout;" vertex="1" parent="1">
          <mxGeometry x="470" y="170" width="210" height="640" as="geometry" />
        </mxCell>
        <mxCell id="_k3ZWYJr-vB7ajS1iSJs-228" value="" style="shape=tableRow;horizontal=0;startSize=0;swimlaneHead=0;swimlaneBody=0;top=0;left=0;bottom=0;right=0;collapsible=0;dropTarget=0;fillColor=none;points=[[0,0.5],[1,0.5]];portConstraint=eastwest;" vertex="1" parent="_k3ZWYJr-vB7ajS1iSJs-227">
          <mxGeometry width="210" height="40" as="geometry" />
        </mxCell>
        <mxCell id="_k3ZWYJr-vB7ajS1iSJs-229" value="id" style="shape=partialRectangle;html=1;whiteSpace=wrap;connectable=0;fillColor=#fff2cc;top=0;left=0;bottom=0;right=0;overflow=hidden;strokeColor=#000000;perimeterSpacing=2;strokeWidth=1;" vertex="1" parent="_k3ZWYJr-vB7ajS1iSJs-228">
          <mxGeometry width="40" height="40" as="geometry">
            <mxRectangle width="40" height="40" as="alternateBounds" />
          </mxGeometry>
        </mxCell>
        <mxCell id="_k3ZWYJr-vB7ajS1iSJs-230" value="datasource_id" style="shape=partialRectangle;html=1;whiteSpace=wrap;connectable=0;fillColor=#fff2cc;top=0;left=0;bottom=0;right=0;overflow=hidden;strokeColor=#d6b656;" vertex="1" parent="_k3ZWYJr-vB7ajS1iSJs-228">
          <mxGeometry x="40" width="90" height="40" as="geometry">
            <mxRectangle width="90" height="40" as="alternateBounds" />
          </mxGeometry>
        </mxCell>
        <mxCell id="_k3ZWYJr-vB7ajS1iSJs-231" value="column_id" style="shape=partialRectangle;html=1;whiteSpace=wrap;connectable=0;fillColor=#fff2cc;top=0;left=0;bottom=0;right=0;overflow=hidden;strokeColor=#d6b656;" vertex="1" parent="_k3ZWYJr-vB7ajS1iSJs-228">
          <mxGeometry x="130" width="80" height="40" as="geometry">
            <mxRectangle width="80" height="40" as="alternateBounds" />
          </mxGeometry>
        </mxCell>
        <mxCell id="_k3ZWYJr-vB7ajS1iSJs-232" value="" style="shape=tableRow;horizontal=0;startSize=0;swimlaneHead=0;swimlaneBody=0;top=0;left=0;bottom=0;right=0;collapsible=0;dropTarget=0;fillColor=none;points=[[0,0.5],[1,0.5]];portConstraint=eastwest;" vertex="1" parent="_k3ZWYJr-vB7ajS1iSJs-227">
          <mxGeometry y="40" width="210" height="40" as="geometry" />
        </mxCell>
        <mxCell id="_k3ZWYJr-vB7ajS1iSJs-233" value="1" style="shape=partialRectangle;html=1;whiteSpace=wrap;connectable=0;fillColor=none;top=0;left=0;bottom=0;right=0;overflow=hidden;" vertex="1" parent="_k3ZWYJr-vB7ajS1iSJs-232">
          <mxGeometry width="40" height="40" as="geometry">
            <mxRectangle width="40" height="40" as="alternateBounds" />
          </mxGeometry>
        </mxCell>
        <mxCell id="_k3ZWYJr-vB7ajS1iSJs-234" value="1" style="shape=partialRectangle;html=1;whiteSpace=wrap;connectable=0;fillColor=#ffe6cc;top=0;left=0;bottom=0;right=0;overflow=hidden;strokeColor=#d79b00;" vertex="1" parent="_k3ZWYJr-vB7ajS1iSJs-232">
          <mxGeometry x="40" width="90" height="40" as="geometry">
            <mxRectangle width="90" height="40" as="alternateBounds" />
          </mxGeometry>
        </mxCell>
        <mxCell id="_k3ZWYJr-vB7ajS1iSJs-235" value="1" style="shape=partialRectangle;html=1;whiteSpace=wrap;connectable=0;fillColor=#dae8fc;top=0;left=0;bottom=0;right=0;overflow=hidden;strokeColor=#6c8ebf;" vertex="1" parent="_k3ZWYJr-vB7ajS1iSJs-232">
          <mxGeometry x="130" width="80" height="40" as="geometry">
            <mxRectangle width="80" height="40" as="alternateBounds" />
          </mxGeometry>
        </mxCell>
        <mxCell id="_k3ZWYJr-vB7ajS1iSJs-236" value="" style="shape=tableRow;horizontal=0;startSize=0;swimlaneHead=0;swimlaneBody=0;top=0;left=0;bottom=0;right=0;collapsible=0;dropTarget=0;fillColor=none;points=[[0,0.5],[1,0.5]];portConstraint=eastwest;" vertex="1" parent="_k3ZWYJr-vB7ajS1iSJs-227">
          <mxGeometry y="80" width="210" height="40" as="geometry" />
        </mxCell>
        <mxCell id="_k3ZWYJr-vB7ajS1iSJs-237" value="2" style="shape=partialRectangle;html=1;whiteSpace=wrap;connectable=0;fillColor=none;top=0;left=0;bottom=0;right=0;overflow=hidden;" vertex="1" parent="_k3ZWYJr-vB7ajS1iSJs-236">
          <mxGeometry width="40" height="40" as="geometry">
            <mxRectangle width="40" height="40" as="alternateBounds" />
          </mxGeometry>
        </mxCell>
        <mxCell id="_k3ZWYJr-vB7ajS1iSJs-238" value="1" style="shape=partialRectangle;html=1;whiteSpace=wrap;connectable=0;fillColor=#ffe6cc;top=0;left=0;bottom=0;right=0;overflow=hidden;strokeColor=#d79b00;" vertex="1" parent="_k3ZWYJr-vB7ajS1iSJs-236">
          <mxGeometry x="40" width="90" height="40" as="geometry">
            <mxRectangle width="90" height="40" as="alternateBounds" />
          </mxGeometry>
        </mxCell>
        <mxCell id="_k3ZWYJr-vB7ajS1iSJs-239" value="2" style="shape=partialRectangle;html=1;whiteSpace=wrap;connectable=0;fillColor=#dae8fc;top=0;left=0;bottom=0;right=0;overflow=hidden;pointerEvents=1;strokeColor=#6c8ebf;" vertex="1" parent="_k3ZWYJr-vB7ajS1iSJs-236">
          <mxGeometry x="130" width="80" height="40" as="geometry">
            <mxRectangle width="80" height="40" as="alternateBounds" />
          </mxGeometry>
        </mxCell>
        <mxCell id="_k3ZWYJr-vB7ajS1iSJs-252" style="shape=tableRow;horizontal=0;startSize=0;swimlaneHead=0;swimlaneBody=0;top=0;left=0;bottom=0;right=0;collapsible=0;dropTarget=0;fillColor=none;points=[[0,0.5],[1,0.5]];portConstraint=eastwest;" vertex="1" parent="_k3ZWYJr-vB7ajS1iSJs-227">
          <mxGeometry y="120" width="210" height="40" as="geometry" />
        </mxCell>
        <mxCell id="_k3ZWYJr-vB7ajS1iSJs-253" value="3" style="shape=partialRectangle;html=1;whiteSpace=wrap;connectable=0;fillColor=none;top=0;left=0;bottom=0;right=0;overflow=hidden;" vertex="1" parent="_k3ZWYJr-vB7ajS1iSJs-252">
          <mxGeometry width="40" height="40" as="geometry">
            <mxRectangle width="40" height="40" as="alternateBounds" />
          </mxGeometry>
        </mxCell>
        <mxCell id="_k3ZWYJr-vB7ajS1iSJs-254" value="1" style="shape=partialRectangle;html=1;whiteSpace=wrap;connectable=0;fillColor=#ffe6cc;top=0;left=0;bottom=0;right=0;overflow=hidden;strokeColor=#d79b00;" vertex="1" parent="_k3ZWYJr-vB7ajS1iSJs-252">
          <mxGeometry x="40" width="90" height="40" as="geometry">
            <mxRectangle width="90" height="40" as="alternateBounds" />
          </mxGeometry>
        </mxCell>
        <mxCell id="_k3ZWYJr-vB7ajS1iSJs-255" value="3" style="shape=partialRectangle;html=1;whiteSpace=wrap;connectable=0;fillColor=#dae8fc;top=0;left=0;bottom=0;right=0;overflow=hidden;pointerEvents=1;strokeColor=#6c8ebf;" vertex="1" parent="_k3ZWYJr-vB7ajS1iSJs-252">
          <mxGeometry x="130" width="80" height="40" as="geometry">
            <mxRectangle width="80" height="40" as="alternateBounds" />
          </mxGeometry>
        </mxCell>
        <mxCell id="_k3ZWYJr-vB7ajS1iSJs-256" style="shape=tableRow;horizontal=0;startSize=0;swimlaneHead=0;swimlaneBody=0;top=0;left=0;bottom=0;right=0;collapsible=0;dropTarget=0;fillColor=none;points=[[0,0.5],[1,0.5]];portConstraint=eastwest;" vertex="1" parent="_k3ZWYJr-vB7ajS1iSJs-227">
          <mxGeometry y="160" width="210" height="40" as="geometry" />
        </mxCell>
        <mxCell id="_k3ZWYJr-vB7ajS1iSJs-257" value="4" style="shape=partialRectangle;html=1;whiteSpace=wrap;connectable=0;fillColor=none;top=0;left=0;bottom=0;right=0;overflow=hidden;" vertex="1" parent="_k3ZWYJr-vB7ajS1iSJs-256">
          <mxGeometry width="40" height="40" as="geometry">
            <mxRectangle width="40" height="40" as="alternateBounds" />
          </mxGeometry>
        </mxCell>
        <mxCell id="_k3ZWYJr-vB7ajS1iSJs-258" value="1" style="shape=partialRectangle;html=1;whiteSpace=wrap;connectable=0;fillColor=#ffe6cc;top=0;left=0;bottom=0;right=0;overflow=hidden;strokeColor=#d79b00;" vertex="1" parent="_k3ZWYJr-vB7ajS1iSJs-256">
          <mxGeometry x="40" width="90" height="40" as="geometry">
            <mxRectangle width="90" height="40" as="alternateBounds" />
          </mxGeometry>
        </mxCell>
        <mxCell id="_k3ZWYJr-vB7ajS1iSJs-259" value="4" style="shape=partialRectangle;html=1;whiteSpace=wrap;connectable=0;fillColor=#dae8fc;top=0;left=0;bottom=0;right=0;overflow=hidden;pointerEvents=1;strokeColor=#6c8ebf;" vertex="1" parent="_k3ZWYJr-vB7ajS1iSJs-256">
          <mxGeometry x="130" width="80" height="40" as="geometry">
            <mxRectangle width="80" height="40" as="alternateBounds" />
          </mxGeometry>
        </mxCell>
        <mxCell id="_k3ZWYJr-vB7ajS1iSJs-260" style="shape=tableRow;horizontal=0;startSize=0;swimlaneHead=0;swimlaneBody=0;top=0;left=0;bottom=0;right=0;collapsible=0;dropTarget=0;fillColor=none;points=[[0,0.5],[1,0.5]];portConstraint=eastwest;" vertex="1" parent="_k3ZWYJr-vB7ajS1iSJs-227">
          <mxGeometry y="200" width="210" height="40" as="geometry" />
        </mxCell>
        <mxCell id="_k3ZWYJr-vB7ajS1iSJs-261" value="5" style="shape=partialRectangle;html=1;whiteSpace=wrap;connectable=0;fillColor=none;top=0;left=0;bottom=0;right=0;overflow=hidden;" vertex="1" parent="_k3ZWYJr-vB7ajS1iSJs-260">
          <mxGeometry width="40" height="40" as="geometry">
            <mxRectangle width="40" height="40" as="alternateBounds" />
          </mxGeometry>
        </mxCell>
        <mxCell id="_k3ZWYJr-vB7ajS1iSJs-262" value="1" style="shape=partialRectangle;html=1;whiteSpace=wrap;connectable=0;fillColor=#ffe6cc;top=0;left=0;bottom=0;right=0;overflow=hidden;strokeColor=#d79b00;" vertex="1" parent="_k3ZWYJr-vB7ajS1iSJs-260">
          <mxGeometry x="40" width="90" height="40" as="geometry">
            <mxRectangle width="90" height="40" as="alternateBounds" />
          </mxGeometry>
        </mxCell>
        <mxCell id="_k3ZWYJr-vB7ajS1iSJs-263" value="5" style="shape=partialRectangle;html=1;whiteSpace=wrap;connectable=0;fillColor=#dae8fc;top=0;left=0;bottom=0;right=0;overflow=hidden;pointerEvents=1;strokeColor=#6c8ebf;" vertex="1" parent="_k3ZWYJr-vB7ajS1iSJs-260">
          <mxGeometry x="130" width="80" height="40" as="geometry">
            <mxRectangle width="80" height="40" as="alternateBounds" />
          </mxGeometry>
        </mxCell>
        <mxCell id="_k3ZWYJr-vB7ajS1iSJs-264" style="shape=tableRow;horizontal=0;startSize=0;swimlaneHead=0;swimlaneBody=0;top=0;left=0;bottom=0;right=0;collapsible=0;dropTarget=0;fillColor=none;points=[[0,0.5],[1,0.5]];portConstraint=eastwest;" vertex="1" parent="_k3ZWYJr-vB7ajS1iSJs-227">
          <mxGeometry y="240" width="210" height="40" as="geometry" />
        </mxCell>
        <mxCell id="_k3ZWYJr-vB7ajS1iSJs-265" value="6" style="shape=partialRectangle;html=1;whiteSpace=wrap;connectable=0;fillColor=none;top=0;left=0;bottom=0;right=0;overflow=hidden;" vertex="1" parent="_k3ZWYJr-vB7ajS1iSJs-264">
          <mxGeometry width="40" height="40" as="geometry">
            <mxRectangle width="40" height="40" as="alternateBounds" />
          </mxGeometry>
        </mxCell>
        <mxCell id="_k3ZWYJr-vB7ajS1iSJs-266" value="1" style="shape=partialRectangle;html=1;whiteSpace=wrap;connectable=0;fillColor=#ffe6cc;top=0;left=0;bottom=0;right=0;overflow=hidden;strokeColor=#d79b00;" vertex="1" parent="_k3ZWYJr-vB7ajS1iSJs-264">
          <mxGeometry x="40" width="90" height="40" as="geometry">
            <mxRectangle width="90" height="40" as="alternateBounds" />
          </mxGeometry>
        </mxCell>
        <mxCell id="_k3ZWYJr-vB7ajS1iSJs-267" value="6" style="shape=partialRectangle;html=1;whiteSpace=wrap;connectable=0;fillColor=#dae8fc;top=0;left=0;bottom=0;right=0;overflow=hidden;pointerEvents=1;strokeColor=#6c8ebf;" vertex="1" parent="_k3ZWYJr-vB7ajS1iSJs-264">
          <mxGeometry x="130" width="80" height="40" as="geometry">
            <mxRectangle width="80" height="40" as="alternateBounds" />
          </mxGeometry>
        </mxCell>
        <mxCell id="_k3ZWYJr-vB7ajS1iSJs-268" style="shape=tableRow;horizontal=0;startSize=0;swimlaneHead=0;swimlaneBody=0;top=0;left=0;bottom=0;right=0;collapsible=0;dropTarget=0;fillColor=none;points=[[0,0.5],[1,0.5]];portConstraint=eastwest;" vertex="1" parent="_k3ZWYJr-vB7ajS1iSJs-227">
          <mxGeometry y="280" width="210" height="40" as="geometry" />
        </mxCell>
        <mxCell id="_k3ZWYJr-vB7ajS1iSJs-269" value="7" style="shape=partialRectangle;html=1;whiteSpace=wrap;connectable=0;fillColor=none;top=0;left=0;bottom=0;right=0;overflow=hidden;" vertex="1" parent="_k3ZWYJr-vB7ajS1iSJs-268">
          <mxGeometry width="40" height="40" as="geometry">
            <mxRectangle width="40" height="40" as="alternateBounds" />
          </mxGeometry>
        </mxCell>
        <mxCell id="_k3ZWYJr-vB7ajS1iSJs-270" value="1" style="shape=partialRectangle;html=1;whiteSpace=wrap;connectable=0;fillColor=#ffe6cc;top=0;left=0;bottom=0;right=0;overflow=hidden;strokeColor=#d79b00;" vertex="1" parent="_k3ZWYJr-vB7ajS1iSJs-268">
          <mxGeometry x="40" width="90" height="40" as="geometry">
            <mxRectangle width="90" height="40" as="alternateBounds" />
          </mxGeometry>
        </mxCell>
        <mxCell id="_k3ZWYJr-vB7ajS1iSJs-271" value="7" style="shape=partialRectangle;html=1;whiteSpace=wrap;connectable=0;fillColor=#dae8fc;top=0;left=0;bottom=0;right=0;overflow=hidden;pointerEvents=1;strokeColor=#6c8ebf;" vertex="1" parent="_k3ZWYJr-vB7ajS1iSJs-268">
          <mxGeometry x="130" width="80" height="40" as="geometry">
            <mxRectangle width="80" height="40" as="alternateBounds" />
          </mxGeometry>
        </mxCell>
        <mxCell id="_k3ZWYJr-vB7ajS1iSJs-272" style="shape=tableRow;horizontal=0;startSize=0;swimlaneHead=0;swimlaneBody=0;top=0;left=0;bottom=0;right=0;collapsible=0;dropTarget=0;fillColor=none;points=[[0,0.5],[1,0.5]];portConstraint=eastwest;" vertex="1" parent="_k3ZWYJr-vB7ajS1iSJs-227">
          <mxGeometry y="320" width="210" height="40" as="geometry" />
        </mxCell>
        <mxCell id="_k3ZWYJr-vB7ajS1iSJs-273" value="8" style="shape=partialRectangle;html=1;whiteSpace=wrap;connectable=0;fillColor=none;top=0;left=0;bottom=0;right=0;overflow=hidden;" vertex="1" parent="_k3ZWYJr-vB7ajS1iSJs-272">
          <mxGeometry width="40" height="40" as="geometry">
            <mxRectangle width="40" height="40" as="alternateBounds" />
          </mxGeometry>
        </mxCell>
        <mxCell id="_k3ZWYJr-vB7ajS1iSJs-274" value="1" style="shape=partialRectangle;html=1;whiteSpace=wrap;connectable=0;fillColor=#ffe6cc;top=0;left=0;bottom=0;right=0;overflow=hidden;strokeColor=#d79b00;" vertex="1" parent="_k3ZWYJr-vB7ajS1iSJs-272">
          <mxGeometry x="40" width="90" height="40" as="geometry">
            <mxRectangle width="90" height="40" as="alternateBounds" />
          </mxGeometry>
        </mxCell>
        <mxCell id="_k3ZWYJr-vB7ajS1iSJs-275" value="8" style="shape=partialRectangle;html=1;whiteSpace=wrap;connectable=0;fillColor=#dae8fc;top=0;left=0;bottom=0;right=0;overflow=hidden;pointerEvents=1;strokeColor=#6c8ebf;" vertex="1" parent="_k3ZWYJr-vB7ajS1iSJs-272">
          <mxGeometry x="130" width="80" height="40" as="geometry">
            <mxRectangle width="80" height="40" as="alternateBounds" />
          </mxGeometry>
        </mxCell>
        <mxCell id="_k3ZWYJr-vB7ajS1iSJs-276" style="shape=tableRow;horizontal=0;startSize=0;swimlaneHead=0;swimlaneBody=0;top=0;left=0;bottom=0;right=0;collapsible=0;dropTarget=0;fillColor=none;points=[[0,0.5],[1,0.5]];portConstraint=eastwest;" vertex="1" parent="_k3ZWYJr-vB7ajS1iSJs-227">
          <mxGeometry y="360" width="210" height="40" as="geometry" />
        </mxCell>
        <mxCell id="_k3ZWYJr-vB7ajS1iSJs-277" value="9" style="shape=partialRectangle;html=1;whiteSpace=wrap;connectable=0;fillColor=none;top=0;left=0;bottom=0;right=0;overflow=hidden;" vertex="1" parent="_k3ZWYJr-vB7ajS1iSJs-276">
          <mxGeometry width="40" height="40" as="geometry">
            <mxRectangle width="40" height="40" as="alternateBounds" />
          </mxGeometry>
        </mxCell>
        <mxCell id="_k3ZWYJr-vB7ajS1iSJs-278" value="1" style="shape=partialRectangle;html=1;whiteSpace=wrap;connectable=0;fillColor=#ffe6cc;top=0;left=0;bottom=0;right=0;overflow=hidden;strokeColor=#d79b00;" vertex="1" parent="_k3ZWYJr-vB7ajS1iSJs-276">
          <mxGeometry x="40" width="90" height="40" as="geometry">
            <mxRectangle width="90" height="40" as="alternateBounds" />
          </mxGeometry>
        </mxCell>
        <mxCell id="_k3ZWYJr-vB7ajS1iSJs-279" value="9" style="shape=partialRectangle;html=1;whiteSpace=wrap;connectable=0;fillColor=#dae8fc;top=0;left=0;bottom=0;right=0;overflow=hidden;pointerEvents=1;strokeColor=#6c8ebf;" vertex="1" parent="_k3ZWYJr-vB7ajS1iSJs-276">
          <mxGeometry x="130" width="80" height="40" as="geometry">
            <mxRectangle width="80" height="40" as="alternateBounds" />
          </mxGeometry>
        </mxCell>
        <mxCell id="_k3ZWYJr-vB7ajS1iSJs-280" style="shape=tableRow;horizontal=0;startSize=0;swimlaneHead=0;swimlaneBody=0;top=0;left=0;bottom=0;right=0;collapsible=0;dropTarget=0;fillColor=none;points=[[0,0.5],[1,0.5]];portConstraint=eastwest;" vertex="1" parent="_k3ZWYJr-vB7ajS1iSJs-227">
          <mxGeometry y="400" width="210" height="40" as="geometry" />
        </mxCell>
        <mxCell id="_k3ZWYJr-vB7ajS1iSJs-281" value="10" style="shape=partialRectangle;html=1;whiteSpace=wrap;connectable=0;fillColor=none;top=0;left=0;bottom=0;right=0;overflow=hidden;" vertex="1" parent="_k3ZWYJr-vB7ajS1iSJs-280">
          <mxGeometry width="40" height="40" as="geometry">
            <mxRectangle width="40" height="40" as="alternateBounds" />
          </mxGeometry>
        </mxCell>
        <mxCell id="_k3ZWYJr-vB7ajS1iSJs-282" value="2" style="shape=partialRectangle;html=1;whiteSpace=wrap;connectable=0;fillColor=#ffe6cc;top=0;left=0;bottom=0;right=0;overflow=hidden;strokeColor=#d79b00;" vertex="1" parent="_k3ZWYJr-vB7ajS1iSJs-280">
          <mxGeometry x="40" width="90" height="40" as="geometry">
            <mxRectangle width="90" height="40" as="alternateBounds" />
          </mxGeometry>
        </mxCell>
        <mxCell id="_k3ZWYJr-vB7ajS1iSJs-283" value="10" style="shape=partialRectangle;html=1;whiteSpace=wrap;connectable=0;fillColor=#dae8fc;top=0;left=0;bottom=0;right=0;overflow=hidden;pointerEvents=1;strokeColor=#6c8ebf;" vertex="1" parent="_k3ZWYJr-vB7ajS1iSJs-280">
          <mxGeometry x="130" width="80" height="40" as="geometry">
            <mxRectangle width="80" height="40" as="alternateBounds" />
          </mxGeometry>
        </mxCell>
        <mxCell id="_k3ZWYJr-vB7ajS1iSJs-284" style="shape=tableRow;horizontal=0;startSize=0;swimlaneHead=0;swimlaneBody=0;top=0;left=0;bottom=0;right=0;collapsible=0;dropTarget=0;fillColor=none;points=[[0,0.5],[1,0.5]];portConstraint=eastwest;" vertex="1" parent="_k3ZWYJr-vB7ajS1iSJs-227">
          <mxGeometry y="440" width="210" height="40" as="geometry" />
        </mxCell>
        <mxCell id="_k3ZWYJr-vB7ajS1iSJs-285" value="11" style="shape=partialRectangle;html=1;whiteSpace=wrap;connectable=0;fillColor=none;top=0;left=0;bottom=0;right=0;overflow=hidden;" vertex="1" parent="_k3ZWYJr-vB7ajS1iSJs-284">
          <mxGeometry width="40" height="40" as="geometry">
            <mxRectangle width="40" height="40" as="alternateBounds" />
          </mxGeometry>
        </mxCell>
        <mxCell id="_k3ZWYJr-vB7ajS1iSJs-286" value="2" style="shape=partialRectangle;html=1;whiteSpace=wrap;connectable=0;fillColor=#ffe6cc;top=0;left=0;bottom=0;right=0;overflow=hidden;strokeColor=#d79b00;" vertex="1" parent="_k3ZWYJr-vB7ajS1iSJs-284">
          <mxGeometry x="40" width="90" height="40" as="geometry">
            <mxRectangle width="90" height="40" as="alternateBounds" />
          </mxGeometry>
        </mxCell>
        <mxCell id="_k3ZWYJr-vB7ajS1iSJs-287" value="11" style="shape=partialRectangle;html=1;whiteSpace=wrap;connectable=0;fillColor=#dae8fc;top=0;left=0;bottom=0;right=0;overflow=hidden;pointerEvents=1;strokeColor=#6c8ebf;" vertex="1" parent="_k3ZWYJr-vB7ajS1iSJs-284">
          <mxGeometry x="130" width="80" height="40" as="geometry">
            <mxRectangle width="80" height="40" as="alternateBounds" />
          </mxGeometry>
        </mxCell>
        <mxCell id="_k3ZWYJr-vB7ajS1iSJs-288" style="shape=tableRow;horizontal=0;startSize=0;swimlaneHead=0;swimlaneBody=0;top=0;left=0;bottom=0;right=0;collapsible=0;dropTarget=0;fillColor=none;points=[[0,0.5],[1,0.5]];portConstraint=eastwest;" vertex="1" parent="_k3ZWYJr-vB7ajS1iSJs-227">
          <mxGeometry y="480" width="210" height="40" as="geometry" />
        </mxCell>
        <mxCell id="_k3ZWYJr-vB7ajS1iSJs-289" value="12" style="shape=partialRectangle;html=1;whiteSpace=wrap;connectable=0;fillColor=none;top=0;left=0;bottom=0;right=0;overflow=hidden;" vertex="1" parent="_k3ZWYJr-vB7ajS1iSJs-288">
          <mxGeometry width="40" height="40" as="geometry">
            <mxRectangle width="40" height="40" as="alternateBounds" />
          </mxGeometry>
        </mxCell>
        <mxCell id="_k3ZWYJr-vB7ajS1iSJs-290" value="2" style="shape=partialRectangle;html=1;whiteSpace=wrap;connectable=0;fillColor=#ffe6cc;top=0;left=0;bottom=0;right=0;overflow=hidden;strokeColor=#d79b00;" vertex="1" parent="_k3ZWYJr-vB7ajS1iSJs-288">
          <mxGeometry x="40" width="90" height="40" as="geometry">
            <mxRectangle width="90" height="40" as="alternateBounds" />
          </mxGeometry>
        </mxCell>
        <mxCell id="_k3ZWYJr-vB7ajS1iSJs-291" value="12" style="shape=partialRectangle;html=1;whiteSpace=wrap;connectable=0;fillColor=#dae8fc;top=0;left=0;bottom=0;right=0;overflow=hidden;pointerEvents=1;strokeColor=#6c8ebf;" vertex="1" parent="_k3ZWYJr-vB7ajS1iSJs-288">
          <mxGeometry x="130" width="80" height="40" as="geometry">
            <mxRectangle width="80" height="40" as="alternateBounds" />
          </mxGeometry>
        </mxCell>
        <mxCell id="_k3ZWYJr-vB7ajS1iSJs-358" style="shape=tableRow;horizontal=0;startSize=0;swimlaneHead=0;swimlaneBody=0;top=0;left=0;bottom=0;right=0;collapsible=0;dropTarget=0;fillColor=none;points=[[0,0.5],[1,0.5]];portConstraint=eastwest;" vertex="1" parent="_k3ZWYJr-vB7ajS1iSJs-227">
          <mxGeometry y="520" width="210" height="40" as="geometry" />
        </mxCell>
        <mxCell id="_k3ZWYJr-vB7ajS1iSJs-359" value="13" style="shape=partialRectangle;html=1;whiteSpace=wrap;connectable=0;fillColor=none;top=0;left=0;bottom=0;right=0;overflow=hidden;" vertex="1" parent="_k3ZWYJr-vB7ajS1iSJs-358">
          <mxGeometry width="40" height="40" as="geometry">
            <mxRectangle width="40" height="40" as="alternateBounds" />
          </mxGeometry>
        </mxCell>
        <mxCell id="_k3ZWYJr-vB7ajS1iSJs-360" value="2" style="shape=partialRectangle;html=1;whiteSpace=wrap;connectable=0;fillColor=#ffe6cc;top=0;left=0;bottom=0;right=0;overflow=hidden;strokeColor=#d79b00;" vertex="1" parent="_k3ZWYJr-vB7ajS1iSJs-358">
          <mxGeometry x="40" width="90" height="40" as="geometry">
            <mxRectangle width="90" height="40" as="alternateBounds" />
          </mxGeometry>
        </mxCell>
        <mxCell id="_k3ZWYJr-vB7ajS1iSJs-361" value="13" style="shape=partialRectangle;html=1;whiteSpace=wrap;connectable=0;fillColor=#dae8fc;top=0;left=0;bottom=0;right=0;overflow=hidden;pointerEvents=1;strokeColor=#6c8ebf;" vertex="1" parent="_k3ZWYJr-vB7ajS1iSJs-358">
          <mxGeometry x="130" width="80" height="40" as="geometry">
            <mxRectangle width="80" height="40" as="alternateBounds" />
          </mxGeometry>
        </mxCell>
        <mxCell id="_k3ZWYJr-vB7ajS1iSJs-354" style="shape=tableRow;horizontal=0;startSize=0;swimlaneHead=0;swimlaneBody=0;top=0;left=0;bottom=0;right=0;collapsible=0;dropTarget=0;fillColor=none;points=[[0,0.5],[1,0.5]];portConstraint=eastwest;" vertex="1" parent="_k3ZWYJr-vB7ajS1iSJs-227">
          <mxGeometry y="560" width="210" height="40" as="geometry" />
        </mxCell>
        <mxCell id="_k3ZWYJr-vB7ajS1iSJs-355" value="14" style="shape=partialRectangle;html=1;whiteSpace=wrap;connectable=0;fillColor=none;top=0;left=0;bottom=0;right=0;overflow=hidden;" vertex="1" parent="_k3ZWYJr-vB7ajS1iSJs-354">
          <mxGeometry width="40" height="40" as="geometry">
            <mxRectangle width="40" height="40" as="alternateBounds" />
          </mxGeometry>
        </mxCell>
        <mxCell id="_k3ZWYJr-vB7ajS1iSJs-356" value="2" style="shape=partialRectangle;html=1;whiteSpace=wrap;connectable=0;fillColor=#ffe6cc;top=0;left=0;bottom=0;right=0;overflow=hidden;strokeColor=#d79b00;" vertex="1" parent="_k3ZWYJr-vB7ajS1iSJs-354">
          <mxGeometry x="40" width="90" height="40" as="geometry">
            <mxRectangle width="90" height="40" as="alternateBounds" />
          </mxGeometry>
        </mxCell>
        <mxCell id="_k3ZWYJr-vB7ajS1iSJs-357" value="14" style="shape=partialRectangle;html=1;whiteSpace=wrap;connectable=0;fillColor=#dae8fc;top=0;left=0;bottom=0;right=0;overflow=hidden;pointerEvents=1;strokeColor=#6c8ebf;" vertex="1" parent="_k3ZWYJr-vB7ajS1iSJs-354">
          <mxGeometry x="130" width="80" height="40" as="geometry">
            <mxRectangle width="80" height="40" as="alternateBounds" />
          </mxGeometry>
        </mxCell>
        <mxCell id="_k3ZWYJr-vB7ajS1iSJs-350" style="shape=tableRow;horizontal=0;startSize=0;swimlaneHead=0;swimlaneBody=0;top=0;left=0;bottom=0;right=0;collapsible=0;dropTarget=0;fillColor=none;points=[[0,0.5],[1,0.5]];portConstraint=eastwest;" vertex="1" parent="_k3ZWYJr-vB7ajS1iSJs-227">
          <mxGeometry y="600" width="210" height="40" as="geometry" />
        </mxCell>
        <mxCell id="_k3ZWYJr-vB7ajS1iSJs-351" value="15" style="shape=partialRectangle;html=1;whiteSpace=wrap;connectable=0;fillColor=none;top=0;left=0;bottom=0;right=0;overflow=hidden;" vertex="1" parent="_k3ZWYJr-vB7ajS1iSJs-350">
          <mxGeometry width="40" height="40" as="geometry">
            <mxRectangle width="40" height="40" as="alternateBounds" />
          </mxGeometry>
        </mxCell>
        <mxCell id="_k3ZWYJr-vB7ajS1iSJs-352" value="2" style="shape=partialRectangle;html=1;whiteSpace=wrap;connectable=0;fillColor=#ffe6cc;top=0;left=0;bottom=0;right=0;overflow=hidden;strokeColor=#d79b00;" vertex="1" parent="_k3ZWYJr-vB7ajS1iSJs-350">
          <mxGeometry x="40" width="90" height="40" as="geometry">
            <mxRectangle width="90" height="40" as="alternateBounds" />
          </mxGeometry>
        </mxCell>
        <mxCell id="_k3ZWYJr-vB7ajS1iSJs-353" value="15" style="shape=partialRectangle;html=1;whiteSpace=wrap;connectable=0;fillColor=#dae8fc;top=0;left=0;bottom=0;right=0;overflow=hidden;pointerEvents=1;strokeColor=#6c8ebf;" vertex="1" parent="_k3ZWYJr-vB7ajS1iSJs-350">
          <mxGeometry x="130" width="80" height="40" as="geometry">
            <mxRectangle width="80" height="40" as="alternateBounds" />
          </mxGeometry>
        </mxCell>
        <mxCell id="_k3ZWYJr-vB7ajS1iSJs-292" value="" style="shape=table;html=1;whiteSpace=wrap;startSize=0;container=1;collapsible=0;childLayout=tableLayout;" vertex="1" parent="1">
          <mxGeometry x="840" y="170" width="210" height="880" as="geometry" />
        </mxCell>
        <mxCell id="_k3ZWYJr-vB7ajS1iSJs-293" value="" style="shape=tableRow;horizontal=0;startSize=0;swimlaneHead=0;swimlaneBody=0;top=0;left=0;bottom=0;right=0;collapsible=0;dropTarget=0;fillColor=none;points=[[0,0.5],[1,0.5]];portConstraint=eastwest;" vertex="1" parent="_k3ZWYJr-vB7ajS1iSJs-292">
          <mxGeometry width="210" height="40" as="geometry" />
        </mxCell>
        <mxCell id="_k3ZWYJr-vB7ajS1iSJs-294" value="id" style="shape=partialRectangle;html=1;whiteSpace=wrap;connectable=0;fillColor=#fff2cc;top=0;left=0;bottom=0;right=0;overflow=hidden;strokeColor=#000000;perimeterSpacing=2;strokeWidth=1;" vertex="1" parent="_k3ZWYJr-vB7ajS1iSJs-293">
          <mxGeometry width="40" height="40" as="geometry">
            <mxRectangle width="40" height="40" as="alternateBounds" />
          </mxGeometry>
        </mxCell>
        <mxCell id="_k3ZWYJr-vB7ajS1iSJs-295" value="name" style="shape=partialRectangle;html=1;whiteSpace=wrap;connectable=0;fillColor=#fff2cc;top=0;left=0;bottom=0;right=0;overflow=hidden;strokeColor=#d6b656;" vertex="1" parent="_k3ZWYJr-vB7ajS1iSJs-293">
          <mxGeometry x="40" width="90" height="40" as="geometry">
            <mxRectangle width="90" height="40" as="alternateBounds" />
          </mxGeometry>
        </mxCell>
        <mxCell id="_k3ZWYJr-vB7ajS1iSJs-296" value="type" style="shape=partialRectangle;html=1;whiteSpace=wrap;connectable=0;fillColor=#fff2cc;top=0;left=0;bottom=0;right=0;overflow=hidden;strokeColor=#d6b656;" vertex="1" parent="_k3ZWYJr-vB7ajS1iSJs-293">
          <mxGeometry x="130" width="80" height="40" as="geometry">
            <mxRectangle width="80" height="40" as="alternateBounds" />
          </mxGeometry>
        </mxCell>
        <mxCell id="_k3ZWYJr-vB7ajS1iSJs-297" value="" style="shape=tableRow;horizontal=0;startSize=0;swimlaneHead=0;swimlaneBody=0;top=0;left=0;bottom=0;right=0;collapsible=0;dropTarget=0;fillColor=none;points=[[0,0.5],[1,0.5]];portConstraint=eastwest;" vertex="1" parent="_k3ZWYJr-vB7ajS1iSJs-292">
          <mxGeometry y="40" width="210" height="40" as="geometry" />
        </mxCell>
        <mxCell id="_k3ZWYJr-vB7ajS1iSJs-298" value="1" style="shape=partialRectangle;html=1;whiteSpace=wrap;connectable=0;fillColor=#dae8fc;top=0;left=0;bottom=0;right=0;overflow=hidden;strokeColor=#6c8ebf;" vertex="1" parent="_k3ZWYJr-vB7ajS1iSJs-297">
          <mxGeometry width="40" height="40" as="geometry">
            <mxRectangle width="40" height="40" as="alternateBounds" />
          </mxGeometry>
        </mxCell>
        <mxCell id="_k3ZWYJr-vB7ajS1iSJs-299" value="id" style="shape=partialRectangle;html=1;whiteSpace=wrap;connectable=0;fillColor=#bac8d3;top=0;left=0;bottom=0;right=0;overflow=hidden;strokeColor=#23445d;" vertex="1" parent="_k3ZWYJr-vB7ajS1iSJs-297">
          <mxGeometry x="40" width="90" height="40" as="geometry">
            <mxRectangle width="90" height="40" as="alternateBounds" />
          </mxGeometry>
        </mxCell>
        <mxCell id="_k3ZWYJr-vB7ajS1iSJs-300" value="results" style="shape=partialRectangle;html=1;whiteSpace=wrap;connectable=0;fillColor=none;top=0;left=0;bottom=0;right=0;overflow=hidden;" vertex="1" parent="_k3ZWYJr-vB7ajS1iSJs-297">
          <mxGeometry x="130" width="80" height="40" as="geometry">
            <mxRectangle width="80" height="40" as="alternateBounds" />
          </mxGeometry>
        </mxCell>
        <mxCell id="_k3ZWYJr-vB7ajS1iSJs-301" value="" style="shape=tableRow;horizontal=0;startSize=0;swimlaneHead=0;swimlaneBody=0;top=0;left=0;bottom=0;right=0;collapsible=0;dropTarget=0;fillColor=none;points=[[0,0.5],[1,0.5]];portConstraint=eastwest;" vertex="1" parent="_k3ZWYJr-vB7ajS1iSJs-292">
          <mxGeometry y="80" width="210" height="40" as="geometry" />
        </mxCell>
        <mxCell id="_k3ZWYJr-vB7ajS1iSJs-302" value="2" style="shape=partialRectangle;html=1;whiteSpace=wrap;connectable=0;fillColor=#dae8fc;top=0;left=0;bottom=0;right=0;overflow=hidden;strokeColor=#6c8ebf;" vertex="1" parent="_k3ZWYJr-vB7ajS1iSJs-301">
          <mxGeometry width="40" height="40" as="geometry">
            <mxRectangle width="40" height="40" as="alternateBounds" />
          </mxGeometry>
        </mxCell>
        <mxCell id="_k3ZWYJr-vB7ajS1iSJs-303" value="fido_id" style="shape=partialRectangle;html=1;whiteSpace=wrap;connectable=0;fillColor=#bac8d3;top=0;left=0;bottom=0;right=0;overflow=hidden;strokeColor=#23445d;" vertex="1" parent="_k3ZWYJr-vB7ajS1iSJs-301">
          <mxGeometry x="40" width="90" height="40" as="geometry">
            <mxRectangle width="90" height="40" as="alternateBounds" />
          </mxGeometry>
        </mxCell>
        <mxCell id="_k3ZWYJr-vB7ajS1iSJs-304" value="results" style="shape=partialRectangle;html=1;whiteSpace=wrap;connectable=0;fillColor=none;top=0;left=0;bottom=0;right=0;overflow=hidden;pointerEvents=1;" vertex="1" parent="_k3ZWYJr-vB7ajS1iSJs-301">
          <mxGeometry x="130" width="80" height="40" as="geometry">
            <mxRectangle width="80" height="40" as="alternateBounds" />
          </mxGeometry>
        </mxCell>
        <mxCell id="_k3ZWYJr-vB7ajS1iSJs-305" style="shape=tableRow;horizontal=0;startSize=0;swimlaneHead=0;swimlaneBody=0;top=0;left=0;bottom=0;right=0;collapsible=0;dropTarget=0;fillColor=none;points=[[0,0.5],[1,0.5]];portConstraint=eastwest;" vertex="1" parent="_k3ZWYJr-vB7ajS1iSJs-292">
          <mxGeometry y="120" width="210" height="40" as="geometry" />
        </mxCell>
        <mxCell id="_k3ZWYJr-vB7ajS1iSJs-306" value="3" style="shape=partialRectangle;html=1;whiteSpace=wrap;connectable=0;fillColor=#dae8fc;top=0;left=0;bottom=0;right=0;overflow=hidden;strokeColor=#6c8ebf;" vertex="1" parent="_k3ZWYJr-vB7ajS1iSJs-305">
          <mxGeometry width="40" height="40" as="geometry">
            <mxRectangle width="40" height="40" as="alternateBounds" />
          </mxGeometry>
        </mxCell>
        <mxCell id="_k3ZWYJr-vB7ajS1iSJs-307" value="session_id" style="shape=partialRectangle;html=1;whiteSpace=wrap;connectable=0;fillColor=#bac8d3;top=0;left=0;bottom=0;right=0;overflow=hidden;strokeColor=#23445d;" vertex="1" parent="_k3ZWYJr-vB7ajS1iSJs-305">
          <mxGeometry x="40" width="90" height="40" as="geometry">
            <mxRectangle width="90" height="40" as="alternateBounds" />
          </mxGeometry>
        </mxCell>
        <mxCell id="_k3ZWYJr-vB7ajS1iSJs-308" value="results" style="shape=partialRectangle;html=1;whiteSpace=wrap;connectable=0;fillColor=none;top=0;left=0;bottom=0;right=0;overflow=hidden;pointerEvents=1;" vertex="1" parent="_k3ZWYJr-vB7ajS1iSJs-305">
          <mxGeometry x="130" width="80" height="40" as="geometry">
            <mxRectangle width="80" height="40" as="alternateBounds" />
          </mxGeometry>
        </mxCell>
        <mxCell id="_k3ZWYJr-vB7ajS1iSJs-309" style="shape=tableRow;horizontal=0;startSize=0;swimlaneHead=0;swimlaneBody=0;top=0;left=0;bottom=0;right=0;collapsible=0;dropTarget=0;fillColor=none;points=[[0,0.5],[1,0.5]];portConstraint=eastwest;" vertex="1" parent="_k3ZWYJr-vB7ajS1iSJs-292">
          <mxGeometry y="160" width="210" height="40" as="geometry" />
        </mxCell>
        <mxCell id="_k3ZWYJr-vB7ajS1iSJs-310" value="4" style="shape=partialRectangle;html=1;whiteSpace=wrap;connectable=0;fillColor=#dae8fc;top=0;left=0;bottom=0;right=0;overflow=hidden;strokeColor=#6c8ebf;" vertex="1" parent="_k3ZWYJr-vB7ajS1iSJs-309">
          <mxGeometry width="40" height="40" as="geometry">
            <mxRectangle width="40" height="40" as="alternateBounds" />
          </mxGeometry>
        </mxCell>
        <mxCell id="_k3ZWYJr-vB7ajS1iSJs-311" value="fido_result" style="shape=partialRectangle;html=1;whiteSpace=wrap;connectable=0;fillColor=#bac8d3;top=0;left=0;bottom=0;right=0;overflow=hidden;strokeColor=#23445d;" vertex="1" parent="_k3ZWYJr-vB7ajS1iSJs-309">
          <mxGeometry x="40" width="90" height="40" as="geometry">
            <mxRectangle width="90" height="40" as="alternateBounds" />
          </mxGeometry>
        </mxCell>
        <mxCell id="_k3ZWYJr-vB7ajS1iSJs-312" value="results" style="shape=partialRectangle;html=1;whiteSpace=wrap;connectable=0;fillColor=none;top=0;left=0;bottom=0;right=0;overflow=hidden;pointerEvents=1;" vertex="1" parent="_k3ZWYJr-vB7ajS1iSJs-309">
          <mxGeometry x="130" width="80" height="40" as="geometry">
            <mxRectangle width="80" height="40" as="alternateBounds" />
          </mxGeometry>
        </mxCell>
        <mxCell id="_k3ZWYJr-vB7ajS1iSJs-313" style="shape=tableRow;horizontal=0;startSize=0;swimlaneHead=0;swimlaneBody=0;top=0;left=0;bottom=0;right=0;collapsible=0;dropTarget=0;fillColor=none;points=[[0,0.5],[1,0.5]];portConstraint=eastwest;" vertex="1" parent="_k3ZWYJr-vB7ajS1iSJs-292">
          <mxGeometry y="200" width="210" height="40" as="geometry" />
        </mxCell>
        <mxCell id="_k3ZWYJr-vB7ajS1iSJs-314" value="5" style="shape=partialRectangle;html=1;whiteSpace=wrap;connectable=0;fillColor=#dae8fc;top=0;left=0;bottom=0;right=0;overflow=hidden;strokeColor=#6c8ebf;" vertex="1" parent="_k3ZWYJr-vB7ajS1iSJs-313">
          <mxGeometry width="40" height="40" as="geometry">
            <mxRectangle width="40" height="40" as="alternateBounds" />
          </mxGeometry>
        </mxCell>
        <mxCell id="_k3ZWYJr-vB7ajS1iSJs-315" value="leak_size" style="shape=partialRectangle;html=1;whiteSpace=wrap;connectable=0;fillColor=#bac8d3;top=0;left=0;bottom=0;right=0;overflow=hidden;strokeColor=#23445d;" vertex="1" parent="_k3ZWYJr-vB7ajS1iSJs-313">
          <mxGeometry x="40" width="90" height="40" as="geometry">
            <mxRectangle width="90" height="40" as="alternateBounds" />
          </mxGeometry>
        </mxCell>
        <mxCell id="_k3ZWYJr-vB7ajS1iSJs-316" value="results" style="shape=partialRectangle;html=1;whiteSpace=wrap;connectable=0;fillColor=none;top=0;left=0;bottom=0;right=0;overflow=hidden;pointerEvents=1;" vertex="1" parent="_k3ZWYJr-vB7ajS1iSJs-313">
          <mxGeometry x="130" width="80" height="40" as="geometry">
            <mxRectangle width="80" height="40" as="alternateBounds" />
          </mxGeometry>
        </mxCell>
        <mxCell id="_k3ZWYJr-vB7ajS1iSJs-317" style="shape=tableRow;horizontal=0;startSize=0;swimlaneHead=0;swimlaneBody=0;top=0;left=0;bottom=0;right=0;collapsible=0;dropTarget=0;fillColor=none;points=[[0,0.5],[1,0.5]];portConstraint=eastwest;" vertex="1" parent="_k3ZWYJr-vB7ajS1iSJs-292">
          <mxGeometry y="240" width="210" height="40" as="geometry" />
        </mxCell>
        <mxCell id="_k3ZWYJr-vB7ajS1iSJs-318" value="6" style="shape=partialRectangle;html=1;whiteSpace=wrap;connectable=0;fillColor=#dae8fc;top=0;left=0;bottom=0;right=0;overflow=hidden;strokeColor=#6c8ebf;" vertex="1" parent="_k3ZWYJr-vB7ajS1iSJs-317">
          <mxGeometry width="40" height="40" as="geometry">
            <mxRectangle width="40" height="40" as="alternateBounds" />
          </mxGeometry>
        </mxCell>
        <mxCell id="_k3ZWYJr-vB7ajS1iSJs-319" value="overdue" style="shape=partialRectangle;html=1;whiteSpace=wrap;connectable=0;fillColor=#bac8d3;top=0;left=0;bottom=0;right=0;overflow=hidden;strokeColor=#23445d;" vertex="1" parent="_k3ZWYJr-vB7ajS1iSJs-317">
          <mxGeometry x="40" width="90" height="40" as="geometry">
            <mxRectangle width="90" height="40" as="alternateBounds" />
          </mxGeometry>
        </mxCell>
        <mxCell id="_k3ZWYJr-vB7ajS1iSJs-320" value="results" style="shape=partialRectangle;html=1;whiteSpace=wrap;connectable=0;fillColor=none;top=0;left=0;bottom=0;right=0;overflow=hidden;pointerEvents=1;" vertex="1" parent="_k3ZWYJr-vB7ajS1iSJs-317">
          <mxGeometry x="130" width="80" height="40" as="geometry">
            <mxRectangle width="80" height="40" as="alternateBounds" />
          </mxGeometry>
        </mxCell>
        <mxCell id="_k3ZWYJr-vB7ajS1iSJs-321" style="shape=tableRow;horizontal=0;startSize=0;swimlaneHead=0;swimlaneBody=0;top=0;left=0;bottom=0;right=0;collapsible=0;dropTarget=0;fillColor=none;points=[[0,0.5],[1,0.5]];portConstraint=eastwest;" vertex="1" parent="_k3ZWYJr-vB7ajS1iSJs-292">
          <mxGeometry y="280" width="210" height="40" as="geometry" />
        </mxCell>
        <mxCell id="_k3ZWYJr-vB7ajS1iSJs-322" value="7" style="shape=partialRectangle;html=1;whiteSpace=wrap;connectable=0;fillColor=#dae8fc;top=0;left=0;bottom=0;right=0;overflow=hidden;strokeColor=#6c8ebf;" vertex="1" parent="_k3ZWYJr-vB7ajS1iSJs-321">
          <mxGeometry width="40" height="40" as="geometry">
            <mxRectangle width="40" height="40" as="alternateBounds" />
          </mxGeometry>
        </mxCell>
        <mxCell id="_k3ZWYJr-vB7ajS1iSJs-323" value="# large leaks" style="shape=partialRectangle;html=1;whiteSpace=wrap;connectable=0;fillColor=#bac8d3;top=0;left=0;bottom=0;right=0;overflow=hidden;strokeColor=#23445d;" vertex="1" parent="_k3ZWYJr-vB7ajS1iSJs-321">
          <mxGeometry x="40" width="90" height="40" as="geometry">
            <mxRectangle width="90" height="40" as="alternateBounds" />
          </mxGeometry>
        </mxCell>
        <mxCell id="_k3ZWYJr-vB7ajS1iSJs-324" value="summary" style="shape=partialRectangle;html=1;whiteSpace=wrap;connectable=0;fillColor=none;top=0;left=0;bottom=0;right=0;overflow=hidden;pointerEvents=1;" vertex="1" parent="_k3ZWYJr-vB7ajS1iSJs-321">
          <mxGeometry x="130" width="80" height="40" as="geometry">
            <mxRectangle width="80" height="40" as="alternateBounds" />
          </mxGeometry>
        </mxCell>
        <mxCell id="_k3ZWYJr-vB7ajS1iSJs-325" style="shape=tableRow;horizontal=0;startSize=0;swimlaneHead=0;swimlaneBody=0;top=0;left=0;bottom=0;right=0;collapsible=0;dropTarget=0;fillColor=none;points=[[0,0.5],[1,0.5]];portConstraint=eastwest;" vertex="1" parent="_k3ZWYJr-vB7ajS1iSJs-292">
          <mxGeometry y="320" width="210" height="40" as="geometry" />
        </mxCell>
        <mxCell id="_k3ZWYJr-vB7ajS1iSJs-326" value="8" style="shape=partialRectangle;html=1;whiteSpace=wrap;connectable=0;fillColor=#dae8fc;top=0;left=0;bottom=0;right=0;overflow=hidden;strokeColor=#6c8ebf;" vertex="1" parent="_k3ZWYJr-vB7ajS1iSJs-325">
          <mxGeometry width="40" height="40" as="geometry">
            <mxRectangle width="40" height="40" as="alternateBounds" />
          </mxGeometry>
        </mxCell>
        <mxCell id="_k3ZWYJr-vB7ajS1iSJs-327" value="# medium leaks" style="shape=partialRectangle;html=1;whiteSpace=wrap;connectable=0;fillColor=#bac8d3;top=0;left=0;bottom=0;right=0;overflow=hidden;strokeColor=#23445d;" vertex="1" parent="_k3ZWYJr-vB7ajS1iSJs-325">
          <mxGeometry x="40" width="90" height="40" as="geometry">
            <mxRectangle width="90" height="40" as="alternateBounds" />
          </mxGeometry>
        </mxCell>
        <mxCell id="_k3ZWYJr-vB7ajS1iSJs-328" value="summary" style="shape=partialRectangle;html=1;whiteSpace=wrap;connectable=0;fillColor=none;top=0;left=0;bottom=0;right=0;overflow=hidden;pointerEvents=1;" vertex="1" parent="_k3ZWYJr-vB7ajS1iSJs-325">
          <mxGeometry x="130" width="80" height="40" as="geometry">
            <mxRectangle width="80" height="40" as="alternateBounds" />
          </mxGeometry>
        </mxCell>
        <mxCell id="_k3ZWYJr-vB7ajS1iSJs-329" style="shape=tableRow;horizontal=0;startSize=0;swimlaneHead=0;swimlaneBody=0;top=0;left=0;bottom=0;right=0;collapsible=0;dropTarget=0;fillColor=none;points=[[0,0.5],[1,0.5]];portConstraint=eastwest;" vertex="1" parent="_k3ZWYJr-vB7ajS1iSJs-292">
          <mxGeometry y="360" width="210" height="40" as="geometry" />
        </mxCell>
        <mxCell id="_k3ZWYJr-vB7ajS1iSJs-330" value="9" style="shape=partialRectangle;html=1;whiteSpace=wrap;connectable=0;fillColor=#dae8fc;top=0;left=0;bottom=0;right=0;overflow=hidden;strokeColor=#6c8ebf;" vertex="1" parent="_k3ZWYJr-vB7ajS1iSJs-329">
          <mxGeometry width="40" height="40" as="geometry">
            <mxRectangle width="40" height="40" as="alternateBounds" />
          </mxGeometry>
        </mxCell>
        <mxCell id="_k3ZWYJr-vB7ajS1iSJs-331" value="# small leaks" style="shape=partialRectangle;html=1;whiteSpace=wrap;connectable=0;fillColor=#bac8d3;top=0;left=0;bottom=0;right=0;overflow=hidden;strokeColor=#23445d;" vertex="1" parent="_k3ZWYJr-vB7ajS1iSJs-329">
          <mxGeometry x="40" width="90" height="40" as="geometry">
            <mxRectangle width="90" height="40" as="alternateBounds" />
          </mxGeometry>
        </mxCell>
        <mxCell id="_k3ZWYJr-vB7ajS1iSJs-332" value="summary" style="shape=partialRectangle;html=1;whiteSpace=wrap;connectable=0;fillColor=none;top=0;left=0;bottom=0;right=0;overflow=hidden;pointerEvents=1;" vertex="1" parent="_k3ZWYJr-vB7ajS1iSJs-329">
          <mxGeometry x="130" width="80" height="40" as="geometry">
            <mxRectangle width="80" height="40" as="alternateBounds" />
          </mxGeometry>
        </mxCell>
        <mxCell id="_k3ZWYJr-vB7ajS1iSJs-333" style="shape=tableRow;horizontal=0;startSize=0;swimlaneHead=0;swimlaneBody=0;top=0;left=0;bottom=0;right=0;collapsible=0;dropTarget=0;fillColor=none;points=[[0,0.5],[1,0.5]];portConstraint=eastwest;" vertex="1" parent="_k3ZWYJr-vB7ajS1iSJs-292">
          <mxGeometry y="400" width="210" height="40" as="geometry" />
        </mxCell>
        <mxCell id="_k3ZWYJr-vB7ajS1iSJs-334" value="10" style="shape=partialRectangle;html=1;whiteSpace=wrap;connectable=0;fillColor=#dae8fc;top=0;left=0;bottom=0;right=0;overflow=hidden;strokeColor=#6c8ebf;" vertex="1" parent="_k3ZWYJr-vB7ajS1iSJs-333">
          <mxGeometry width="40" height="40" as="geometry">
            <mxRectangle width="40" height="40" as="alternateBounds" />
          </mxGeometry>
        </mxCell>
        <mxCell id="_k3ZWYJr-vB7ajS1iSJs-335" value="id" style="shape=partialRectangle;html=1;whiteSpace=wrap;connectable=0;fillColor=#bac8d3;top=0;left=0;bottom=0;right=0;overflow=hidden;strokeColor=#23445d;" vertex="1" parent="_k3ZWYJr-vB7ajS1iSJs-333">
          <mxGeometry x="40" width="90" height="40" as="geometry">
            <mxRectangle width="90" height="40" as="alternateBounds" />
          </mxGeometry>
        </mxCell>
        <mxCell id="_k3ZWYJr-vB7ajS1iSJs-336" value="&#xa;&lt;span style=&quot;color: rgb(0, 0, 0); font-family: Helvetica; font-size: 12px; font-style: normal; font-variant-ligatures: normal; font-variant-caps: normal; font-weight: 400; letter-spacing: normal; orphans: 2; text-align: center; text-indent: 0px; text-transform: none; widows: 2; word-spacing: 0px; -webkit-text-stroke-width: 0px; background-color: rgb(248, 249, 250); text-decoration-thickness: initial; text-decoration-style: initial; text-decoration-color: initial; float: none; display: inline !important;&quot;&gt;results&lt;/span&gt;&#xa;&#xa;" style="shape=partialRectangle;html=1;whiteSpace=wrap;connectable=0;fillColor=none;top=0;left=0;bottom=0;right=0;overflow=hidden;pointerEvents=1;" vertex="1" parent="_k3ZWYJr-vB7ajS1iSJs-333">
          <mxGeometry x="130" width="80" height="40" as="geometry">
            <mxRectangle width="80" height="40" as="alternateBounds" />
          </mxGeometry>
        </mxCell>
        <mxCell id="_k3ZWYJr-vB7ajS1iSJs-337" style="shape=tableRow;horizontal=0;startSize=0;swimlaneHead=0;swimlaneBody=0;top=0;left=0;bottom=0;right=0;collapsible=0;dropTarget=0;fillColor=none;points=[[0,0.5],[1,0.5]];portConstraint=eastwest;" vertex="1" parent="_k3ZWYJr-vB7ajS1iSJs-292">
          <mxGeometry y="440" width="210" height="40" as="geometry" />
        </mxCell>
        <mxCell id="_k3ZWYJr-vB7ajS1iSJs-338" value="11" style="shape=partialRectangle;html=1;whiteSpace=wrap;connectable=0;fillColor=#dae8fc;top=0;left=0;bottom=0;right=0;overflow=hidden;strokeColor=#6c8ebf;" vertex="1" parent="_k3ZWYJr-vB7ajS1iSJs-337">
          <mxGeometry width="40" height="40" as="geometry">
            <mxRectangle width="40" height="40" as="alternateBounds" />
          </mxGeometry>
        </mxCell>
        <mxCell id="_k3ZWYJr-vB7ajS1iSJs-339" value="user_id" style="shape=partialRectangle;html=1;whiteSpace=wrap;connectable=0;fillColor=#bac8d3;top=0;left=0;bottom=0;right=0;overflow=hidden;strokeColor=#23445d;" vertex="1" parent="_k3ZWYJr-vB7ajS1iSJs-337">
          <mxGeometry x="40" width="90" height="40" as="geometry">
            <mxRectangle width="90" height="40" as="alternateBounds" />
          </mxGeometry>
        </mxCell>
        <mxCell id="_k3ZWYJr-vB7ajS1iSJs-340" value="&#xa;&lt;span style=&quot;color: rgb(0, 0, 0); font-family: Helvetica; font-size: 12px; font-style: normal; font-variant-ligatures: normal; font-variant-caps: normal; font-weight: 400; letter-spacing: normal; orphans: 2; text-align: center; text-indent: 0px; text-transform: none; widows: 2; word-spacing: 0px; -webkit-text-stroke-width: 0px; background-color: rgb(248, 249, 250); text-decoration-thickness: initial; text-decoration-style: initial; text-decoration-color: initial; float: none; display: inline !important;&quot;&gt;results&lt;/span&gt;&#xa;&#xa;" style="shape=partialRectangle;html=1;whiteSpace=wrap;connectable=0;fillColor=none;top=0;left=0;bottom=0;right=0;overflow=hidden;pointerEvents=1;" vertex="1" parent="_k3ZWYJr-vB7ajS1iSJs-337">
          <mxGeometry x="130" width="80" height="40" as="geometry">
            <mxRectangle width="80" height="40" as="alternateBounds" />
          </mxGeometry>
        </mxCell>
        <mxCell id="_k3ZWYJr-vB7ajS1iSJs-341" style="shape=tableRow;horizontal=0;startSize=0;swimlaneHead=0;swimlaneBody=0;top=0;left=0;bottom=0;right=0;collapsible=0;dropTarget=0;fillColor=none;points=[[0,0.5],[1,0.5]];portConstraint=eastwest;" vertex="1" parent="_k3ZWYJr-vB7ajS1iSJs-292">
          <mxGeometry y="480" width="210" height="40" as="geometry" />
        </mxCell>
        <mxCell id="_k3ZWYJr-vB7ajS1iSJs-342" value="12" style="shape=partialRectangle;html=1;whiteSpace=wrap;connectable=0;fillColor=#dae8fc;top=0;left=0;bottom=0;right=0;overflow=hidden;strokeColor=#6c8ebf;" vertex="1" parent="_k3ZWYJr-vB7ajS1iSJs-341">
          <mxGeometry width="40" height="40" as="geometry">
            <mxRectangle width="40" height="40" as="alternateBounds" />
          </mxGeometry>
        </mxCell>
        <mxCell id="_k3ZWYJr-vB7ajS1iSJs-343" value="latitude" style="shape=partialRectangle;html=1;whiteSpace=wrap;connectable=0;fillColor=#bac8d3;top=0;left=0;bottom=0;right=0;overflow=hidden;strokeColor=#23445d;" vertex="1" parent="_k3ZWYJr-vB7ajS1iSJs-341">
          <mxGeometry x="40" width="90" height="40" as="geometry">
            <mxRectangle width="90" height="40" as="alternateBounds" />
          </mxGeometry>
        </mxCell>
        <mxCell id="_k3ZWYJr-vB7ajS1iSJs-344" value="&#xa;&lt;span style=&quot;color: rgb(0, 0, 0); font-family: Helvetica; font-size: 12px; font-style: normal; font-variant-ligatures: normal; font-variant-caps: normal; font-weight: 400; letter-spacing: normal; orphans: 2; text-align: center; text-indent: 0px; text-transform: none; widows: 2; word-spacing: 0px; -webkit-text-stroke-width: 0px; background-color: rgb(248, 249, 250); text-decoration-thickness: initial; text-decoration-style: initial; text-decoration-color: initial; float: none; display: inline !important;&quot;&gt;results&lt;/span&gt;&#xa;&#xa;" style="shape=partialRectangle;html=1;whiteSpace=wrap;connectable=0;fillColor=none;top=0;left=0;bottom=0;right=0;overflow=hidden;pointerEvents=1;" vertex="1" parent="_k3ZWYJr-vB7ajS1iSJs-341">
          <mxGeometry x="130" width="80" height="40" as="geometry">
            <mxRectangle width="80" height="40" as="alternateBounds" />
          </mxGeometry>
        </mxCell>
        <mxCell id="_k3ZWYJr-vB7ajS1iSJs-345" style="shape=tableRow;horizontal=0;startSize=0;swimlaneHead=0;swimlaneBody=0;top=0;left=0;bottom=0;right=0;collapsible=0;dropTarget=0;fillColor=none;points=[[0,0.5],[1,0.5]];portConstraint=eastwest;" vertex="1" parent="_k3ZWYJr-vB7ajS1iSJs-292">
          <mxGeometry y="520" width="210" height="40" as="geometry" />
        </mxCell>
        <mxCell id="_k3ZWYJr-vB7ajS1iSJs-346" value="13" style="shape=partialRectangle;html=1;whiteSpace=wrap;connectable=0;fillColor=#dae8fc;top=0;left=0;bottom=0;right=0;overflow=hidden;strokeColor=#6c8ebf;" vertex="1" parent="_k3ZWYJr-vB7ajS1iSJs-345">
          <mxGeometry width="40" height="40" as="geometry">
            <mxRectangle width="40" height="40" as="alternateBounds" />
          </mxGeometry>
        </mxCell>
        <mxCell id="_k3ZWYJr-vB7ajS1iSJs-347" value="longitude" style="shape=partialRectangle;html=1;whiteSpace=wrap;connectable=0;fillColor=#bac8d3;top=0;left=0;bottom=0;right=0;overflow=hidden;strokeColor=#23445d;" vertex="1" parent="_k3ZWYJr-vB7ajS1iSJs-345">
          <mxGeometry x="40" width="90" height="40" as="geometry">
            <mxRectangle width="90" height="40" as="alternateBounds" />
          </mxGeometry>
        </mxCell>
        <mxCell id="_k3ZWYJr-vB7ajS1iSJs-348" value="&#xa;&lt;span style=&quot;color: rgb(0, 0, 0); font-family: Helvetica; font-size: 12px; font-style: normal; font-variant-ligatures: normal; font-variant-caps: normal; font-weight: 400; letter-spacing: normal; orphans: 2; text-align: center; text-indent: 0px; text-transform: none; widows: 2; word-spacing: 0px; -webkit-text-stroke-width: 0px; background-color: rgb(248, 249, 250); text-decoration-thickness: initial; text-decoration-style: initial; text-decoration-color: initial; float: none; display: inline !important;&quot;&gt;results&lt;/span&gt;&#xa;&#xa;" style="shape=partialRectangle;html=1;whiteSpace=wrap;connectable=0;fillColor=none;top=0;left=0;bottom=0;right=0;overflow=hidden;pointerEvents=1;" vertex="1" parent="_k3ZWYJr-vB7ajS1iSJs-345">
          <mxGeometry x="130" width="80" height="40" as="geometry">
            <mxRectangle width="80" height="40" as="alternateBounds" />
          </mxGeometry>
        </mxCell>
        <mxCell id="_k3ZWYJr-vB7ajS1iSJs-362" style="shape=tableRow;horizontal=0;startSize=0;swimlaneHead=0;swimlaneBody=0;top=0;left=0;bottom=0;right=0;collapsible=0;dropTarget=0;fillColor=none;points=[[0,0.5],[1,0.5]];portConstraint=eastwest;" vertex="1" parent="_k3ZWYJr-vB7ajS1iSJs-292">
          <mxGeometry y="560" width="210" height="40" as="geometry" />
        </mxCell>
        <mxCell id="_k3ZWYJr-vB7ajS1iSJs-363" value="14" style="shape=partialRectangle;html=1;whiteSpace=wrap;connectable=0;fillColor=#dae8fc;top=0;left=0;bottom=0;right=0;overflow=hidden;strokeColor=#6c8ebf;" vertex="1" parent="_k3ZWYJr-vB7ajS1iSJs-362">
          <mxGeometry width="40" height="40" as="geometry">
            <mxRectangle width="40" height="40" as="alternateBounds" />
          </mxGeometry>
        </mxCell>
        <mxCell id="_k3ZWYJr-vB7ajS1iSJs-364" value="# alarms" style="shape=partialRectangle;html=1;whiteSpace=wrap;connectable=0;fillColor=#bac8d3;top=0;left=0;bottom=0;right=0;overflow=hidden;strokeColor=#23445d;" vertex="1" parent="_k3ZWYJr-vB7ajS1iSJs-362">
          <mxGeometry x="40" width="90" height="40" as="geometry">
            <mxRectangle width="90" height="40" as="alternateBounds" />
          </mxGeometry>
        </mxCell>
        <mxCell id="_k3ZWYJr-vB7ajS1iSJs-365" value="summary" style="shape=partialRectangle;html=1;whiteSpace=wrap;connectable=0;fillColor=none;top=0;left=0;bottom=0;right=0;overflow=hidden;pointerEvents=1;" vertex="1" parent="_k3ZWYJr-vB7ajS1iSJs-362">
          <mxGeometry x="130" width="80" height="40" as="geometry">
            <mxRectangle width="80" height="40" as="alternateBounds" />
          </mxGeometry>
        </mxCell>
        <mxCell id="_k3ZWYJr-vB7ajS1iSJs-366" style="shape=tableRow;horizontal=0;startSize=0;swimlaneHead=0;swimlaneBody=0;top=0;left=0;bottom=0;right=0;collapsible=0;dropTarget=0;fillColor=none;points=[[0,0.5],[1,0.5]];portConstraint=eastwest;" vertex="1" parent="_k3ZWYJr-vB7ajS1iSJs-292">
          <mxGeometry y="600" width="210" height="280" as="geometry" />
        </mxCell>
        <mxCell id="_k3ZWYJr-vB7ajS1iSJs-367" value="15" style="shape=partialRectangle;html=1;whiteSpace=wrap;connectable=0;fillColor=#dae8fc;top=0;left=0;bottom=0;right=0;overflow=hidden;strokeColor=#6c8ebf;" vertex="1" parent="_k3ZWYJr-vB7ajS1iSJs-366">
          <mxGeometry width="40" height="280" as="geometry">
            <mxRectangle width="40" height="280" as="alternateBounds" />
          </mxGeometry>
        </mxCell>
        <mxCell id="_k3ZWYJr-vB7ajS1iSJs-368" value="# other" style="shape=partialRectangle;html=1;whiteSpace=wrap;connectable=0;fillColor=#bac8d3;top=0;left=0;bottom=0;right=0;overflow=hidden;strokeColor=#23445d;" vertex="1" parent="_k3ZWYJr-vB7ajS1iSJs-366">
          <mxGeometry x="40" width="90" height="280" as="geometry">
            <mxRectangle width="90" height="280" as="alternateBounds" />
          </mxGeometry>
        </mxCell>
        <mxCell id="_k3ZWYJr-vB7ajS1iSJs-369" value="summary" style="shape=partialRectangle;html=1;whiteSpace=wrap;connectable=0;fillColor=none;top=0;left=0;bottom=0;right=0;overflow=hidden;pointerEvents=1;" vertex="1" parent="_k3ZWYJr-vB7ajS1iSJs-366">
          <mxGeometry x="130" width="80" height="280" as="geometry">
            <mxRectangle width="80" height="280" as="alternateBounds" />
          </mxGeometry>
        </mxCell>
        <mxCell id="_k3ZWYJr-vB7ajS1iSJs-441" style="edgeStyle=orthogonalEdgeStyle;rounded=0;orthogonalLoop=1;jettySize=auto;html=1;entryX=0;entryY=0.5;entryDx=0;entryDy=0;" edge="1" parent="1" source="_k3ZWYJr-vB7ajS1iSJs-371" target="_k3ZWYJr-vB7ajS1iSJs-380">
          <mxGeometry relative="1" as="geometry" />
        </mxCell>
        <mxCell id="_k3ZWYJr-vB7ajS1iSJs-371" value="Front-end&lt;br&gt;Report Builder" style="rounded=0;whiteSpace=wrap;html=1;strokeColor=#000000;strokeWidth=1;" vertex="1" parent="1">
          <mxGeometry x="40" y="910" width="90" height="90" as="geometry" />
        </mxCell>
        <mxCell id="_k3ZWYJr-vB7ajS1iSJs-443" style="edgeStyle=orthogonalEdgeStyle;rounded=0;orthogonalLoop=1;jettySize=auto;html=1;entryX=0;entryY=0.5;entryDx=0;entryDy=0;" edge="1" parent="1" source="_k3ZWYJr-vB7ajS1iSJs-378" target="_k3ZWYJr-vB7ajS1iSJs-440">
          <mxGeometry relative="1" as="geometry" />
        </mxCell>
        <mxCell id="_k3ZWYJr-vB7ajS1iSJs-446" value="" style="edgeStyle=orthogonalEdgeStyle;rounded=0;orthogonalLoop=1;jettySize=auto;html=1;" edge="1" parent="1" source="_k3ZWYJr-vB7ajS1iSJs-378" target="_k3ZWYJr-vB7ajS1iSJs-445">
          <mxGeometry relative="1" as="geometry" />
        </mxCell>
        <mxCell id="_k3ZWYJr-vB7ajS1iSJs-378" value="Update Report structure: results, summary and filters" style="whiteSpace=wrap;html=1;strokeColor=#000000;rounded=0;strokeWidth=1;" vertex="1" parent="1">
          <mxGeometry x="515" y="920" width="120" height="140" as="geometry" />
        </mxCell>
        <mxCell id="_k3ZWYJr-vB7ajS1iSJs-442" style="edgeStyle=orthogonalEdgeStyle;rounded=0;orthogonalLoop=1;jettySize=auto;html=1;entryX=0;entryY=0.5;entryDx=0;entryDy=0;" edge="1" parent="1" source="_k3ZWYJr-vB7ajS1iSJs-380" target="_k3ZWYJr-vB7ajS1iSJs-378">
          <mxGeometry relative="1" as="geometry" />
        </mxCell>
        <mxCell id="_k3ZWYJr-vB7ajS1iSJs-380" value="User select columns to be returned from the &lt;b&gt;datasource 1&lt;/b&gt;" style="rounded=0;whiteSpace=wrap;html=1;strokeColor=#000000;strokeWidth=1;" vertex="1" parent="1">
          <mxGeometry x="280" y="920" width="110" height="70" as="geometry" />
        </mxCell>
        <mxCell id="_k3ZWYJr-vB7ajS1iSJs-444" style="edgeStyle=orthogonalEdgeStyle;rounded=0;orthogonalLoop=1;jettySize=auto;html=1;entryX=0.5;entryY=1;entryDx=0;entryDy=0;exitX=0.75;exitY=0;exitDx=0;exitDy=0;" edge="1" parent="1" source="_k3ZWYJr-vB7ajS1iSJs-395" target="_k3ZWYJr-vB7ajS1iSJs-380">
          <mxGeometry relative="1" as="geometry" />
        </mxCell>
        <mxCell id="_k3ZWYJr-vB7ajS1iSJs-395" value="Datasource 1 columns" style="shape=table;startSize=30;container=1;collapsible=0;childLayout=tableLayout;fontStyle=1;align=center;strokeColor=#005700;strokeWidth=1;fillColor=#008a00;fontColor=#ffffff;" vertex="1" parent="1">
          <mxGeometry x="110" y="1080" width="180" height="430" as="geometry" />
        </mxCell>
        <mxCell id="_k3ZWYJr-vB7ajS1iSJs-420" style="shape=tableRow;horizontal=0;startSize=0;swimlaneHead=0;swimlaneBody=0;top=0;left=0;bottom=0;right=0;collapsible=0;dropTarget=0;fillColor=none;points=[[0,0.5],[1,0.5]];portConstraint=eastwest;strokeColor=#000000;strokeWidth=1;" vertex="1" parent="_k3ZWYJr-vB7ajS1iSJs-395">
          <mxGeometry y="30" width="180" height="40" as="geometry" />
        </mxCell>
        <mxCell id="_k3ZWYJr-vB7ajS1iSJs-421" value="name" style="shape=partialRectangle;html=1;whiteSpace=wrap;connectable=0;fillColor=#60a917;top=0;left=0;bottom=0;right=0;overflow=hidden;strokeColor=#2D7600;strokeWidth=1;fontColor=#ffffff;" vertex="1" parent="_k3ZWYJr-vB7ajS1iSJs-420">
          <mxGeometry width="60" height="40" as="geometry">
            <mxRectangle width="60" height="40" as="alternateBounds" />
          </mxGeometry>
        </mxCell>
        <mxCell id="_k3ZWYJr-vB7ajS1iSJs-422" value="results/&lt;br&gt;summary" style="shape=partialRectangle;html=1;whiteSpace=wrap;connectable=0;fillColor=#60a917;top=0;left=0;bottom=0;right=0;overflow=hidden;strokeColor=#2D7600;strokeWidth=1;fontColor=#ffffff;" vertex="1" parent="_k3ZWYJr-vB7ajS1iSJs-420">
          <mxGeometry x="60" width="60" height="40" as="geometry">
            <mxRectangle width="60" height="40" as="alternateBounds" />
          </mxGeometry>
        </mxCell>
        <mxCell id="_k3ZWYJr-vB7ajS1iSJs-423" value="filter" style="shape=partialRectangle;html=1;whiteSpace=wrap;connectable=0;fillColor=#60a917;top=0;left=0;bottom=0;right=0;overflow=hidden;strokeColor=#2D7600;strokeWidth=1;fontColor=#ffffff;" vertex="1" parent="_k3ZWYJr-vB7ajS1iSJs-420">
          <mxGeometry x="120" width="60" height="40" as="geometry">
            <mxRectangle width="60" height="40" as="alternateBounds" />
          </mxGeometry>
        </mxCell>
        <mxCell id="_k3ZWYJr-vB7ajS1iSJs-396" value="" style="shape=tableRow;horizontal=0;startSize=0;swimlaneHead=0;swimlaneBody=0;top=0;left=0;bottom=0;right=0;collapsible=0;dropTarget=0;fillColor=none;points=[[0,0.5],[1,0.5]];portConstraint=eastwest;strokeColor=#000000;strokeWidth=1;" vertex="1" parent="_k3ZWYJr-vB7ajS1iSJs-395">
          <mxGeometry y="70" width="180" height="40" as="geometry" />
        </mxCell>
        <mxCell id="_k3ZWYJr-vB7ajS1iSJs-397" value="A" style="shape=partialRectangle;html=1;whiteSpace=wrap;connectable=0;fillColor=#bac8d3;top=0;left=0;bottom=0;right=0;overflow=hidden;strokeColor=#23445d;strokeWidth=1;" vertex="1" parent="_k3ZWYJr-vB7ajS1iSJs-396">
          <mxGeometry width="60" height="40" as="geometry">
            <mxRectangle width="60" height="40" as="alternateBounds" />
          </mxGeometry>
        </mxCell>
        <mxCell id="_k3ZWYJr-vB7ajS1iSJs-398" value="☑️" style="shape=partialRectangle;html=1;whiteSpace=wrap;connectable=0;top=0;left=0;bottom=0;right=0;overflow=hidden;strokeWidth=1;" vertex="1" parent="_k3ZWYJr-vB7ajS1iSJs-396">
          <mxGeometry x="60" width="60" height="40" as="geometry">
            <mxRectangle width="60" height="40" as="alternateBounds" />
          </mxGeometry>
        </mxCell>
        <mxCell id="_k3ZWYJr-vB7ajS1iSJs-399" value="☑️" style="shape=partialRectangle;html=1;whiteSpace=wrap;connectable=0;top=0;left=0;bottom=0;right=0;overflow=hidden;strokeWidth=1;" vertex="1" parent="_k3ZWYJr-vB7ajS1iSJs-396">
          <mxGeometry x="120" width="60" height="40" as="geometry">
            <mxRectangle width="60" height="40" as="alternateBounds" />
          </mxGeometry>
        </mxCell>
        <mxCell id="_k3ZWYJr-vB7ajS1iSJs-416" style="shape=tableRow;horizontal=0;startSize=0;swimlaneHead=0;swimlaneBody=0;top=0;left=0;bottom=0;right=0;collapsible=0;dropTarget=0;fillColor=none;points=[[0,0.5],[1,0.5]];portConstraint=eastwest;strokeColor=#000000;strokeWidth=1;" vertex="1" parent="_k3ZWYJr-vB7ajS1iSJs-395">
          <mxGeometry y="110" width="180" height="40" as="geometry" />
        </mxCell>
        <mxCell id="_k3ZWYJr-vB7ajS1iSJs-417" value="B" style="shape=partialRectangle;html=1;whiteSpace=wrap;connectable=0;fillColor=#bac8d3;top=0;left=0;bottom=0;right=0;overflow=hidden;strokeColor=#23445d;strokeWidth=1;" vertex="1" parent="_k3ZWYJr-vB7ajS1iSJs-416">
          <mxGeometry width="60" height="40" as="geometry">
            <mxRectangle width="60" height="40" as="alternateBounds" />
          </mxGeometry>
        </mxCell>
        <mxCell id="_k3ZWYJr-vB7ajS1iSJs-418" value="☑️" style="shape=partialRectangle;html=1;whiteSpace=wrap;connectable=0;top=0;left=0;bottom=0;right=0;overflow=hidden;strokeWidth=1;" vertex="1" parent="_k3ZWYJr-vB7ajS1iSJs-416">
          <mxGeometry x="60" width="60" height="40" as="geometry">
            <mxRectangle width="60" height="40" as="alternateBounds" />
          </mxGeometry>
        </mxCell>
        <mxCell id="_k3ZWYJr-vB7ajS1iSJs-419" value="☑️" style="shape=partialRectangle;html=1;whiteSpace=wrap;connectable=0;top=0;left=0;bottom=0;right=0;overflow=hidden;strokeWidth=1;" vertex="1" parent="_k3ZWYJr-vB7ajS1iSJs-416">
          <mxGeometry x="120" width="60" height="40" as="geometry">
            <mxRectangle width="60" height="40" as="alternateBounds" />
          </mxGeometry>
        </mxCell>
        <mxCell id="_k3ZWYJr-vB7ajS1iSJs-412" style="shape=tableRow;horizontal=0;startSize=0;swimlaneHead=0;swimlaneBody=0;top=0;left=0;bottom=0;right=0;collapsible=0;dropTarget=0;fillColor=none;points=[[0,0.5],[1,0.5]];portConstraint=eastwest;strokeColor=#000000;strokeWidth=1;" vertex="1" parent="_k3ZWYJr-vB7ajS1iSJs-395">
          <mxGeometry y="150" width="180" height="40" as="geometry" />
        </mxCell>
        <mxCell id="_k3ZWYJr-vB7ajS1iSJs-413" value="C" style="shape=partialRectangle;html=1;whiteSpace=wrap;connectable=0;fillColor=#bac8d3;top=0;left=0;bottom=0;right=0;overflow=hidden;strokeColor=#23445d;strokeWidth=1;" vertex="1" parent="_k3ZWYJr-vB7ajS1iSJs-412">
          <mxGeometry width="60" height="40" as="geometry">
            <mxRectangle width="60" height="40" as="alternateBounds" />
          </mxGeometry>
        </mxCell>
        <mxCell id="_k3ZWYJr-vB7ajS1iSJs-414" value="☑️" style="shape=partialRectangle;html=1;whiteSpace=wrap;connectable=0;top=0;left=0;bottom=0;right=0;overflow=hidden;strokeWidth=1;" vertex="1" parent="_k3ZWYJr-vB7ajS1iSJs-412">
          <mxGeometry x="60" width="60" height="40" as="geometry">
            <mxRectangle width="60" height="40" as="alternateBounds" />
          </mxGeometry>
        </mxCell>
        <mxCell id="_k3ZWYJr-vB7ajS1iSJs-415" value="" style="shape=partialRectangle;html=1;whiteSpace=wrap;connectable=0;top=0;left=0;bottom=0;right=0;overflow=hidden;strokeWidth=1;" vertex="1" parent="_k3ZWYJr-vB7ajS1iSJs-412">
          <mxGeometry x="120" width="60" height="40" as="geometry">
            <mxRectangle width="60" height="40" as="alternateBounds" />
          </mxGeometry>
        </mxCell>
        <mxCell id="_k3ZWYJr-vB7ajS1iSJs-408" style="shape=tableRow;horizontal=0;startSize=0;swimlaneHead=0;swimlaneBody=0;top=0;left=0;bottom=0;right=0;collapsible=0;dropTarget=0;fillColor=none;points=[[0,0.5],[1,0.5]];portConstraint=eastwest;strokeColor=#000000;strokeWidth=1;" vertex="1" parent="_k3ZWYJr-vB7ajS1iSJs-395">
          <mxGeometry y="190" width="180" height="40" as="geometry" />
        </mxCell>
        <mxCell id="_k3ZWYJr-vB7ajS1iSJs-409" value="D" style="shape=partialRectangle;html=1;whiteSpace=wrap;connectable=0;fillColor=#bac8d3;top=0;left=0;bottom=0;right=0;overflow=hidden;strokeColor=#23445d;strokeWidth=1;" vertex="1" parent="_k3ZWYJr-vB7ajS1iSJs-408">
          <mxGeometry width="60" height="40" as="geometry">
            <mxRectangle width="60" height="40" as="alternateBounds" />
          </mxGeometry>
        </mxCell>
        <mxCell id="_k3ZWYJr-vB7ajS1iSJs-410" value="☑️" style="shape=partialRectangle;html=1;whiteSpace=wrap;connectable=0;top=0;left=0;bottom=0;right=0;overflow=hidden;strokeWidth=1;" vertex="1" parent="_k3ZWYJr-vB7ajS1iSJs-408">
          <mxGeometry x="60" width="60" height="40" as="geometry">
            <mxRectangle width="60" height="40" as="alternateBounds" />
          </mxGeometry>
        </mxCell>
        <mxCell id="_k3ZWYJr-vB7ajS1iSJs-411" style="shape=partialRectangle;html=1;whiteSpace=wrap;connectable=0;top=0;left=0;bottom=0;right=0;overflow=hidden;strokeWidth=1;" vertex="1" parent="_k3ZWYJr-vB7ajS1iSJs-408">
          <mxGeometry x="120" width="60" height="40" as="geometry">
            <mxRectangle width="60" height="40" as="alternateBounds" />
          </mxGeometry>
        </mxCell>
        <mxCell id="_k3ZWYJr-vB7ajS1iSJs-400" value="" style="shape=tableRow;horizontal=0;startSize=0;swimlaneHead=0;swimlaneBody=0;top=0;left=0;bottom=0;right=0;collapsible=0;dropTarget=0;fillColor=none;points=[[0,0.5],[1,0.5]];portConstraint=eastwest;strokeColor=#000000;strokeWidth=1;" vertex="1" parent="_k3ZWYJr-vB7ajS1iSJs-395">
          <mxGeometry y="230" width="180" height="40" as="geometry" />
        </mxCell>
        <mxCell id="_k3ZWYJr-vB7ajS1iSJs-401" value="E" style="shape=partialRectangle;html=1;whiteSpace=wrap;connectable=0;fillColor=#bac8d3;top=0;left=0;bottom=0;right=0;overflow=hidden;strokeColor=#23445d;strokeWidth=1;" vertex="1" parent="_k3ZWYJr-vB7ajS1iSJs-400">
          <mxGeometry width="60" height="40" as="geometry">
            <mxRectangle width="60" height="40" as="alternateBounds" />
          </mxGeometry>
        </mxCell>
        <mxCell id="_k3ZWYJr-vB7ajS1iSJs-402" value="☑️" style="shape=partialRectangle;html=1;whiteSpace=wrap;connectable=0;top=0;left=0;bottom=0;right=0;overflow=hidden;strokeWidth=1;" vertex="1" parent="_k3ZWYJr-vB7ajS1iSJs-400">
          <mxGeometry x="60" width="60" height="40" as="geometry">
            <mxRectangle width="60" height="40" as="alternateBounds" />
          </mxGeometry>
        </mxCell>
        <mxCell id="_k3ZWYJr-vB7ajS1iSJs-403" value="☑️" style="shape=partialRectangle;html=1;whiteSpace=wrap;connectable=0;top=0;left=0;bottom=0;right=0;overflow=hidden;strokeWidth=1;" vertex="1" parent="_k3ZWYJr-vB7ajS1iSJs-400">
          <mxGeometry x="120" width="60" height="40" as="geometry">
            <mxRectangle width="60" height="40" as="alternateBounds" />
          </mxGeometry>
        </mxCell>
        <mxCell id="_k3ZWYJr-vB7ajS1iSJs-404" value="" style="shape=tableRow;horizontal=0;startSize=0;swimlaneHead=0;swimlaneBody=0;top=0;left=0;bottom=0;right=0;collapsible=0;dropTarget=0;fillColor=none;points=[[0,0.5],[1,0.5]];portConstraint=eastwest;strokeColor=#000000;strokeWidth=1;" vertex="1" parent="_k3ZWYJr-vB7ajS1iSJs-395">
          <mxGeometry y="270" width="180" height="40" as="geometry" />
        </mxCell>
        <mxCell id="_k3ZWYJr-vB7ajS1iSJs-405" value="F" style="shape=partialRectangle;html=1;whiteSpace=wrap;connectable=0;fillColor=#bac8d3;top=0;left=0;bottom=0;right=0;overflow=hidden;strokeColor=#23445d;strokeWidth=1;" vertex="1" parent="_k3ZWYJr-vB7ajS1iSJs-404">
          <mxGeometry width="60" height="40" as="geometry">
            <mxRectangle width="60" height="40" as="alternateBounds" />
          </mxGeometry>
        </mxCell>
        <mxCell id="_k3ZWYJr-vB7ajS1iSJs-406" value="" style="shape=partialRectangle;html=1;whiteSpace=wrap;connectable=0;top=0;left=0;bottom=0;right=0;overflow=hidden;strokeWidth=1;" vertex="1" parent="_k3ZWYJr-vB7ajS1iSJs-404">
          <mxGeometry x="60" width="60" height="40" as="geometry">
            <mxRectangle width="60" height="40" as="alternateBounds" />
          </mxGeometry>
        </mxCell>
        <mxCell id="_k3ZWYJr-vB7ajS1iSJs-407" value="☑️" style="shape=partialRectangle;html=1;whiteSpace=wrap;connectable=0;top=0;left=0;bottom=0;right=0;overflow=hidden;strokeWidth=1;" vertex="1" parent="_k3ZWYJr-vB7ajS1iSJs-404">
          <mxGeometry x="120" width="60" height="40" as="geometry">
            <mxRectangle width="60" height="40" as="alternateBounds" />
          </mxGeometry>
        </mxCell>
        <mxCell id="_k3ZWYJr-vB7ajS1iSJs-425" style="shape=tableRow;horizontal=0;startSize=0;swimlaneHead=0;swimlaneBody=0;top=0;left=0;bottom=0;right=0;collapsible=0;dropTarget=0;fillColor=none;points=[[0,0.5],[1,0.5]];portConstraint=eastwest;strokeColor=#000000;strokeWidth=1;" vertex="1" parent="_k3ZWYJr-vB7ajS1iSJs-395">
          <mxGeometry y="310" width="180" height="40" as="geometry" />
        </mxCell>
        <mxCell id="_k3ZWYJr-vB7ajS1iSJs-426" value="# large leaks" style="shape=partialRectangle;html=1;whiteSpace=wrap;connectable=0;fillColor=#bac8d3;top=0;left=0;bottom=0;right=0;overflow=hidden;strokeColor=#23445d;strokeWidth=1;" vertex="1" parent="_k3ZWYJr-vB7ajS1iSJs-425">
          <mxGeometry width="60" height="40" as="geometry">
            <mxRectangle width="60" height="40" as="alternateBounds" />
          </mxGeometry>
        </mxCell>
        <mxCell id="_k3ZWYJr-vB7ajS1iSJs-427" value="☑️" style="shape=partialRectangle;html=1;whiteSpace=wrap;connectable=0;top=0;left=0;bottom=0;right=0;overflow=hidden;strokeWidth=1;" vertex="1" parent="_k3ZWYJr-vB7ajS1iSJs-425">
          <mxGeometry x="60" width="60" height="40" as="geometry">
            <mxRectangle width="60" height="40" as="alternateBounds" />
          </mxGeometry>
        </mxCell>
        <mxCell id="_k3ZWYJr-vB7ajS1iSJs-428" value="⛔" style="shape=partialRectangle;html=1;whiteSpace=wrap;connectable=0;top=0;left=0;bottom=0;right=0;overflow=hidden;strokeWidth=1;" vertex="1" parent="_k3ZWYJr-vB7ajS1iSJs-425">
          <mxGeometry x="120" width="60" height="40" as="geometry">
            <mxRectangle width="60" height="40" as="alternateBounds" />
          </mxGeometry>
        </mxCell>
        <mxCell id="_k3ZWYJr-vB7ajS1iSJs-429" style="shape=tableRow;horizontal=0;startSize=0;swimlaneHead=0;swimlaneBody=0;top=0;left=0;bottom=0;right=0;collapsible=0;dropTarget=0;fillColor=none;points=[[0,0.5],[1,0.5]];portConstraint=eastwest;strokeColor=#000000;strokeWidth=1;" vertex="1" parent="_k3ZWYJr-vB7ajS1iSJs-395">
          <mxGeometry y="350" width="180" height="40" as="geometry" />
        </mxCell>
        <mxCell id="_k3ZWYJr-vB7ajS1iSJs-430" value="# medium leaks" style="shape=partialRectangle;html=1;whiteSpace=wrap;connectable=0;fillColor=#bac8d3;top=0;left=0;bottom=0;right=0;overflow=hidden;strokeColor=#23445d;strokeWidth=1;" vertex="1" parent="_k3ZWYJr-vB7ajS1iSJs-429">
          <mxGeometry width="60" height="40" as="geometry">
            <mxRectangle width="60" height="40" as="alternateBounds" />
          </mxGeometry>
        </mxCell>
        <mxCell id="_k3ZWYJr-vB7ajS1iSJs-431" value="☑️" style="shape=partialRectangle;html=1;whiteSpace=wrap;connectable=0;top=0;left=0;bottom=0;right=0;overflow=hidden;strokeWidth=1;" vertex="1" parent="_k3ZWYJr-vB7ajS1iSJs-429">
          <mxGeometry x="60" width="60" height="40" as="geometry">
            <mxRectangle width="60" height="40" as="alternateBounds" />
          </mxGeometry>
        </mxCell>
        <mxCell id="_k3ZWYJr-vB7ajS1iSJs-432" value="⛔" style="shape=partialRectangle;html=1;whiteSpace=wrap;connectable=0;top=0;left=0;bottom=0;right=0;overflow=hidden;strokeWidth=1;" vertex="1" parent="_k3ZWYJr-vB7ajS1iSJs-429">
          <mxGeometry x="120" width="60" height="40" as="geometry">
            <mxRectangle width="60" height="40" as="alternateBounds" />
          </mxGeometry>
        </mxCell>
        <mxCell id="_k3ZWYJr-vB7ajS1iSJs-433" style="shape=tableRow;horizontal=0;startSize=0;swimlaneHead=0;swimlaneBody=0;top=0;left=0;bottom=0;right=0;collapsible=0;dropTarget=0;fillColor=none;points=[[0,0.5],[1,0.5]];portConstraint=eastwest;strokeColor=#000000;strokeWidth=1;" vertex="1" parent="_k3ZWYJr-vB7ajS1iSJs-395">
          <mxGeometry y="390" width="180" height="40" as="geometry" />
        </mxCell>
        <mxCell id="_k3ZWYJr-vB7ajS1iSJs-434" value="# small leaks" style="shape=partialRectangle;html=1;whiteSpace=wrap;connectable=0;fillColor=#bac8d3;top=0;left=0;bottom=0;right=0;overflow=hidden;strokeColor=#23445d;strokeWidth=1;" vertex="1" parent="_k3ZWYJr-vB7ajS1iSJs-433">
          <mxGeometry width="60" height="40" as="geometry">
            <mxRectangle width="60" height="40" as="alternateBounds" />
          </mxGeometry>
        </mxCell>
        <mxCell id="_k3ZWYJr-vB7ajS1iSJs-435" value="☑️" style="shape=partialRectangle;html=1;whiteSpace=wrap;connectable=0;top=0;left=0;bottom=0;right=0;overflow=hidden;strokeWidth=1;" vertex="1" parent="_k3ZWYJr-vB7ajS1iSJs-433">
          <mxGeometry x="60" width="60" height="40" as="geometry">
            <mxRectangle width="60" height="40" as="alternateBounds" />
          </mxGeometry>
        </mxCell>
        <mxCell id="_k3ZWYJr-vB7ajS1iSJs-436" value="⛔" style="shape=partialRectangle;html=1;whiteSpace=wrap;connectable=0;top=0;left=0;bottom=0;right=0;overflow=hidden;strokeWidth=1;" vertex="1" parent="_k3ZWYJr-vB7ajS1iSJs-433">
          <mxGeometry x="120" width="60" height="40" as="geometry">
            <mxRectangle width="60" height="40" as="alternateBounds" />
          </mxGeometry>
        </mxCell>
        <mxCell id="_k3ZWYJr-vB7ajS1iSJs-537" style="edgeStyle=orthogonalEdgeStyle;rounded=0;orthogonalLoop=1;jettySize=auto;html=1;entryX=0.5;entryY=1;entryDx=0;entryDy=0;fontSize=15;fontColor=#6E5857;" edge="1" parent="1" source="_k3ZWYJr-vB7ajS1iSJs-440" target="_k3ZWYJr-vB7ajS1iSJs-536">
          <mxGeometry relative="1" as="geometry" />
        </mxCell>
        <mxCell id="_k3ZWYJr-vB7ajS1iSJs-440" value="&lt;h1&gt;Inside Report Structure (widgets)&lt;/h1&gt;&lt;div&gt;{ &quot;id&quot;: 23,&lt;/div&gt;&lt;div&gt;&amp;nbsp; &quot;key&quot;: &quot;summary&quot;,&lt;/div&gt;&lt;div&gt;&amp;nbsp; &quot;data&quot;: {&amp;nbsp; &quot;options&quot;: [ { &quot;label&quot;: &quot;# large leaks&quot;, &quot;id&quot;: 7 },&amp;nbsp;&lt;/div&gt;&amp;nbsp; &amp;nbsp; &amp;nbsp; &amp;nbsp; &amp;nbsp; &amp;nbsp; &amp;nbsp; &amp;nbsp; &amp;nbsp; &amp;nbsp; &amp;nbsp; &amp;nbsp; &amp;nbsp; &amp;nbsp; &amp;nbsp; &amp;nbsp; &amp;nbsp; &amp;nbsp;{ &quot;label&quot;: &quot;# medium leaks&quot;, &quot;id&quot;: 8 },&lt;br&gt;&amp;nbsp; &amp;nbsp; &amp;nbsp; &amp;nbsp; &amp;nbsp; &amp;nbsp; &amp;nbsp; &amp;nbsp; &amp;nbsp; &amp;nbsp; &amp;nbsp; &amp;nbsp; &amp;nbsp; &amp;nbsp; &amp;nbsp; &amp;nbsp; &amp;nbsp; &amp;nbsp;{ &quot;label&quot;: &quot;# smaill leaks&quot;, &quot;id&quot;: 9 } ] },&lt;br&gt;&lt;div&gt;&lt;span style=&quot;background-color: initial;&quot;&gt;&amp;nbsp; &quot;settings&quot;: { &quot;selected&quot;: [7, 8, 9] }&lt;/span&gt;&lt;br&gt;&lt;/div&gt;&lt;div&gt;&lt;span style=&quot;background-color: initial;&quot;&gt;}&lt;/span&gt;&lt;/div&gt;&lt;div&gt;&lt;span style=&quot;background-color: initial;&quot;&gt;&lt;br&gt;&lt;/span&gt;&lt;/div&gt;&lt;div&gt;&lt;div&gt;{ &quot;id&quot;: 24,&lt;/div&gt;&lt;div&gt;&amp;nbsp; &quot;key&quot;: &quot;results&quot;,&lt;/div&gt;&lt;div&gt;&amp;nbsp; &quot;data&quot;: {&amp;nbsp; &quot;options&quot;: [ { &quot;label&quot;: &quot;id&quot;, &quot;id&quot;: 1 },&amp;nbsp;&lt;/div&gt;&amp;nbsp; &amp;nbsp; &amp;nbsp; &amp;nbsp; &amp;nbsp; &amp;nbsp; &amp;nbsp; &amp;nbsp; &amp;nbsp; &amp;nbsp; &amp;nbsp; &amp;nbsp; &amp;nbsp; &amp;nbsp; &amp;nbsp; &amp;nbsp; &amp;nbsp; &amp;nbsp;{ &quot;label&quot;: &quot;fido_id&quot;, &quot;id&quot;: 2 },&lt;/div&gt;&lt;div&gt;&amp;nbsp; &amp;nbsp; &amp;nbsp; &amp;nbsp; &amp;nbsp; &amp;nbsp; &amp;nbsp; &amp;nbsp; &amp;nbsp; &amp;nbsp; &amp;nbsp; &amp;nbsp; &amp;nbsp; &amp;nbsp; &amp;nbsp; &amp;nbsp; &amp;nbsp; &amp;nbsp;{ &quot;label&quot;: &quot;session_id&quot;, &quot;id&quot;: 3 },&lt;/div&gt;&lt;div&gt;&amp;nbsp; &amp;nbsp; &amp;nbsp; &amp;nbsp; &amp;nbsp; &amp;nbsp; &amp;nbsp; &amp;nbsp; &amp;nbsp; &amp;nbsp; &amp;nbsp; &amp;nbsp; &amp;nbsp; &amp;nbsp; &amp;nbsp; &amp;nbsp; &amp;nbsp; &amp;nbsp;{ &quot;label&quot;: &quot;fido_result&quot;, &quot;id&quot;: 4 },&lt;br&gt;&amp;nbsp; &amp;nbsp; &amp;nbsp; &amp;nbsp; &amp;nbsp; &amp;nbsp; &amp;nbsp; &amp;nbsp; &amp;nbsp; &amp;nbsp; &amp;nbsp; &amp;nbsp; &amp;nbsp; &amp;nbsp; &amp;nbsp; &amp;nbsp; &amp;nbsp; &amp;nbsp;{ &quot;label&quot;: &quot;leak_size&quot;, &quot;id&quot;: 5 },&lt;/div&gt;&amp;nbsp; &amp;nbsp; &amp;nbsp; &amp;nbsp; &amp;nbsp; &amp;nbsp; &amp;nbsp; &amp;nbsp; &amp;nbsp; &amp;nbsp; &amp;nbsp; &amp;nbsp; &amp;nbsp; &amp;nbsp; &amp;nbsp; &amp;nbsp; &amp;nbsp; &amp;nbsp;{ &quot;label&quot;: &quot;overdue&quot;, &quot;id&quot;: 6 }&lt;span style=&quot;background-color: initial;&quot;&gt;&amp;nbsp;] },&lt;/span&gt;&lt;br&gt;&lt;div&gt;&lt;div&gt;&lt;span style=&quot;background-color: initial;&quot;&gt;&amp;nbsp; &quot;settings&quot;: { &quot;selected&quot;: [1, 2, 3, 4, 5] }&lt;/span&gt;&lt;br&gt;&lt;/div&gt;&lt;div&gt;&lt;span style=&quot;background-color: initial;&quot;&gt;}&lt;/span&gt;&lt;/div&gt;&lt;/div&gt;&lt;div&gt;&lt;span style=&quot;background-color: initial;&quot;&gt;&lt;br&gt;&lt;/span&gt;&lt;/div&gt;&lt;div&gt;&lt;div&gt;{ &quot;id&quot;: 24,&lt;/div&gt;&lt;div&gt;&amp;nbsp; &quot;key&quot;: &quot;filter&quot;,&lt;/div&gt;&lt;div&gt;&amp;nbsp; &quot;data&quot;: {&amp;nbsp; &quot;options&quot;: [&amp;nbsp;&lt;span style=&quot;background-color: initial;&quot;&gt;{ &quot;label&quot;: &quot;id&quot;, &quot;id&quot;: 1 },&amp;nbsp;&lt;/span&gt;&lt;/div&gt;&lt;div&gt;&amp;nbsp; &amp;nbsp; &amp;nbsp; &amp;nbsp; &amp;nbsp; &amp;nbsp; &amp;nbsp; &amp;nbsp; &amp;nbsp; &amp;nbsp; &amp;nbsp; &amp;nbsp; &amp;nbsp; &amp;nbsp; &amp;nbsp; &amp;nbsp; &amp;nbsp; &amp;nbsp;{ &quot;label&quot;: &quot;fido_id&quot;, &quot;id&quot;: 2 },&lt;/div&gt;&lt;div&gt;&amp;nbsp; &amp;nbsp; &amp;nbsp; &amp;nbsp; &amp;nbsp; &amp;nbsp; &amp;nbsp; &amp;nbsp; &amp;nbsp; &amp;nbsp; &amp;nbsp; &amp;nbsp; &amp;nbsp; &amp;nbsp; &amp;nbsp; &amp;nbsp; &amp;nbsp; &amp;nbsp;{ &quot;label&quot;: &quot;session_id&quot;, &quot;id&quot;: 3 },&lt;/div&gt;&lt;div&gt;&amp;nbsp; &amp;nbsp; &amp;nbsp; &amp;nbsp; &amp;nbsp; &amp;nbsp; &amp;nbsp; &amp;nbsp; &amp;nbsp; &amp;nbsp; &amp;nbsp; &amp;nbsp; &amp;nbsp; &amp;nbsp; &amp;nbsp; &amp;nbsp; &amp;nbsp; &amp;nbsp;{ &quot;label&quot;: &quot;fido_result&quot;, &quot;id&quot;: 4 },&lt;br&gt;&amp;nbsp; &amp;nbsp; &amp;nbsp; &amp;nbsp; &amp;nbsp; &amp;nbsp; &amp;nbsp; &amp;nbsp; &amp;nbsp; &amp;nbsp; &amp;nbsp; &amp;nbsp; &amp;nbsp; &amp;nbsp; &amp;nbsp; &amp;nbsp; &amp;nbsp; &amp;nbsp;{ &quot;label&quot;: &quot;leak_size&quot;, &quot;id&quot;: 5 },&lt;/div&gt;&amp;nbsp; &amp;nbsp; &amp;nbsp; &amp;nbsp; &amp;nbsp; &amp;nbsp; &amp;nbsp; &amp;nbsp; &amp;nbsp; &amp;nbsp; &amp;nbsp; &amp;nbsp; &amp;nbsp; &amp;nbsp; &amp;nbsp; &amp;nbsp; &amp;nbsp; &amp;nbsp;{ &quot;label&quot;: &quot;overdue&quot;, &quot;id&quot;: 6 }&amp;nbsp;] },&lt;br&gt;&lt;div&gt;&lt;span style=&quot;background-color: initial;&quot;&gt;&amp;nbsp; &quot;settings&quot;:&amp;nbsp;&lt;/span&gt;&lt;span style=&quot;background-color: initial;&quot;&gt;{ &quot;selected&quot;: [1, 2, 5, 6] }&lt;/span&gt;&lt;br&gt;&lt;/div&gt;&lt;div&gt;&lt;br&gt;&lt;/div&gt;&lt;div&gt;&lt;span style=&quot;background-color: initial;&quot;&gt;}&lt;/span&gt;&lt;/div&gt;&lt;/div&gt;" style="text;html=1;strokeColor=#0e8088;fillColor=#B4D9DB;spacing=5;spacingTop=-20;whiteSpace=wrap;overflow=hidden;rounded=0;strokeWidth=1;" vertex="1" parent="1">
          <mxGeometry x="1190" y="659" width="430" height="510" as="geometry" />
        </mxCell>
        <mxCell id="_k3ZWYJr-vB7ajS1iSJs-500" style="edgeStyle=orthogonalEdgeStyle;rounded=0;orthogonalLoop=1;jettySize=auto;html=1;fontColor=#FFFFFF;" edge="1" parent="1" source="_k3ZWYJr-vB7ajS1iSJs-445" target="_k3ZWYJr-vB7ajS1iSJs-499">
          <mxGeometry relative="1" as="geometry" />
        </mxCell>
        <mxCell id="_k3ZWYJr-vB7ajS1iSJs-445" value="The User could add another summary from a &lt;b&gt;datasource 2&lt;/b&gt;" style="whiteSpace=wrap;html=1;strokeColor=#000000;rounded=0;strokeWidth=1;" vertex="1" parent="1">
          <mxGeometry x="460" y="1180" width="120" height="60" as="geometry" />
        </mxCell>
        <mxCell id="_k3ZWYJr-vB7ajS1iSJs-488" style="edgeStyle=orthogonalEdgeStyle;rounded=0;orthogonalLoop=1;jettySize=auto;html=1;entryX=0.5;entryY=1;entryDx=0;entryDy=0;" edge="1" parent="1" source="_k3ZWYJr-vB7ajS1iSJs-447" target="_k3ZWYJr-vB7ajS1iSJs-445">
          <mxGeometry relative="1" as="geometry" />
        </mxCell>
        <mxCell id="_k3ZWYJr-vB7ajS1iSJs-498" value="" style="edgeStyle=orthogonalEdgeStyle;rounded=0;orthogonalLoop=1;jettySize=auto;html=1;" edge="1" parent="1" source="_k3ZWYJr-vB7ajS1iSJs-447" target="_k3ZWYJr-vB7ajS1iSJs-497">
          <mxGeometry relative="1" as="geometry" />
        </mxCell>
        <mxCell id="_k3ZWYJr-vB7ajS1iSJs-447" value="Datasource 2 columns" style="shape=table;startSize=30;container=1;collapsible=0;childLayout=tableLayout;fontStyle=1;align=center;strokeColor=#005700;strokeWidth=1;fillColor=#008a00;fontColor=#ffffff;" vertex="1" parent="1">
          <mxGeometry x="370" y="1400" width="180" height="310" as="geometry" />
        </mxCell>
        <mxCell id="_k3ZWYJr-vB7ajS1iSJs-448" style="shape=tableRow;horizontal=0;startSize=0;swimlaneHead=0;swimlaneBody=0;top=0;left=0;bottom=0;right=0;collapsible=0;dropTarget=0;fillColor=none;points=[[0,0.5],[1,0.5]];portConstraint=eastwest;strokeColor=#000000;strokeWidth=1;" vertex="1" parent="_k3ZWYJr-vB7ajS1iSJs-447">
          <mxGeometry y="30" width="180" height="40" as="geometry" />
        </mxCell>
        <mxCell id="_k3ZWYJr-vB7ajS1iSJs-449" value="name" style="shape=partialRectangle;html=1;whiteSpace=wrap;connectable=0;fillColor=#60a917;top=0;left=0;bottom=0;right=0;overflow=hidden;strokeColor=#2D7600;strokeWidth=1;fontColor=#ffffff;" vertex="1" parent="_k3ZWYJr-vB7ajS1iSJs-448">
          <mxGeometry width="60" height="40" as="geometry">
            <mxRectangle width="60" height="40" as="alternateBounds" />
          </mxGeometry>
        </mxCell>
        <mxCell id="_k3ZWYJr-vB7ajS1iSJs-450" value="results/&lt;br&gt;summary" style="shape=partialRectangle;html=1;whiteSpace=wrap;connectable=0;fillColor=#60a917;top=0;left=0;bottom=0;right=0;overflow=hidden;strokeColor=#2D7600;strokeWidth=1;fontColor=#ffffff;" vertex="1" parent="_k3ZWYJr-vB7ajS1iSJs-448">
          <mxGeometry x="60" width="60" height="40" as="geometry">
            <mxRectangle width="60" height="40" as="alternateBounds" />
          </mxGeometry>
        </mxCell>
        <mxCell id="_k3ZWYJr-vB7ajS1iSJs-451" value="filter" style="shape=partialRectangle;html=1;whiteSpace=wrap;connectable=0;fillColor=#60a917;top=0;left=0;bottom=0;right=0;overflow=hidden;strokeColor=#2D7600;strokeWidth=1;fontColor=#ffffff;" vertex="1" parent="_k3ZWYJr-vB7ajS1iSJs-448">
          <mxGeometry x="120" width="60" height="40" as="geometry">
            <mxRectangle width="60" height="40" as="alternateBounds" />
          </mxGeometry>
        </mxCell>
        <mxCell id="_k3ZWYJr-vB7ajS1iSJs-452" value="" style="shape=tableRow;horizontal=0;startSize=0;swimlaneHead=0;swimlaneBody=0;top=0;left=0;bottom=0;right=0;collapsible=0;dropTarget=0;fillColor=none;points=[[0,0.5],[1,0.5]];portConstraint=eastwest;strokeColor=#000000;strokeWidth=1;" vertex="1" parent="_k3ZWYJr-vB7ajS1iSJs-447">
          <mxGeometry y="70" width="180" height="40" as="geometry" />
        </mxCell>
        <mxCell id="_k3ZWYJr-vB7ajS1iSJs-453" value="G" style="shape=partialRectangle;html=1;whiteSpace=wrap;connectable=0;fillColor=#bac8d3;top=0;left=0;bottom=0;right=0;overflow=hidden;strokeColor=#23445d;strokeWidth=1;" vertex="1" parent="_k3ZWYJr-vB7ajS1iSJs-452">
          <mxGeometry width="60" height="40" as="geometry">
            <mxRectangle width="60" height="40" as="alternateBounds" />
          </mxGeometry>
        </mxCell>
        <mxCell id="_k3ZWYJr-vB7ajS1iSJs-454" value="⛔?" style="shape=partialRectangle;html=1;whiteSpace=wrap;connectable=0;top=0;left=0;bottom=0;right=0;overflow=hidden;strokeWidth=1;" vertex="1" parent="_k3ZWYJr-vB7ajS1iSJs-452">
          <mxGeometry x="60" width="60" height="40" as="geometry">
            <mxRectangle width="60" height="40" as="alternateBounds" />
          </mxGeometry>
        </mxCell>
        <mxCell id="_k3ZWYJr-vB7ajS1iSJs-455" value="☑️" style="shape=partialRectangle;html=1;whiteSpace=wrap;connectable=0;top=0;left=0;bottom=0;right=0;overflow=hidden;strokeWidth=1;" vertex="1" parent="_k3ZWYJr-vB7ajS1iSJs-452">
          <mxGeometry x="120" width="60" height="40" as="geometry">
            <mxRectangle width="60" height="40" as="alternateBounds" />
          </mxGeometry>
        </mxCell>
        <mxCell id="_k3ZWYJr-vB7ajS1iSJs-456" style="shape=tableRow;horizontal=0;startSize=0;swimlaneHead=0;swimlaneBody=0;top=0;left=0;bottom=0;right=0;collapsible=0;dropTarget=0;fillColor=none;points=[[0,0.5],[1,0.5]];portConstraint=eastwest;strokeColor=#000000;strokeWidth=1;" vertex="1" parent="_k3ZWYJr-vB7ajS1iSJs-447">
          <mxGeometry y="110" width="180" height="40" as="geometry" />
        </mxCell>
        <mxCell id="_k3ZWYJr-vB7ajS1iSJs-457" value="H" style="shape=partialRectangle;html=1;whiteSpace=wrap;connectable=0;fillColor=#bac8d3;top=0;left=0;bottom=0;right=0;overflow=hidden;strokeColor=#23445d;strokeWidth=1;" vertex="1" parent="_k3ZWYJr-vB7ajS1iSJs-456">
          <mxGeometry width="60" height="40" as="geometry">
            <mxRectangle width="60" height="40" as="alternateBounds" />
          </mxGeometry>
        </mxCell>
        <mxCell id="_k3ZWYJr-vB7ajS1iSJs-458" value="⛔?" style="shape=partialRectangle;html=1;whiteSpace=wrap;connectable=0;top=0;left=0;bottom=0;right=0;overflow=hidden;strokeWidth=1;" vertex="1" parent="_k3ZWYJr-vB7ajS1iSJs-456">
          <mxGeometry x="60" width="60" height="40" as="geometry">
            <mxRectangle width="60" height="40" as="alternateBounds" />
          </mxGeometry>
        </mxCell>
        <mxCell id="_k3ZWYJr-vB7ajS1iSJs-459" value="" style="shape=partialRectangle;html=1;whiteSpace=wrap;connectable=0;top=0;left=0;bottom=0;right=0;overflow=hidden;strokeWidth=1;" vertex="1" parent="_k3ZWYJr-vB7ajS1iSJs-456">
          <mxGeometry x="120" width="60" height="40" as="geometry">
            <mxRectangle width="60" height="40" as="alternateBounds" />
          </mxGeometry>
        </mxCell>
        <mxCell id="_k3ZWYJr-vB7ajS1iSJs-460" style="shape=tableRow;horizontal=0;startSize=0;swimlaneHead=0;swimlaneBody=0;top=0;left=0;bottom=0;right=0;collapsible=0;dropTarget=0;fillColor=none;points=[[0,0.5],[1,0.5]];portConstraint=eastwest;strokeColor=#000000;strokeWidth=1;" vertex="1" parent="_k3ZWYJr-vB7ajS1iSJs-447">
          <mxGeometry y="150" width="180" height="40" as="geometry" />
        </mxCell>
        <mxCell id="_k3ZWYJr-vB7ajS1iSJs-461" value="I" style="shape=partialRectangle;html=1;whiteSpace=wrap;connectable=0;fillColor=#bac8d3;top=0;left=0;bottom=0;right=0;overflow=hidden;strokeColor=#23445d;strokeWidth=1;" vertex="1" parent="_k3ZWYJr-vB7ajS1iSJs-460">
          <mxGeometry width="60" height="40" as="geometry">
            <mxRectangle width="60" height="40" as="alternateBounds" />
          </mxGeometry>
        </mxCell>
        <mxCell id="_k3ZWYJr-vB7ajS1iSJs-462" value="⛔?" style="shape=partialRectangle;html=1;whiteSpace=wrap;connectable=0;top=0;left=0;bottom=0;right=0;overflow=hidden;strokeWidth=1;" vertex="1" parent="_k3ZWYJr-vB7ajS1iSJs-460">
          <mxGeometry x="60" width="60" height="40" as="geometry">
            <mxRectangle width="60" height="40" as="alternateBounds" />
          </mxGeometry>
        </mxCell>
        <mxCell id="_k3ZWYJr-vB7ajS1iSJs-463" value="" style="shape=partialRectangle;html=1;whiteSpace=wrap;connectable=0;top=0;left=0;bottom=0;right=0;overflow=hidden;strokeWidth=1;" vertex="1" parent="_k3ZWYJr-vB7ajS1iSJs-460">
          <mxGeometry x="120" width="60" height="40" as="geometry">
            <mxRectangle width="60" height="40" as="alternateBounds" />
          </mxGeometry>
        </mxCell>
        <mxCell id="_k3ZWYJr-vB7ajS1iSJs-464" style="shape=tableRow;horizontal=0;startSize=0;swimlaneHead=0;swimlaneBody=0;top=0;left=0;bottom=0;right=0;collapsible=0;dropTarget=0;fillColor=none;points=[[0,0.5],[1,0.5]];portConstraint=eastwest;strokeColor=#000000;strokeWidth=1;" vertex="1" parent="_k3ZWYJr-vB7ajS1iSJs-447">
          <mxGeometry y="190" width="180" height="40" as="geometry" />
        </mxCell>
        <mxCell id="_k3ZWYJr-vB7ajS1iSJs-465" value="J" style="shape=partialRectangle;html=1;whiteSpace=wrap;connectable=0;fillColor=#bac8d3;top=0;left=0;bottom=0;right=0;overflow=hidden;strokeColor=#23445d;strokeWidth=1;" vertex="1" parent="_k3ZWYJr-vB7ajS1iSJs-464">
          <mxGeometry width="60" height="40" as="geometry">
            <mxRectangle width="60" height="40" as="alternateBounds" />
          </mxGeometry>
        </mxCell>
        <mxCell id="_k3ZWYJr-vB7ajS1iSJs-466" value="⛔?" style="shape=partialRectangle;html=1;whiteSpace=wrap;connectable=0;top=0;left=0;bottom=0;right=0;overflow=hidden;strokeWidth=1;" vertex="1" parent="_k3ZWYJr-vB7ajS1iSJs-464">
          <mxGeometry x="60" width="60" height="40" as="geometry">
            <mxRectangle width="60" height="40" as="alternateBounds" />
          </mxGeometry>
        </mxCell>
        <mxCell id="_k3ZWYJr-vB7ajS1iSJs-467" style="shape=partialRectangle;html=1;whiteSpace=wrap;connectable=0;top=0;left=0;bottom=0;right=0;overflow=hidden;strokeWidth=1;" vertex="1" parent="_k3ZWYJr-vB7ajS1iSJs-464">
          <mxGeometry x="120" width="60" height="40" as="geometry">
            <mxRectangle width="60" height="40" as="alternateBounds" />
          </mxGeometry>
        </mxCell>
        <mxCell id="_k3ZWYJr-vB7ajS1iSJs-468" value="" style="shape=tableRow;horizontal=0;startSize=0;swimlaneHead=0;swimlaneBody=0;top=0;left=0;bottom=0;right=0;collapsible=0;dropTarget=0;fillColor=none;points=[[0,0.5],[1,0.5]];portConstraint=eastwest;strokeColor=#000000;strokeWidth=1;" vertex="1" parent="_k3ZWYJr-vB7ajS1iSJs-447">
          <mxGeometry y="230" width="180" height="40" as="geometry" />
        </mxCell>
        <mxCell id="_k3ZWYJr-vB7ajS1iSJs-469" value="# alarms" style="shape=partialRectangle;html=1;whiteSpace=wrap;connectable=0;fillColor=#bac8d3;top=0;left=0;bottom=0;right=0;overflow=hidden;strokeColor=#23445d;strokeWidth=1;" vertex="1" parent="_k3ZWYJr-vB7ajS1iSJs-468">
          <mxGeometry width="60" height="40" as="geometry">
            <mxRectangle width="60" height="40" as="alternateBounds" />
          </mxGeometry>
        </mxCell>
        <mxCell id="_k3ZWYJr-vB7ajS1iSJs-470" value="☑️" style="shape=partialRectangle;html=1;whiteSpace=wrap;connectable=0;top=0;left=0;bottom=0;right=0;overflow=hidden;strokeWidth=1;" vertex="1" parent="_k3ZWYJr-vB7ajS1iSJs-468">
          <mxGeometry x="60" width="60" height="40" as="geometry">
            <mxRectangle width="60" height="40" as="alternateBounds" />
          </mxGeometry>
        </mxCell>
        <mxCell id="_k3ZWYJr-vB7ajS1iSJs-471" value="⛔" style="shape=partialRectangle;html=1;whiteSpace=wrap;connectable=0;top=0;left=0;bottom=0;right=0;overflow=hidden;strokeWidth=1;" vertex="1" parent="_k3ZWYJr-vB7ajS1iSJs-468">
          <mxGeometry x="120" width="60" height="40" as="geometry">
            <mxRectangle width="60" height="40" as="alternateBounds" />
          </mxGeometry>
        </mxCell>
        <mxCell id="_k3ZWYJr-vB7ajS1iSJs-472" value="" style="shape=tableRow;horizontal=0;startSize=0;swimlaneHead=0;swimlaneBody=0;top=0;left=0;bottom=0;right=0;collapsible=0;dropTarget=0;fillColor=none;points=[[0,0.5],[1,0.5]];portConstraint=eastwest;strokeColor=#000000;strokeWidth=1;" vertex="1" parent="_k3ZWYJr-vB7ajS1iSJs-447">
          <mxGeometry y="270" width="180" height="40" as="geometry" />
        </mxCell>
        <mxCell id="_k3ZWYJr-vB7ajS1iSJs-473" value="# other" style="shape=partialRectangle;html=1;whiteSpace=wrap;connectable=0;fillColor=#bac8d3;top=0;left=0;bottom=0;right=0;overflow=hidden;strokeColor=#23445d;strokeWidth=1;" vertex="1" parent="_k3ZWYJr-vB7ajS1iSJs-472">
          <mxGeometry width="60" height="40" as="geometry">
            <mxRectangle width="60" height="40" as="alternateBounds" />
          </mxGeometry>
        </mxCell>
        <mxCell id="_k3ZWYJr-vB7ajS1iSJs-474" value="" style="shape=partialRectangle;html=1;whiteSpace=wrap;connectable=0;top=0;left=0;bottom=0;right=0;overflow=hidden;strokeWidth=1;" vertex="1" parent="_k3ZWYJr-vB7ajS1iSJs-472">
          <mxGeometry x="60" width="60" height="40" as="geometry">
            <mxRectangle width="60" height="40" as="alternateBounds" />
          </mxGeometry>
        </mxCell>
        <mxCell id="_k3ZWYJr-vB7ajS1iSJs-475" value="⛔" style="shape=partialRectangle;html=1;whiteSpace=wrap;connectable=0;top=0;left=0;bottom=0;right=0;overflow=hidden;strokeWidth=1;" vertex="1" parent="_k3ZWYJr-vB7ajS1iSJs-472">
          <mxGeometry x="120" width="60" height="40" as="geometry">
            <mxRectangle width="60" height="40" as="alternateBounds" />
          </mxGeometry>
        </mxCell>
        <mxCell id="_k3ZWYJr-vB7ajS1iSJs-497" value="&lt;span style=&quot;font-weight: 400;&quot;&gt;⛔? - If chose datasource from a summary widget. Can the user select results field?&lt;/span&gt;" style="whiteSpace=wrap;html=1;fillColor=#008a00;strokeColor=#005700;fontColor=#FFFFFF;startSize=30;fontStyle=1;strokeWidth=1;" vertex="1" parent="1">
          <mxGeometry x="160" y="1600" width="155" height="95" as="geometry" />
        </mxCell>
        <mxCell id="_k3ZWYJr-vB7ajS1iSJs-502" style="edgeStyle=orthogonalEdgeStyle;rounded=0;orthogonalLoop=1;jettySize=auto;html=1;entryX=0;entryY=0.5;entryDx=0;entryDy=0;fontColor=#FFFFFF;" edge="1" parent="1" source="_k3ZWYJr-vB7ajS1iSJs-499" target="_k3ZWYJr-vB7ajS1iSJs-501">
          <mxGeometry relative="1" as="geometry" />
        </mxCell>
        <mxCell id="_k3ZWYJr-vB7ajS1iSJs-499" value="Update Report Structure. Should add a new summary field and a new filter" style="whiteSpace=wrap;html=1;strokeColor=#000000;rounded=0;strokeWidth=1;fontColor=default;fillColor=default;" vertex="1" parent="1">
          <mxGeometry x="610" y="1290" width="120" height="60" as="geometry" />
        </mxCell>
        <mxCell id="_k3ZWYJr-vB7ajS1iSJs-501" value="&lt;h1&gt;Inside Report Structure (widgets)&lt;/h1&gt;&lt;div&gt;{ &quot;id&quot;: 23,&lt;/div&gt;&lt;div&gt;&amp;nbsp; &quot;key&quot;: &quot;summary&quot;,&lt;/div&gt;&lt;div&gt;&amp;nbsp; &quot;data&quot;: {&amp;nbsp; &quot;options&quot;: [ { &quot;label&quot;: &quot;# large leaks&quot;, &quot;id&quot;: 7 },&amp;nbsp;&lt;/div&gt;&amp;nbsp; &amp;nbsp; &amp;nbsp; &amp;nbsp; &amp;nbsp; &amp;nbsp; &amp;nbsp; &amp;nbsp; &amp;nbsp; &amp;nbsp; &amp;nbsp; &amp;nbsp; &amp;nbsp; &amp;nbsp; &amp;nbsp; &amp;nbsp; &amp;nbsp; &amp;nbsp;{ &quot;label&quot;: &quot;# medium leaks&quot;, &quot;id&quot;: 8 },&lt;br&gt;&amp;nbsp; &amp;nbsp; &amp;nbsp; &amp;nbsp; &amp;nbsp; &amp;nbsp; &amp;nbsp; &amp;nbsp; &amp;nbsp; &amp;nbsp; &amp;nbsp; &amp;nbsp; &amp;nbsp; &amp;nbsp; &amp;nbsp; &amp;nbsp; &amp;nbsp; &amp;nbsp;{ &quot;label&quot;: &quot;# smaill leaks&quot;, &quot;id&quot;: 9 },&lt;br&gt;&amp;nbsp; &amp;nbsp; &amp;nbsp; &amp;nbsp; &amp;nbsp; &amp;nbsp; &amp;nbsp; &amp;nbsp; &amp;nbsp; &amp;nbsp; &amp;nbsp; &amp;nbsp; &amp;nbsp; &amp;nbsp; &amp;nbsp; &amp;nbsp; &amp;nbsp; &amp;nbsp;&lt;b&gt;{ &quot;label&quot;: &quot;# alarms&quot;, &quot;id&quot;: 14 }&lt;/b&gt;&amp;nbsp;] },&lt;br&gt;&lt;div&gt;&lt;span style=&quot;background-color: initial;&quot;&gt;&amp;nbsp; &quot;settings&quot;: { &quot;selected&quot;: [7, 8, 9, &lt;b&gt;14&lt;/b&gt;] }&lt;/span&gt;&lt;/div&gt;&lt;div&gt;&lt;span style=&quot;background-color: initial;&quot;&gt;}&lt;/span&gt;&lt;/div&gt;&lt;div&gt;&lt;span style=&quot;background-color: initial;&quot;&gt;&lt;br&gt;&lt;/span&gt;&lt;/div&gt;&lt;div&gt;&lt;div&gt;{ &quot;id&quot;: 24,&lt;/div&gt;&lt;div&gt;&amp;nbsp; &quot;key&quot;: &quot;results&quot;,&lt;/div&gt;&lt;div&gt;&amp;nbsp; &quot;data&quot;: {&amp;nbsp; &quot;options&quot;: [ { &quot;label&quot;: &quot;id&quot;, &quot;id&quot;: 1 },&amp;nbsp;&lt;/div&gt;&amp;nbsp; &amp;nbsp; &amp;nbsp; &amp;nbsp; &amp;nbsp; &amp;nbsp; &amp;nbsp; &amp;nbsp; &amp;nbsp; &amp;nbsp; &amp;nbsp; &amp;nbsp; &amp;nbsp; &amp;nbsp; &amp;nbsp; &amp;nbsp; &amp;nbsp; &amp;nbsp;{ &quot;label&quot;: &quot;fido_id&quot;, &quot;id&quot;: 2 },&lt;/div&gt;&lt;div&gt;&amp;nbsp; &amp;nbsp; &amp;nbsp; &amp;nbsp; &amp;nbsp; &amp;nbsp; &amp;nbsp; &amp;nbsp; &amp;nbsp; &amp;nbsp; &amp;nbsp; &amp;nbsp; &amp;nbsp; &amp;nbsp; &amp;nbsp; &amp;nbsp; &amp;nbsp; &amp;nbsp;{ &quot;label&quot;: &quot;sesion_id&quot;, &quot;id&quot;: 3 },&lt;/div&gt;&lt;div&gt;&amp;nbsp; &amp;nbsp; &amp;nbsp; &amp;nbsp; &amp;nbsp; &amp;nbsp; &amp;nbsp; &amp;nbsp; &amp;nbsp; &amp;nbsp; &amp;nbsp; &amp;nbsp; &amp;nbsp; &amp;nbsp; &amp;nbsp; &amp;nbsp; &amp;nbsp; &amp;nbsp;{ &quot;label&quot;: &quot;fido_result&quot;, &quot;id&quot;: 4 },&lt;br&gt;&amp;nbsp; &amp;nbsp; &amp;nbsp; &amp;nbsp; &amp;nbsp; &amp;nbsp; &amp;nbsp; &amp;nbsp; &amp;nbsp; &amp;nbsp; &amp;nbsp; &amp;nbsp; &amp;nbsp; &amp;nbsp; &amp;nbsp; &amp;nbsp; &amp;nbsp; &amp;nbsp;{ &quot;label&quot;: &quot;leak_size&quot;, &quot;id&quot;: 5 },&amp;nbsp;&lt;/div&gt;&amp;nbsp; &amp;nbsp; &amp;nbsp; &amp;nbsp; &amp;nbsp; &amp;nbsp; &amp;nbsp; &amp;nbsp; &amp;nbsp; &amp;nbsp; &amp;nbsp; &amp;nbsp; &amp;nbsp; &amp;nbsp; &amp;nbsp; &amp;nbsp; &amp;nbsp; &amp;nbsp;{ &quot;label&quot;: &quot;overdue&quot;, &quot;id&quot;: 6 }&lt;span style=&quot;background-color: initial;&quot;&gt;&amp;nbsp;] },&lt;/span&gt;&lt;br&gt;&lt;div&gt;&lt;div&gt;&lt;span style=&quot;background-color: initial;&quot;&gt;&amp;nbsp; &quot;settings&quot;:&amp;nbsp;&lt;/span&gt;&lt;span style=&quot;background-color: initial;&quot;&gt;{ &quot;selected&quot;: [1, 2, 3, 4, 5&lt;/span&gt;&lt;span style=&quot;background-color: initial;&quot;&gt;] }&lt;/span&gt;&lt;br&gt;&lt;/div&gt;&lt;div&gt;&lt;span style=&quot;background-color: initial;&quot;&gt;}&lt;/span&gt;&lt;/div&gt;&lt;/div&gt;&lt;div&gt;&lt;span style=&quot;background-color: initial;&quot;&gt;&lt;br&gt;&lt;/span&gt;&lt;/div&gt;&lt;div&gt;&lt;div&gt;{ &quot;id&quot;: 24,&lt;/div&gt;&lt;div&gt;&amp;nbsp; &quot;key&quot;: &quot;filter&quot;,&lt;/div&gt;&lt;div&gt;&amp;nbsp; &quot;data&quot;: {&amp;nbsp; &quot;options&quot;: [ { &quot;label&quot;: &quot;id&quot;, &quot;id&quot;: 1 },&amp;nbsp;&lt;/div&gt;&amp;nbsp; &amp;nbsp; &amp;nbsp; &amp;nbsp; &amp;nbsp; &amp;nbsp; &amp;nbsp; &amp;nbsp; &amp;nbsp; &amp;nbsp; &amp;nbsp; &amp;nbsp; &amp;nbsp; &amp;nbsp; &amp;nbsp; &amp;nbsp; &amp;nbsp; &amp;nbsp;{ &quot;label&quot;: &quot;fido_id&quot;, &quot;id&quot;: 2 },&lt;br&gt;&amp;nbsp; &amp;nbsp; &amp;nbsp; &amp;nbsp; &amp;nbsp; &amp;nbsp; &amp;nbsp; &amp;nbsp; &amp;nbsp; &amp;nbsp; &amp;nbsp; &amp;nbsp; &amp;nbsp; &amp;nbsp; &amp;nbsp; &amp;nbsp; &amp;nbsp; &amp;nbsp;{ &quot;label&quot;: &quot;sesion_id&quot;, &quot;id&quot;: 3 },&lt;/div&gt;&lt;div&gt;&amp;nbsp; &amp;nbsp; &amp;nbsp; &amp;nbsp; &amp;nbsp; &amp;nbsp; &amp;nbsp; &amp;nbsp; &amp;nbsp; &amp;nbsp; &amp;nbsp; &amp;nbsp; &amp;nbsp; &amp;nbsp; &amp;nbsp; &amp;nbsp; &amp;nbsp; &amp;nbsp;{ &quot;label&quot;: &quot;fido_result&quot;, &quot;id&quot;: 4 },&lt;br&gt;&lt;/div&gt;&lt;div&gt;&amp;nbsp; &amp;nbsp; &amp;nbsp; &amp;nbsp; &amp;nbsp; &amp;nbsp; &amp;nbsp; &amp;nbsp; &amp;nbsp; &amp;nbsp; &amp;nbsp; &amp;nbsp; &amp;nbsp; &amp;nbsp; &amp;nbsp; &amp;nbsp; &amp;nbsp; &amp;nbsp;{ &quot;label&quot;: &quot;leak_size&quot;, &quot;id&quot;: 5 },&lt;br&gt;&lt;/div&gt;&lt;div&gt;&amp;nbsp; &amp;nbsp; &amp;nbsp; &amp;nbsp; &amp;nbsp; &amp;nbsp; &amp;nbsp; &amp;nbsp; &amp;nbsp; &amp;nbsp; &amp;nbsp; &amp;nbsp; &amp;nbsp; &amp;nbsp; &amp;nbsp; &amp;nbsp; &amp;nbsp; &amp;nbsp;{ &quot;label&quot;: &quot;overdue&quot;, &quot;id&quot;: 6 },&lt;br&gt;&lt;/div&gt;&amp;nbsp; &amp;nbsp; &amp;nbsp; &amp;nbsp; &amp;nbsp; &amp;nbsp; &amp;nbsp; &amp;nbsp; &amp;nbsp; &amp;nbsp; &amp;nbsp; &amp;nbsp; &amp;nbsp; &amp;nbsp; &amp;nbsp; &amp;nbsp; &amp;nbsp; &amp;nbsp;&lt;b&gt;{ &quot;label&quot;: &quot;user_id&quot;, &quot;id&quot;: 11 }&lt;/b&gt;&lt;span style=&quot;background-color: initial;&quot;&gt;&amp;nbsp;] },&lt;/span&gt;&lt;br&gt;&lt;div&gt;&lt;div&gt;&lt;span style=&quot;background-color: initial;&quot;&gt;&amp;nbsp; &quot;settings&quot;:&amp;nbsp;&lt;/span&gt;&lt;span style=&quot;background-color: initial;&quot;&gt;{ &quot;selected&quot;: [1, 2, 5, 6, &lt;b&gt;11&lt;/b&gt;&lt;/span&gt;&lt;span style=&quot;background-color: initial;&quot;&gt;] }&lt;/span&gt;&lt;br&gt;&lt;/div&gt;&lt;div&gt;&lt;span style=&quot;background-color: initial;&quot;&gt;}&lt;/span&gt;&lt;/div&gt;&lt;/div&gt;" style="text;html=1;strokeColor=#0e8088;fillColor=#B4D9DB;spacing=5;spacingTop=-20;whiteSpace=wrap;overflow=hidden;rounded=0;strokeWidth=1;" vertex="1" parent="1">
          <mxGeometry x="930" y="1220" width="430" height="510" as="geometry" />
        </mxCell>
        <mxCell id="_k3ZWYJr-vB7ajS1iSJs-534" style="edgeStyle=orthogonalEdgeStyle;rounded=0;orthogonalLoop=1;jettySize=auto;html=1;entryX=0;entryY=0.5;entryDx=0;entryDy=0;fontSize=16;fontColor=#6E5857;" edge="1" parent="1" source="_k3ZWYJr-vB7ajS1iSJs-505" target="_k3ZWYJr-vB7ajS1iSJs-515">
          <mxGeometry relative="1" as="geometry" />
        </mxCell>
        <mxCell id="_k3ZWYJr-vB7ajS1iSJs-505" value="Run Report" style="rounded=0;whiteSpace=wrap;html=1;strokeColor=#6F0000;strokeWidth=1;fillColor=#a20025;fontColor=#ffffff;" vertex="1" parent="1">
          <mxGeometry x="50" y="1940" width="90" height="40" as="geometry" />
        </mxCell>
        <mxCell id="_k3ZWYJr-vB7ajS1iSJs-553" style="edgeStyle=orthogonalEdgeStyle;rounded=0;orthogonalLoop=1;jettySize=auto;html=1;entryX=0.5;entryY=0;entryDx=0;entryDy=0;fontSize=13;fontColor=#FFFFFF;" edge="1" parent="1" source="_k3ZWYJr-vB7ajS1iSJs-515" target="_k3ZWYJr-vB7ajS1iSJs-518">
          <mxGeometry relative="1" as="geometry" />
        </mxCell>
        <mxCell id="_k3ZWYJr-vB7ajS1iSJs-555" style="edgeStyle=orthogonalEdgeStyle;rounded=0;orthogonalLoop=1;jettySize=auto;html=1;entryX=0.5;entryY=0;entryDx=0;entryDy=0;fontSize=13;fontColor=#FFFFFF;" edge="1" parent="1" source="_k3ZWYJr-vB7ajS1iSJs-515" target="_k3ZWYJr-vB7ajS1iSJs-554">
          <mxGeometry relative="1" as="geometry" />
        </mxCell>
        <mxCell id="_k3ZWYJr-vB7ajS1iSJs-515" value="They send link to the endpoint passing the report_id" style="rounded=0;whiteSpace=wrap;html=1;strokeColor=#000000;strokeWidth=1;" vertex="1" parent="1">
          <mxGeometry x="220" y="1910" width="140" height="100" as="geometry" />
        </mxCell>
        <mxCell id="_k3ZWYJr-vB7ajS1iSJs-516" value="&lt;div&gt;&lt;br&gt;&lt;/div&gt;&lt;div style=&quot;font-size: 16px;&quot;&gt;&lt;b style=&quot;&quot;&gt;&lt;font style=&quot;font-size: 16px;&quot;&gt;COMPLETE REPORT EXAMPLE:&lt;/font&gt;&lt;/b&gt;&lt;/div&gt;&lt;div style=&quot;font-size: 16px;&quot;&gt;&lt;br&gt;&lt;/div&gt;&lt;div&gt;[&lt;/div&gt;&lt;div&gt;&amp;nbsp; &amp;nbsp; {&lt;/div&gt;&lt;div&gt;&amp;nbsp; &amp;nbsp; &amp;nbsp; &amp;nbsp; &quot;type&quot;: &quot;row&quot;,&lt;/div&gt;&lt;div&gt;&amp;nbsp; &amp;nbsp; &amp;nbsp; &amp;nbsp; &quot;children&quot;: [&lt;/div&gt;&lt;div&gt;&amp;nbsp; &amp;nbsp; &amp;nbsp; &amp;nbsp; &amp;nbsp; &amp;nbsp; {&lt;/div&gt;&lt;div&gt;&amp;nbsp; &amp;nbsp; &amp;nbsp; &amp;nbsp; &amp;nbsp; &amp;nbsp; &amp;nbsp; &amp;nbsp; &quot;type&quot;: &quot;column&quot;,&lt;/div&gt;&lt;div&gt;&amp;nbsp; &amp;nbsp; &amp;nbsp; &amp;nbsp; &amp;nbsp; &amp;nbsp; &amp;nbsp; &amp;nbsp; &quot;widgets&quot;: [&lt;/div&gt;&lt;div&gt;&amp;nbsp; &amp;nbsp; &amp;nbsp; &amp;nbsp; &amp;nbsp; &amp;nbsp; &amp;nbsp; &amp;nbsp; &amp;nbsp; &amp;nbsp; {&lt;/div&gt;&lt;div&gt;&amp;nbsp; &amp;nbsp; &amp;nbsp; &amp;nbsp; &amp;nbsp; &amp;nbsp; &amp;nbsp; &amp;nbsp; &amp;nbsp; &amp;nbsp; &amp;nbsp; &amp;nbsp; &quot;id&quot;: 24,&lt;/div&gt;&lt;div&gt;&amp;nbsp; &amp;nbsp; &amp;nbsp; &amp;nbsp; &amp;nbsp; &amp;nbsp; &amp;nbsp; &amp;nbsp; &amp;nbsp; &amp;nbsp; &amp;nbsp; &amp;nbsp; &quot;key&quot;: &quot;filter&quot;,&lt;/div&gt;&lt;div&gt;&amp;nbsp; &amp;nbsp; &amp;nbsp; &amp;nbsp; &amp;nbsp; &amp;nbsp; &amp;nbsp; &amp;nbsp; &amp;nbsp; &amp;nbsp; &amp;nbsp; &amp;nbsp; &quot;data&quot;: {&lt;/div&gt;&lt;div&gt;&amp;nbsp; &amp;nbsp; &amp;nbsp; &amp;nbsp; &amp;nbsp; &amp;nbsp; &amp;nbsp; &amp;nbsp; &amp;nbsp; &amp;nbsp; &amp;nbsp; &amp;nbsp; &amp;nbsp; &amp;nbsp; &quot;options&quot;: [ {&quot;label&quot;: &quot;id&quot;, &quot;id&quot;: 1},&lt;/div&gt;&lt;div&gt;&amp;nbsp; &amp;nbsp; &amp;nbsp; &amp;nbsp; &amp;nbsp; &amp;nbsp; &amp;nbsp; &amp;nbsp; &amp;nbsp; &amp;nbsp; &amp;nbsp; &amp;nbsp; &amp;nbsp; &amp;nbsp; &amp;nbsp; &amp;nbsp; &amp;nbsp; &amp;nbsp; &amp;nbsp; &amp;nbsp; &amp;nbsp; &amp;nbsp; &amp;nbsp; {&quot;label&quot;: &quot;fido_id&quot;, &quot;id&quot;: 2},&lt;/div&gt;&lt;div&gt;&amp;nbsp; &amp;nbsp; &amp;nbsp; &amp;nbsp; &amp;nbsp; &amp;nbsp; &amp;nbsp; &amp;nbsp; &amp;nbsp; &amp;nbsp; &amp;nbsp; &amp;nbsp; &amp;nbsp; &amp;nbsp; &amp;nbsp; &amp;nbsp; &amp;nbsp; &amp;nbsp; &amp;nbsp; &amp;nbsp; &amp;nbsp; &amp;nbsp; &amp;nbsp; {&quot;label&quot;: &quot;session_id&quot;, &quot;id&quot;: 3},&amp;nbsp;&lt;/div&gt;&amp;nbsp; &amp;nbsp; &amp;nbsp; &amp;nbsp; &amp;nbsp; &amp;nbsp; &amp;nbsp; &amp;nbsp; &amp;nbsp; &amp;nbsp; &amp;nbsp; &amp;nbsp; &amp;nbsp; &amp;nbsp; &amp;nbsp; &amp;nbsp; &amp;nbsp; &amp;nbsp; &amp;nbsp; &amp;nbsp; &amp;nbsp; &amp;nbsp; &amp;nbsp; {&quot;label&quot;: &quot;fido_result&quot;, &quot;id&quot;: 4},&lt;br&gt;&amp;nbsp; &amp;nbsp; &amp;nbsp; &amp;nbsp; &amp;nbsp; &amp;nbsp; &amp;nbsp; &amp;nbsp; &amp;nbsp; &amp;nbsp; &amp;nbsp; &amp;nbsp; &amp;nbsp; &amp;nbsp; &amp;nbsp; &amp;nbsp; &amp;nbsp; &amp;nbsp; &amp;nbsp; &amp;nbsp; &amp;nbsp; &amp;nbsp; &amp;nbsp; {&quot;label&quot;: &quot;leak_size&quot;, &quot;id&quot;: 5}&lt;br&gt;&amp;nbsp; &amp;nbsp; &amp;nbsp; &amp;nbsp; &amp;nbsp; &amp;nbsp; &amp;nbsp; &amp;nbsp; &amp;nbsp; &amp;nbsp; &amp;nbsp; &amp;nbsp; &amp;nbsp; &amp;nbsp; &amp;nbsp; &amp;nbsp; &amp;nbsp; &amp;nbsp; &amp;nbsp; &amp;nbsp; &amp;nbsp; &amp;nbsp; &amp;nbsp; {&quot;label&quot;: &quot;overdue&quot;, &quot;id&quot;: 6}&lt;br&gt;&lt;div&gt;&amp;nbsp; &amp;nbsp; &amp;nbsp; &amp;nbsp; &amp;nbsp; &amp;nbsp; &amp;nbsp; &amp;nbsp; &amp;nbsp; &amp;nbsp; &amp;nbsp; &amp;nbsp; &amp;nbsp; &amp;nbsp; &amp;nbsp; &amp;nbsp; &amp;nbsp; &amp;nbsp; &amp;nbsp; &amp;nbsp; &amp;nbsp; &amp;nbsp; &amp;nbsp; {&quot;label&quot;: &quot;user_id&quot;, &quot;id&quot;: 11} ]&lt;/div&gt;&lt;div&gt;&amp;nbsp; &amp;nbsp; &amp;nbsp; &amp;nbsp; &amp;nbsp; &amp;nbsp; &amp;nbsp; &amp;nbsp; &amp;nbsp; &amp;nbsp; &amp;nbsp; &amp;nbsp; },&lt;/div&gt;&lt;div&gt;&amp;nbsp; &amp;nbsp; &amp;nbsp; &amp;nbsp; &amp;nbsp; &amp;nbsp; &amp;nbsp; &amp;nbsp; &amp;nbsp; &amp;nbsp; &amp;nbsp; &amp;nbsp; &quot;settings&quot;: { &quot;selected&quot;: [1, 2, 5, 6, 11],&lt;/div&gt;&lt;div&gt;&lt;span style=&quot;&quot;&gt;	&lt;/span&gt;&lt;span style=&quot;&quot;&gt;	&lt;/span&gt;&lt;span style=&quot;&quot;&gt;	&lt;/span&gt;&lt;span style=&quot;&quot;&gt;	&lt;/span&gt;&lt;span style=&quot;&quot;&gt;	&lt;/span&gt;&lt;span style=&quot;&quot;&gt;	&lt;/span&gt;&lt;span style=&quot;&quot;&gt;	&lt;/span&gt;&lt;span style=&quot;&quot;&gt;	&lt;span style=&quot;&quot;&gt;	&lt;/span&gt;&lt;span style=&quot;&quot;&gt;	&lt;/span&gt; &lt;/span&gt;&lt;span style=&quot;&quot;&gt;	&lt;/span&gt;&lt;span style=&quot;&quot;&gt;	&lt;/span&gt;&lt;span style=&quot;&quot;&gt;	&lt;/span&gt;&lt;span style=&quot;&quot;&gt;	&lt;/span&gt;&lt;span style=&quot;&quot;&gt;	&lt;/span&gt;&amp;nbsp;&amp;nbsp; &lt;span style=&quot;white-space: pre;&quot;&gt;	&lt;/span&gt;&lt;span style=&quot;white-space: pre;&quot;&gt;	&lt;/span&gt;&lt;span style=&quot;white-space: pre;&quot;&gt;	&lt;/span&gt;&lt;span style=&quot;white-space: pre;&quot;&gt;	&lt;/span&gt;&lt;span style=&quot;white-space: pre;&quot;&gt;	&lt;/span&gt;&amp;nbsp; &amp;nbsp;&quot;values&quot;: [&quot;val_1&quot;,&amp;nbsp;&quot;val_2&quot;,&quot;val_5&quot;,&quot;val_6&quot;,&quot;val_11&quot;&lt;span style=&quot;background-color: initial;&quot;&gt;]&lt;/span&gt;&lt;span style=&quot;background-color: initial;&quot;&gt;&amp;nbsp;}&lt;/span&gt;&lt;/div&gt;&lt;div&gt;&amp;nbsp; &amp;nbsp; &amp;nbsp; &amp;nbsp; &amp;nbsp; &amp;nbsp; &amp;nbsp; &amp;nbsp; &amp;nbsp; &amp;nbsp; }&lt;/div&gt;&lt;div&gt;&amp;nbsp; &amp;nbsp; &amp;nbsp; &amp;nbsp; &amp;nbsp; &amp;nbsp; &amp;nbsp; &amp;nbsp; ],&lt;/div&gt;&lt;div&gt;&amp;nbsp; &amp;nbsp; &amp;nbsp; &amp;nbsp; &amp;nbsp; &amp;nbsp; &amp;nbsp; &amp;nbsp; &quot;layoutId&quot;: 11&lt;/div&gt;&lt;div&gt;&amp;nbsp; &amp;nbsp; &amp;nbsp; &amp;nbsp; &amp;nbsp; &amp;nbsp; }&lt;/div&gt;&lt;div&gt;&amp;nbsp; &amp;nbsp; &amp;nbsp; &amp;nbsp; ],&lt;/div&gt;&lt;div&gt;&amp;nbsp; &amp;nbsp; &amp;nbsp; &amp;nbsp; &quot;layoutId&quot;: 1&lt;/div&gt;&lt;div&gt;&amp;nbsp; &amp;nbsp; },&lt;/div&gt;&lt;div&gt;&amp;nbsp; &amp;nbsp; {&lt;/div&gt;&lt;div&gt;&amp;nbsp; &amp;nbsp; &amp;nbsp; &amp;nbsp; &quot;type&quot;: &quot;row&quot;,&lt;/div&gt;&lt;div&gt;&amp;nbsp; &amp;nbsp; &amp;nbsp; &amp;nbsp; &quot;children&quot;: [&lt;/div&gt;&lt;div&gt;&amp;nbsp; &amp;nbsp; &amp;nbsp; &amp;nbsp; &amp;nbsp; &amp;nbsp; {&lt;/div&gt;&lt;div&gt;&amp;nbsp; &amp;nbsp; &amp;nbsp; &amp;nbsp; &amp;nbsp; &amp;nbsp; &amp;nbsp; &amp;nbsp; &quot;type&quot;: &quot;column&quot;,&lt;/div&gt;&lt;div&gt;&amp;nbsp; &amp;nbsp; &amp;nbsp; &amp;nbsp; &amp;nbsp; &amp;nbsp; &amp;nbsp; &amp;nbsp; &quot;widgets&quot;: [&lt;/div&gt;&lt;div&gt;&amp;nbsp; &amp;nbsp; &amp;nbsp; &amp;nbsp; &amp;nbsp; &amp;nbsp; &amp;nbsp; &amp;nbsp; &amp;nbsp; &amp;nbsp; {&lt;/div&gt;&lt;div&gt;&amp;nbsp; &amp;nbsp; &amp;nbsp; &amp;nbsp; &amp;nbsp; &amp;nbsp; &amp;nbsp; &amp;nbsp; &amp;nbsp; &amp;nbsp; &amp;nbsp; &amp;nbsp; &quot;id&quot;: 40,&lt;/div&gt;&lt;div&gt;&amp;nbsp; &amp;nbsp; &amp;nbsp; &amp;nbsp; &amp;nbsp; &amp;nbsp; &amp;nbsp; &amp;nbsp; &amp;nbsp; &amp;nbsp; &amp;nbsp; &amp;nbsp; &quot;key&quot;: &quot;results&quot;,&lt;/div&gt;&lt;div&gt;&amp;nbsp; &amp;nbsp; &amp;nbsp; &amp;nbsp; &amp;nbsp; &amp;nbsp; &amp;nbsp; &amp;nbsp; &amp;nbsp; &amp;nbsp; &amp;nbsp; &amp;nbsp; &quot;data&quot;: {&lt;/div&gt;&lt;div&gt;&amp;nbsp; &amp;nbsp; &amp;nbsp; &amp;nbsp; &amp;nbsp; &amp;nbsp; &amp;nbsp; &amp;nbsp; &amp;nbsp; &amp;nbsp; &amp;nbsp; &amp;nbsp; &amp;nbsp; &amp;nbsp; &quot;options&quot;: [ {&quot;label&quot;: &quot;id&quot;, &quot;id&quot;: 1},&lt;/div&gt;&lt;div&gt;&lt;span style=&quot;&quot;&gt;&lt;/span&gt;&lt;span style=&quot;&quot;&gt;&lt;/span&gt;&lt;span style=&quot;&quot;&gt;&lt;/span&gt;&lt;span style=&quot;&quot;&gt;&lt;/span&gt;&lt;span style=&quot;&quot;&gt;&lt;/span&gt;&amp;nbsp; &amp;nbsp; &amp;nbsp; &amp;nbsp; &amp;nbsp; &amp;nbsp; &amp;nbsp; &amp;nbsp; &amp;nbsp; &amp;nbsp; &amp;nbsp; &amp;nbsp; &amp;nbsp; &amp;nbsp; &amp;nbsp; &amp;nbsp; &amp;nbsp; &amp;nbsp; &amp;nbsp; &amp;nbsp; &amp;nbsp; &amp;nbsp; &amp;nbsp; {&quot;label&quot;: &quot;fido_id&quot;, &quot;id&quot;: 2},&lt;/div&gt;&lt;div&gt;&lt;span style=&quot;&quot;&gt;	&lt;/span&gt;&lt;span style=&quot;&quot;&gt;	&lt;/span&gt;&lt;span style=&quot;&quot;&gt;	&lt;/span&gt;&lt;span style=&quot;&quot;&gt;	&lt;/span&gt;&lt;span style=&quot;&quot;&gt;	&lt;/span&gt;&lt;span style=&quot;&quot;&gt;	&lt;/span&gt;&lt;span style=&quot;&quot;&gt;	&lt;/span&gt;&lt;span style=&quot;&quot;&gt;	&lt;/span&gt;&lt;span style=&quot;&quot;&gt;	&lt;/span&gt;&lt;span style=&quot;&quot;&gt;	&lt;/span&gt;&lt;span style=&quot;white-space: pre;&quot;&gt;	&lt;/span&gt;&lt;span style=&quot;white-space: pre;&quot;&gt;	&lt;/span&gt;&lt;span style=&quot;white-space: pre;&quot;&gt;	&lt;/span&gt;&lt;span style=&quot;white-space: pre;&quot;&gt;	&lt;/span&gt;&amp;nbsp;&amp;nbsp;&amp;nbsp; &amp;nbsp; &amp;nbsp; &lt;span style=&quot;&quot;&gt;	&lt;/span&gt;&lt;span style=&quot;&quot;&gt;	&lt;/span&gt;&lt;span style=&quot;&quot;&gt;	&lt;/span&gt;&lt;span style=&quot;&quot;&gt;	&lt;/span&gt;&lt;span style=&quot;&quot;&gt;	&lt;/span&gt;&amp;nbsp; &amp;nbsp; &amp;nbsp; {&quot;label&quot;: &quot;session_id&quot;, &quot;id&quot;: 3},&lt;/div&gt;&lt;div&gt;&amp;nbsp; &amp;nbsp; &amp;nbsp; &amp;nbsp; &amp;nbsp; &amp;nbsp; &amp;nbsp; &amp;nbsp; &amp;nbsp; &amp;nbsp; &amp;nbsp; &amp;nbsp; &amp;nbsp; &amp;nbsp; &amp;nbsp; &amp;nbsp; &amp;nbsp; &amp;nbsp; &amp;nbsp; &amp;nbsp; &amp;nbsp; &amp;nbsp; &amp;nbsp; {&quot;label&quot;: &quot;fido_result&quot;, &quot;id&quot;: 4},&lt;/div&gt;&lt;div&gt;&lt;span style=&quot;&quot;&gt;	&lt;/span&gt;&lt;span style=&quot;&quot;&gt;	&lt;/span&gt;&lt;span style=&quot;&quot;&gt;	&lt;/span&gt;&lt;span style=&quot;&quot;&gt;	&lt;/span&gt;&lt;span style=&quot;&quot;&gt;	&lt;/span&gt;&lt;span style=&quot;&quot;&gt;	&lt;/span&gt;&lt;span style=&quot;&quot;&gt;	&lt;/span&gt;&lt;span style=&quot;&quot;&gt;	&lt;/span&gt;&lt;span style=&quot;&quot;&gt;	&lt;/span&gt;&lt;span style=&quot;&quot;&gt;	&lt;/span&gt;&lt;span style=&quot;&quot;&gt;	&lt;/span&gt;&lt;span style=&quot;&quot;&gt;	&lt;/span&gt;&lt;span style=&quot;&quot;&gt;	&lt;/span&gt;&lt;span style=&quot;&quot;&gt;	&lt;/span&gt;&lt;span style=&quot;&quot;&gt;	&lt;/span&gt;&lt;span style=&quot;&quot;&gt;	&lt;/span&gt;&lt;span style=&quot;&quot;&gt;	&lt;/span&gt;&lt;span style=&quot;&quot;&gt;	&lt;/span&gt;&lt;span style=&quot;&quot;&gt;	&lt;/span&gt;&lt;span style=&quot;&quot;&gt;	&lt;/span&gt;&lt;span style=&quot;white-space: pre;&quot;&gt;	&lt;/span&gt;&lt;span style=&quot;white-space: pre;&quot;&gt;	&lt;/span&gt;&lt;span style=&quot;white-space: pre;&quot;&gt;	&lt;/span&gt;&lt;span style=&quot;white-space: pre;&quot;&gt;	&lt;/span&gt;&lt;span style=&quot;white-space: pre;&quot;&gt;	&lt;/span&gt;&amp;nbsp; &amp;nbsp; &amp;nbsp; {&quot;label&quot;: &quot;leak_size&quot;, &quot;id&quot;: 5},&lt;/div&gt;&lt;span style=&quot;&quot;&gt;	&lt;/span&gt;&lt;span style=&quot;&quot;&gt;	&lt;/span&gt;&lt;span style=&quot;&quot;&gt;	&lt;/span&gt;&lt;span style=&quot;&quot;&gt;	&lt;/span&gt;&lt;span style=&quot;&quot;&gt;	&lt;/span&gt;&lt;span style=&quot;&quot;&gt;	&lt;/span&gt;&lt;span style=&quot;&quot;&gt;	&lt;/span&gt;&lt;span style=&quot;&quot;&gt;	&lt;/span&gt;&lt;span style=&quot;&quot;&gt;	&lt;/span&gt;&lt;span style=&quot;&quot;&gt;	&lt;/span&gt;&lt;span style=&quot;&quot;&gt;	&lt;/span&gt;&lt;span style=&quot;&quot;&gt;	&lt;/span&gt;&lt;span style=&quot;&quot;&gt;	&lt;/span&gt;&lt;span style=&quot;&quot;&gt;	&lt;/span&gt;&lt;span style=&quot;&quot;&gt;	&lt;/span&gt;&lt;span style=&quot;white-space: pre;&quot;&gt;	&lt;/span&gt;&lt;span style=&quot;white-space: pre;&quot;&gt;	&lt;/span&gt;&lt;span style=&quot;white-space: pre;&quot;&gt;	&lt;/span&gt;&lt;span style=&quot;white-space: pre;&quot;&gt;	&lt;/span&gt;&lt;span style=&quot;white-space: pre;&quot;&gt;	&lt;/span&gt;&amp;nbsp; &amp;nbsp; &amp;nbsp; {&quot;label&quot;: &quot;overdue&quot;, &quot;id&quot;: 6} ]&lt;div&gt;&amp;nbsp;&lt;span style=&quot;background-color: initial;&quot;&gt;&amp;nbsp; &amp;nbsp; &amp;nbsp; &amp;nbsp; &amp;nbsp; &amp;nbsp; &amp;nbsp; &amp;nbsp; &amp;nbsp; &amp;nbsp; &amp;nbsp; &amp;nbsp; },&lt;/span&gt;&lt;/div&gt;&lt;div&gt;&amp;nbsp; &amp;nbsp; &amp;nbsp; &amp;nbsp; &amp;nbsp; &amp;nbsp; &amp;nbsp; &amp;nbsp; &amp;nbsp; &amp;nbsp; &amp;nbsp; &amp;nbsp; &quot;settings&quot;: { &quot;selected&quot;: [1, 2, 3, 4, 5] }&lt;/div&gt;&lt;div&gt;&amp;nbsp; &amp;nbsp; &amp;nbsp; &amp;nbsp; &amp;nbsp; &amp;nbsp; &amp;nbsp; &amp;nbsp; &amp;nbsp; &amp;nbsp; },&lt;/div&gt;&lt;div&gt;&amp;nbsp; &amp;nbsp; &amp;nbsp; &amp;nbsp; &amp;nbsp; &amp;nbsp; &amp;nbsp; &amp;nbsp; &amp;nbsp; &amp;nbsp; {&lt;/div&gt;&lt;div&gt;&amp;nbsp; &amp;nbsp; &amp;nbsp; &amp;nbsp; &amp;nbsp; &amp;nbsp; &amp;nbsp; &amp;nbsp; &amp;nbsp; &amp;nbsp; &amp;nbsp; &amp;nbsp; &quot;id&quot;: 41,&lt;/div&gt;&lt;div&gt;&amp;nbsp; &amp;nbsp; &amp;nbsp; &amp;nbsp; &amp;nbsp; &amp;nbsp; &amp;nbsp; &amp;nbsp; &amp;nbsp; &amp;nbsp; &amp;nbsp; &amp;nbsp; &quot;key&quot;: &quot;summary&quot;,&lt;/div&gt;&lt;div&gt;&amp;nbsp; &amp;nbsp; &amp;nbsp; &amp;nbsp; &amp;nbsp; &amp;nbsp; &amp;nbsp; &amp;nbsp; &amp;nbsp; &amp;nbsp; &amp;nbsp; &amp;nbsp; &quot;data&quot;: {&lt;/div&gt;&lt;div&gt;&amp;nbsp; &amp;nbsp; &amp;nbsp; &amp;nbsp; &amp;nbsp; &amp;nbsp; &amp;nbsp; &amp;nbsp; &amp;nbsp; &amp;nbsp; &amp;nbsp; &amp;nbsp; &amp;nbsp; &amp;nbsp; &quot;options&quot;: [ {&quot;label&quot;: &quot;# large leaks&quot;, &quot;id&quot;: 7},&lt;/div&gt;&lt;div&gt;&lt;span style=&quot;&quot;&gt;	&lt;/span&gt;&lt;span style=&quot;&quot;&gt;	&lt;/span&gt;&lt;span style=&quot;&quot;&gt;	&lt;/span&gt;&lt;span style=&quot;&quot;&gt;	&lt;/span&gt;&lt;span style=&quot;&quot;&gt;	&lt;/span&gt;&lt;span style=&quot;&quot;&gt;	&lt;/span&gt;&lt;span style=&quot;&quot;&gt;	&lt;/span&gt;&lt;span style=&quot;&quot;&gt;	&lt;/span&gt;&lt;span style=&quot;&quot;&gt;	&lt;/span&gt;&lt;span style=&quot;&quot;&gt;	&lt;/span&gt;&lt;span style=&quot;white-space: pre;&quot;&gt;	&lt;/span&gt;&lt;span style=&quot;white-space: pre;&quot;&gt;	&lt;/span&gt;&lt;span style=&quot;white-space: pre;&quot;&gt;	&lt;/span&gt;&lt;span style=&quot;white-space: pre;&quot;&gt;	&lt;/span&gt;&lt;span style=&quot;white-space: pre;&quot;&gt;	&lt;/span&gt;&amp;nbsp; &amp;nbsp; &amp;nbsp; {&quot;label&quot;: &quot;# medium leaks&quot;, &quot;id&quot;: 8},&lt;/div&gt;&lt;div&gt;&lt;span style=&quot;&quot;&gt;	&lt;/span&gt;&lt;span style=&quot;&quot;&gt;	&lt;/span&gt;&lt;span style=&quot;&quot;&gt;	&lt;/span&gt;&lt;span style=&quot;&quot;&gt;	&lt;/span&gt;&lt;span style=&quot;&quot;&gt;	&lt;/span&gt;&lt;span style=&quot;&quot;&gt;	&lt;/span&gt;&lt;span style=&quot;&quot;&gt;	&lt;/span&gt;&lt;span style=&quot;&quot;&gt;	&lt;/span&gt;&lt;span style=&quot;&quot;&gt;	&lt;/span&gt;&lt;span style=&quot;&quot;&gt;	&lt;/span&gt;&lt;span style=&quot;white-space: pre;&quot;&gt;	&lt;/span&gt;&lt;span style=&quot;white-space: pre;&quot;&gt;	&lt;/span&gt;&lt;span style=&quot;white-space: pre;&quot;&gt;	&lt;/span&gt;&lt;span style=&quot;white-space: pre;&quot;&gt;	&lt;/span&gt;&lt;span style=&quot;white-space: pre;&quot;&gt;	&lt;/span&gt;&amp;nbsp; &amp;nbsp; &amp;nbsp; {&quot;label&quot;: &quot;# smaill leaks&quot;, &quot;id&quot;: 9},&lt;/div&gt;&lt;div&gt;&lt;span style=&quot;&quot;&gt;	&lt;/span&gt;&lt;span style=&quot;&quot;&gt;	&lt;/span&gt;&lt;span style=&quot;&quot;&gt;	&lt;/span&gt;&lt;span style=&quot;&quot;&gt;	&lt;/span&gt;&lt;span style=&quot;&quot;&gt;	&lt;/span&gt;&lt;span style=&quot;&quot;&gt;	&lt;/span&gt;&lt;span style=&quot;&quot;&gt;	&lt;/span&gt;&lt;span style=&quot;&quot;&gt;	&lt;/span&gt;&lt;span style=&quot;&quot;&gt;	&lt;/span&gt;&lt;span style=&quot;&quot;&gt;	&lt;/span&gt;&lt;span style=&quot;white-space: pre;&quot;&gt;	&lt;/span&gt;&lt;span style=&quot;white-space: pre;&quot;&gt;	&lt;/span&gt;&lt;span style=&quot;white-space: pre;&quot;&gt;	&lt;/span&gt;&lt;span style=&quot;white-space: pre;&quot;&gt;	&lt;/span&gt;&lt;span style=&quot;white-space: pre;&quot;&gt;	&lt;/span&gt;&amp;nbsp; &amp;nbsp; &amp;nbsp; {&quot;label&quot;: &quot;# alarms&quot;, &quot;id&quot;: 14} ]&lt;/div&gt;&lt;div&gt;&amp;nbsp; &amp;nbsp; &amp;nbsp; &amp;nbsp; &amp;nbsp; &amp;nbsp; &amp;nbsp; &amp;nbsp; &amp;nbsp; &amp;nbsp; &amp;nbsp; &amp;nbsp; },&lt;/div&gt;&lt;div&gt;&amp;nbsp; &amp;nbsp; &amp;nbsp; &amp;nbsp; &amp;nbsp; &amp;nbsp; &amp;nbsp; &amp;nbsp; &amp;nbsp; &amp;nbsp; &amp;nbsp; &amp;nbsp; &quot;settings&quot;: { &quot;selected&quot;: [7, 8, 9, 14] }&lt;/div&gt;&lt;div&gt;&amp;nbsp; &amp;nbsp; &amp;nbsp; &amp;nbsp; &amp;nbsp; &amp;nbsp; &amp;nbsp; &amp;nbsp; &amp;nbsp; &amp;nbsp; }&lt;/div&gt;&lt;div&gt;&amp;nbsp; &amp;nbsp; &amp;nbsp; &amp;nbsp; &amp;nbsp; &amp;nbsp; &amp;nbsp; &amp;nbsp; ],&lt;/div&gt;&lt;div&gt;&amp;nbsp; &amp;nbsp; &amp;nbsp; &amp;nbsp; &amp;nbsp; &amp;nbsp; &amp;nbsp; &amp;nbsp; &quot;layoutId&quot;: 21&lt;/div&gt;&lt;div&gt;&amp;nbsp; &amp;nbsp; &amp;nbsp; &amp;nbsp; &amp;nbsp; &amp;nbsp; }&lt;/div&gt;&lt;div&gt;&amp;nbsp; &amp;nbsp; &amp;nbsp; &amp;nbsp; ]&lt;/div&gt;&lt;div&gt;&amp;nbsp; &amp;nbsp; }&lt;/div&gt;&lt;div&gt;]&lt;/div&gt;" style="rounded=0;whiteSpace=wrap;html=1;strokeColor=#0e8088;strokeWidth=1;fontSize=12;fontColor=default;fillColor=#B4D9DB;gradientColor=none;verticalAlign=top;align=left;spacing=5;spacingTop=-20;" vertex="1" parent="1">
          <mxGeometry x="860" y="1910" width="660" height="980" as="geometry" />
        </mxCell>
        <mxCell id="_k3ZWYJr-vB7ajS1iSJs-518" value="reports" style="shape=table;startSize=30;container=1;collapsible=1;childLayout=tableLayout;fixedRows=1;rowLines=0;fontStyle=1;align=center;resizeLast=1;" vertex="1" parent="1">
          <mxGeometry x="580" y="2200" width="150" height="180" as="geometry" />
        </mxCell>
        <mxCell id="_k3ZWYJr-vB7ajS1iSJs-519" value="" style="shape=tableRow;horizontal=0;startSize=0;swimlaneHead=0;swimlaneBody=0;fillColor=none;collapsible=0;dropTarget=0;points=[[0,0.5],[1,0.5]];portConstraint=eastwest;top=0;left=0;right=0;bottom=1;" vertex="1" parent="_k3ZWYJr-vB7ajS1iSJs-518">
          <mxGeometry y="30" width="150" height="30" as="geometry" />
        </mxCell>
        <mxCell id="_k3ZWYJr-vB7ajS1iSJs-520" value="PK" style="shape=partialRectangle;connectable=0;fillColor=none;top=0;left=0;bottom=0;right=0;fontStyle=1;overflow=hidden;" vertex="1" parent="_k3ZWYJr-vB7ajS1iSJs-519">
          <mxGeometry width="30" height="30" as="geometry">
            <mxRectangle width="30" height="30" as="alternateBounds" />
          </mxGeometry>
        </mxCell>
        <mxCell id="_k3ZWYJr-vB7ajS1iSJs-521" value="id" style="shape=partialRectangle;connectable=0;fillColor=none;top=0;left=0;bottom=0;right=0;align=left;spacingLeft=6;fontStyle=5;overflow=hidden;" vertex="1" parent="_k3ZWYJr-vB7ajS1iSJs-519">
          <mxGeometry x="30" width="120" height="30" as="geometry">
            <mxRectangle width="120" height="30" as="alternateBounds" />
          </mxGeometry>
        </mxCell>
        <mxCell id="_k3ZWYJr-vB7ajS1iSJs-522" value="" style="shape=tableRow;horizontal=0;startSize=0;swimlaneHead=0;swimlaneBody=0;fillColor=none;collapsible=0;dropTarget=0;points=[[0,0.5],[1,0.5]];portConstraint=eastwest;top=0;left=0;right=0;bottom=0;" vertex="1" parent="_k3ZWYJr-vB7ajS1iSJs-518">
          <mxGeometry y="60" width="150" height="30" as="geometry" />
        </mxCell>
        <mxCell id="_k3ZWYJr-vB7ajS1iSJs-523" value="" style="shape=partialRectangle;connectable=0;fillColor=none;top=0;left=0;bottom=0;right=0;editable=1;overflow=hidden;" vertex="1" parent="_k3ZWYJr-vB7ajS1iSJs-522">
          <mxGeometry width="30" height="30" as="geometry">
            <mxRectangle width="30" height="30" as="alternateBounds" />
          </mxGeometry>
        </mxCell>
        <mxCell id="_k3ZWYJr-vB7ajS1iSJs-524" value="user_id" style="shape=partialRectangle;connectable=0;fillColor=none;top=0;left=0;bottom=0;right=0;align=left;spacingLeft=6;overflow=hidden;" vertex="1" parent="_k3ZWYJr-vB7ajS1iSJs-522">
          <mxGeometry x="30" width="120" height="30" as="geometry">
            <mxRectangle width="120" height="30" as="alternateBounds" />
          </mxGeometry>
        </mxCell>
        <mxCell id="_k3ZWYJr-vB7ajS1iSJs-525" value="" style="shape=tableRow;horizontal=0;startSize=0;swimlaneHead=0;swimlaneBody=0;fillColor=none;collapsible=0;dropTarget=0;points=[[0,0.5],[1,0.5]];portConstraint=eastwest;top=0;left=0;right=0;bottom=0;" vertex="1" parent="_k3ZWYJr-vB7ajS1iSJs-518">
          <mxGeometry y="90" width="150" height="30" as="geometry" />
        </mxCell>
        <mxCell id="_k3ZWYJr-vB7ajS1iSJs-526" value="" style="shape=partialRectangle;connectable=0;fillColor=none;top=0;left=0;bottom=0;right=0;editable=1;overflow=hidden;" vertex="1" parent="_k3ZWYJr-vB7ajS1iSJs-525">
          <mxGeometry width="30" height="30" as="geometry">
            <mxRectangle width="30" height="30" as="alternateBounds" />
          </mxGeometry>
        </mxCell>
        <mxCell id="_k3ZWYJr-vB7ajS1iSJs-527" value="name" style="shape=partialRectangle;connectable=0;fillColor=none;top=0;left=0;bottom=0;right=0;align=left;spacingLeft=6;overflow=hidden;" vertex="1" parent="_k3ZWYJr-vB7ajS1iSJs-525">
          <mxGeometry x="30" width="120" height="30" as="geometry">
            <mxRectangle width="120" height="30" as="alternateBounds" />
          </mxGeometry>
        </mxCell>
        <mxCell id="_k3ZWYJr-vB7ajS1iSJs-528" value="" style="shape=tableRow;horizontal=0;startSize=0;swimlaneHead=0;swimlaneBody=0;fillColor=none;collapsible=0;dropTarget=0;points=[[0,0.5],[1,0.5]];portConstraint=eastwest;top=0;left=0;right=0;bottom=0;" vertex="1" parent="_k3ZWYJr-vB7ajS1iSJs-518">
          <mxGeometry y="120" width="150" height="30" as="geometry" />
        </mxCell>
        <mxCell id="_k3ZWYJr-vB7ajS1iSJs-529" value="" style="shape=partialRectangle;connectable=0;fillColor=none;top=0;left=0;bottom=0;right=0;editable=1;overflow=hidden;" vertex="1" parent="_k3ZWYJr-vB7ajS1iSJs-528">
          <mxGeometry width="30" height="30" as="geometry">
            <mxRectangle width="30" height="30" as="alternateBounds" />
          </mxGeometry>
        </mxCell>
        <mxCell id="_k3ZWYJr-vB7ajS1iSJs-530" value="structure" style="shape=partialRectangle;connectable=0;fillColor=#B4D9DB;top=0;left=0;bottom=0;right=0;align=left;spacingLeft=6;overflow=hidden;" vertex="1" parent="_k3ZWYJr-vB7ajS1iSJs-528">
          <mxGeometry x="30" width="120" height="30" as="geometry">
            <mxRectangle width="120" height="30" as="alternateBounds" />
          </mxGeometry>
        </mxCell>
        <mxCell id="_k3ZWYJr-vB7ajS1iSJs-531" value="" style="shape=tableRow;horizontal=0;startSize=0;swimlaneHead=0;swimlaneBody=0;fillColor=none;collapsible=0;dropTarget=0;points=[[0,0.5],[1,0.5]];portConstraint=eastwest;top=0;left=0;right=0;bottom=0;" vertex="1" parent="_k3ZWYJr-vB7ajS1iSJs-518">
          <mxGeometry y="150" width="150" height="30" as="geometry" />
        </mxCell>
        <mxCell id="_k3ZWYJr-vB7ajS1iSJs-532" value="" style="shape=partialRectangle;connectable=0;fillColor=none;top=0;left=0;bottom=0;right=0;editable=1;overflow=hidden;" vertex="1" parent="_k3ZWYJr-vB7ajS1iSJs-531">
          <mxGeometry width="30" height="30" as="geometry">
            <mxRectangle width="30" height="30" as="alternateBounds" />
          </mxGeometry>
        </mxCell>
        <mxCell id="_k3ZWYJr-vB7ajS1iSJs-533" value="layout_id" style="shape=partialRectangle;connectable=0;fillColor=none;top=0;left=0;bottom=0;right=0;align=left;spacingLeft=6;overflow=hidden;" vertex="1" parent="_k3ZWYJr-vB7ajS1iSJs-531">
          <mxGeometry x="30" width="120" height="30" as="geometry">
            <mxRectangle width="120" height="30" as="alternateBounds" />
          </mxGeometry>
        </mxCell>
        <mxCell id="_k3ZWYJr-vB7ajS1iSJs-536" value="I&#39;m using the ID of the report_column table" style="html=1;align=left;verticalAlign=middle;fillColor=#536C70;strokeColor=#0e8088;gradientColor=none;spacing=5;spacingTop=-20;rounded=0;strokeWidth=1;fontSize=15;fontColor=#FFFFFF;whiteSpace=wrap;" vertex="1" parent="1">
          <mxGeometry x="1345" y="370" width="120" height="110" as="geometry" />
        </mxCell>
        <mxCell id="_k3ZWYJr-vB7ajS1iSJs-538" style="edgeStyle=orthogonalEdgeStyle;rounded=0;orthogonalLoop=1;jettySize=auto;html=1;fontSize=15;fontColor=#FFFFFF;" edge="1" parent="1" source="_k3ZWYJr-vB7ajS1iSJs-293" target="_k3ZWYJr-vB7ajS1iSJs-536">
          <mxGeometry relative="1" as="geometry" />
        </mxCell>
        <mxCell id="_k3ZWYJr-vB7ajS1iSJs-539" value="" style="shape=curlyBracket;whiteSpace=wrap;html=1;rounded=1;labelPosition=left;verticalLabelPosition=middle;align=right;verticalAlign=middle;strokeColor=#000000;strokeWidth=2;fontSize=15;fontColor=#FFFFFF;fillColor=#536C70;gradientColor=none;fontStyle=0" vertex="1" parent="1">
          <mxGeometry x="820" y="210" width="20" height="360" as="geometry" />
        </mxCell>
        <mxCell id="_k3ZWYJr-vB7ajS1iSJs-540" value="" style="shape=curlyBracket;whiteSpace=wrap;html=1;rounded=1;labelPosition=left;verticalLabelPosition=middle;align=right;verticalAlign=middle;strokeColor=#000000;strokeWidth=2;fontSize=15;fontColor=#FFFFFF;fillColor=#536C70;gradientColor=none;" vertex="1" parent="1">
          <mxGeometry x="820" y="570" width="20" height="240" as="geometry" />
        </mxCell>
        <mxCell id="_k3ZWYJr-vB7ajS1iSJs-541" value="Datasource 1" style="text;strokeColor=none;fillColor=none;html=1;fontSize=13;fontStyle=1;verticalAlign=middle;align=center;strokeWidth=1;fontColor=#000000;" vertex="1" parent="1">
          <mxGeometry x="727" y="370" width="100" height="40" as="geometry" />
        </mxCell>
        <mxCell id="_k3ZWYJr-vB7ajS1iSJs-542" value="Datasource 2" style="text;strokeColor=none;fillColor=none;html=1;fontSize=13;fontStyle=1;verticalAlign=middle;align=center;strokeWidth=1;fontColor=#000000;" vertex="1" parent="1">
          <mxGeometry x="727" y="670" width="100" height="40" as="geometry" />
        </mxCell>
        <mxCell id="_k3ZWYJr-vB7ajS1iSJs-543" value="Possible options, should be the same as results" style="shape=callout;whiteSpace=wrap;html=1;perimeter=calloutPerimeter;strokeColor=#000000;strokeWidth=2;fontSize=13;fontColor=#FFFFFF;fillColor=#66858A;gradientColor=none;" vertex="1" parent="1">
          <mxGeometry x="1100" y="2040" width="120" height="80" as="geometry" />
        </mxCell>
        <mxCell id="_k3ZWYJr-vB7ajS1iSJs-544" value="Chosen options and value for every filter" style="shape=callout;whiteSpace=wrap;html=1;perimeter=calloutPerimeter;strokeColor=#000000;strokeWidth=2;fontSize=13;fontColor=#FFFFFF;fillColor=#66858A;gradientColor=none;" vertex="1" parent="1">
          <mxGeometry x="1190" y="2150" width="120" height="80" as="geometry" />
        </mxCell>
        <mxCell id="_k3ZWYJr-vB7ajS1iSJs-545" value="Columns available and columns selected" style="shape=callout;whiteSpace=wrap;html=1;perimeter=calloutPerimeter;strokeColor=#000000;strokeWidth=2;fontSize=13;fontColor=#FFFFFF;fillColor=#66858A;gradientColor=none;" vertex="1" parent="1">
          <mxGeometry x="1110" y="2440" width="120" height="80" as="geometry" />
        </mxCell>
        <mxCell id="_k3ZWYJr-vB7ajS1iSJs-546" value="Summaries available and selected" style="shape=callout;whiteSpace=wrap;html=1;perimeter=calloutPerimeter;strokeColor=#000000;strokeWidth=2;fontSize=13;fontColor=#FFFFFF;fillColor=#66858A;gradientColor=none;" vertex="1" parent="1">
          <mxGeometry x="1140" y="2620" width="120" height="80" as="geometry" />
        </mxCell>
        <mxCell id="_k3ZWYJr-vB7ajS1iSJs-548" style="edgeStyle=orthogonalEdgeStyle;rounded=0;orthogonalLoop=1;jettySize=auto;html=1;entryX=0.5;entryY=0;entryDx=0;entryDy=0;fontSize=13;fontColor=#FFFFFF;" edge="1" parent="1" source="_k3ZWYJr-vB7ajS1iSJs-547" target="_k3ZWYJr-vB7ajS1iSJs-516">
          <mxGeometry relative="1" as="geometry" />
        </mxCell>
        <mxCell id="_k3ZWYJr-vB7ajS1iSJs-547" value="The user writes the values for the filters selected. We could keep that in &quot;settings/values&quot; inside the widget structure" style="rounded=0;whiteSpace=wrap;html=1;strokeColor=#000000;strokeWidth=1;" vertex="1" parent="1">
          <mxGeometry x="300" y="1754" width="186" height="80" as="geometry" />
        </mxCell>
        <mxCell id="_k3ZWYJr-vB7ajS1iSJs-549" style="edgeStyle=orthogonalEdgeStyle;rounded=0;orthogonalLoop=1;jettySize=auto;html=1;entryX=0;entryY=0.5;entryDx=0;entryDy=0;fontSize=13;fontColor=#FFFFFF;" edge="1" parent="1" source="_k3ZWYJr-vB7ajS1iSJs-528" target="_k3ZWYJr-vB7ajS1iSJs-516">
          <mxGeometry relative="1" as="geometry" />
        </mxCell>
        <mxCell id="_k3ZWYJr-vB7ajS1iSJs-557" style="edgeStyle=orthogonalEdgeStyle;rounded=0;orthogonalLoop=1;jettySize=auto;html=1;entryX=0.5;entryY=0;entryDx=0;entryDy=0;fontSize=13;fontColor=#FFFFFF;" edge="1" parent="1" source="_k3ZWYJr-vB7ajS1iSJs-554" target="_k3ZWYJr-vB7ajS1iSJs-556">
          <mxGeometry relative="1" as="geometry" />
        </mxCell>
        <mxCell id="_k3ZWYJr-vB7ajS1iSJs-554" value="With the report number we can access to all the report information inside the resport structure." style="rounded=0;whiteSpace=wrap;html=1;strokeColor=#006EAF;strokeWidth=2;fontSize=13;fontColor=#ffffff;fillColor=#0F577A;" vertex="1" parent="1">
          <mxGeometry x="130" y="2338" width="320" height="130" as="geometry" />
        </mxCell>
        <mxCell id="_k3ZWYJr-vB7ajS1iSJs-556" value="Send the response back in the same object. Query result and summaries" style="rounded=0;whiteSpace=wrap;html=1;strokeColor=#000000;strokeWidth=2;fontSize=13;fontColor=#FFFFFF;fillColor=#0F577A;gradientColor=none;" vertex="1" parent="1">
          <mxGeometry x="190" y="2590" width="200" height="100" as="geometry" />
        </mxCell>
      </root>
    </mxGraphModel>
  </diagram>
</mxfile>
